<svg xmlns="http://www.w3.org/2000/svg" xmlns:xlink="http://www.w3.org/1999/xlink" width="851" zoomAndPan="magnify" viewBox="0 0 638.25 236.249991" height="315" preserveAspectRatio="xMidYMid meet" version="1.0"><defs><g/><clipPath id="675afb5de3"><path d="M 199 33 L 636.867188 33 L 636.867188 147 L 199 147 Z M 199 33 " clip-rule="nonzero"/></clipPath><clipPath id="c199095bd7"><rect x="0" width="438" y="0" height="114"/></clipPath><clipPath id="d13093ec9c"><path d="M 199 134 L 636.867188 134 L 636.867188 190 L 199 190 Z M 199 134 " clip-rule="nonzero"/></clipPath><clipPath id="0a2708c624"><rect x="0" width="438" y="0" height="56"/></clipPath><clipPath id="d0f94e20ab"><path d="M 149.019531 26.558594 L 174.589844 26.558594 L 174.589844 146.699219 L 149.019531 146.699219 Z M 149.019531 26.558594 " clip-rule="nonzero"/></clipPath><clipPath id="7fb68dca90"><path d="M 3.132812 26.558594 L 28.851562 26.558594 L 28.851562 146.699219 L 3.132812 146.699219 Z M 3.132812 26.558594 " clip-rule="nonzero"/></clipPath><clipPath id="75ee5ee41e"><path d="M 0.824219 1.234375 L 176.390625 1.234375 L 176.390625 172.097656 L 0.824219 172.097656 Z M 0.824219 1.234375 " clip-rule="nonzero"/></clipPath><clipPath id="6bc8c7fb88"><path d="M 1.007812 0.398438 L 176.292969 0.398438 L 176.292969 171.097656 L 1.007812 171.097656 Z M 1.007812 0.398438 " clip-rule="nonzero"/></clipPath><clipPath id="46450e73f1"><rect x="0" width="177" y="0" height="172"/></clipPath><clipPath id="0e55799125"><path d="M 29.09375 1.402344 L 149.15625 1.402344 L 149.15625 26.746094 L 29.09375 26.746094 Z M 29.09375 1.402344 " clip-rule="nonzero"/></clipPath><clipPath id="68ec0785a3"><path d="M 29.09375 146.609375 L 149.15625 146.609375 L 149.15625 172.265625 L 29.09375 172.265625 Z M 29.09375 146.609375 " clip-rule="nonzero"/></clipPath><clipPath id="9d8f5296f3"><rect x="0" width="177" y="0" height="173"/></clipPath></defs><g clip-path="url(#675afb5de3)"><g transform="matrix(1, 0, 0, 1, 199, 33)"><g clip-path="url(#c199095bd7)"><g fill="#FFFFFF" fill-opacity="1"><g transform="translate(0.946646, 89.052089)"><g><path d="M 29 1.109375 C 23.875 1.109375 18.914062 0.414062 14.125 -0.96875 C 9.34375 -2.363281 5.5 -4.171875 2.59375 -6.390625 L 7.6875 -17.703125 C 10.46875 -15.660156 13.773438 -14.019531 17.609375 -12.78125 C 21.441406 -11.550781 25.269531 -10.9375 29.09375 -10.9375 C 33.363281 -10.9375 36.515625 -11.566406 38.546875 -12.828125 C 40.585938 -14.097656 41.609375 -15.785156 41.609375 -17.890625 C 41.609375 -19.429688 41.003906 -20.710938 39.796875 -21.734375 C 38.597656 -22.753906 37.054688 -23.570312 35.171875 -24.1875 C 33.285156 -24.800781 30.738281 -25.476562 27.53125 -26.21875 C 22.582031 -27.394531 18.53125 -28.570312 15.375 -29.75 C 12.226562 -30.925781 9.523438 -32.8125 7.265625 -35.40625 C 5.015625 -38 3.890625 -41.457031 3.890625 -45.78125 C 3.890625 -49.550781 4.910156 -52.960938 6.953125 -56.015625 C 8.992188 -59.078125 12.066406 -61.503906 16.171875 -63.296875 C 20.273438 -65.085938 25.296875 -65.984375 31.234375 -65.984375 C 35.367188 -65.984375 39.410156 -65.488281 43.359375 -64.5 C 47.316406 -63.507812 50.78125 -62.085938 53.75 -60.234375 L 49.109375 -48.84375 C 43.117188 -52.238281 37.128906 -53.9375 31.140625 -53.9375 C 26.941406 -53.9375 23.835938 -53.253906 21.828125 -51.890625 C 19.816406 -50.535156 18.8125 -48.742188 18.8125 -46.515625 C 18.8125 -44.296875 19.96875 -42.644531 22.28125 -41.5625 C 24.601562 -40.476562 28.144531 -39.410156 32.90625 -38.359375 C 37.84375 -37.191406 41.882812 -36.019531 45.03125 -34.84375 C 48.1875 -33.664062 50.890625 -31.8125 53.140625 -29.28125 C 55.398438 -26.75 56.53125 -23.320312 56.53125 -19 C 56.53125 -15.289062 55.492188 -11.90625 53.421875 -8.84375 C 51.359375 -5.789062 48.253906 -3.367188 44.109375 -1.578125 C 39.972656 0.210938 34.9375 1.109375 29 1.109375 Z M 29 1.109375 "/></g></g></g><g fill="#FFFFFF" fill-opacity="1"><g transform="translate(78.60171, 89.052089)"><g><path d="M 39.109375 1.109375 C 32.367188 1.109375 26.296875 -0.335938 20.890625 -3.234375 C 15.484375 -6.140625 11.25 -10.140625 8.1875 -15.234375 C 5.132812 -20.335938 3.609375 -26.070312 3.609375 -32.4375 C 3.609375 -38.800781 5.132812 -44.53125 8.1875 -49.625 C 11.25 -54.71875 15.484375 -58.71875 20.890625 -61.625 C 26.296875 -64.53125 32.367188 -65.984375 39.109375 -65.984375 C 45.835938 -65.984375 51.890625 -64.53125 57.265625 -61.625 C 62.640625 -58.71875 66.867188 -54.71875 69.953125 -49.625 C 73.046875 -44.53125 74.59375 -38.800781 74.59375 -32.4375 C 74.59375 -26.070312 73.046875 -20.335938 69.953125 -15.234375 C 66.867188 -10.140625 62.640625 -6.140625 57.265625 -3.234375 C 51.890625 -0.335938 45.835938 1.109375 39.109375 1.109375 Z M 39.109375 -11.671875 C 42.941406 -11.671875 46.398438 -12.550781 49.484375 -14.3125 C 52.578125 -16.070312 55.003906 -18.523438 56.765625 -21.671875 C 58.523438 -24.828125 59.40625 -28.414062 59.40625 -32.4375 C 59.40625 -36.445312 58.523438 -40.023438 56.765625 -43.171875 C 55.003906 -46.328125 52.578125 -48.785156 49.484375 -50.546875 C 46.398438 -52.304688 42.941406 -53.1875 39.109375 -53.1875 C 35.273438 -53.1875 31.8125 -52.304688 28.71875 -50.546875 C 25.632812 -48.785156 23.210938 -46.328125 21.453125 -43.171875 C 19.691406 -40.023438 18.8125 -36.445312 18.8125 -32.4375 C 18.8125 -28.414062 19.691406 -24.828125 21.453125 -21.671875 C 23.210938 -18.523438 25.632812 -16.070312 28.71875 -14.3125 C 31.8125 -12.550781 35.273438 -11.671875 39.109375 -11.671875 Z M 39.109375 -11.671875 "/></g></g></g><g fill="#FFFFFF" fill-opacity="1"><g transform="translate(175.34597, 89.052089)"><g><path d="M 67.1875 -64.875 L 67.1875 0 L 54.859375 0 L 22.515625 -39.390625 L 22.515625 0 L 7.6875 0 L 7.6875 -64.875 L 20.109375 -64.875 L 52.359375 -25.484375 L 52.359375 -64.875 Z M 67.1875 -64.875 "/></g></g></g><g fill="#FFFFFF" fill-opacity="1"><g transform="translate(268.754251, 89.052089)"><g><path d="M 50.40625 -13.90625 L 20.296875 -13.90625 L 14.546875 0 L -0.828125 0 L 28.078125 -64.875 L 42.90625 -64.875 L 71.90625 0 L 56.15625 0 Z M 45.6875 -25.296875 L 35.40625 -50.140625 L 25.109375 -25.296875 Z M 45.6875 -25.296875 "/></g></g></g><g fill="#FFFFFF" fill-opacity="1"><g transform="translate(358.270564, 89.052089)"><g><path d="M 49.015625 0 L 36.515625 -18.078125 L 22.703125 -18.078125 L 22.703125 0 L 7.6875 0 L 7.6875 -64.875 L 35.765625 -64.875 C 41.515625 -64.875 46.503906 -63.914062 50.734375 -62 C 54.960938 -60.082031 58.21875 -57.363281 60.5 -53.84375 C 62.789062 -50.320312 63.9375 -46.148438 63.9375 -41.328125 C 63.9375 -36.515625 62.78125 -32.359375 60.46875 -28.859375 C 58.15625 -25.367188 54.863281 -22.695312 50.59375 -20.84375 L 65.140625 0 Z M 48.75 -41.328125 C 48.75 -44.972656 47.570312 -47.769531 45.21875 -49.71875 C 42.875 -51.664062 39.445312 -52.640625 34.9375 -52.640625 L 22.703125 -52.640625 L 22.703125 -30.03125 L 34.9375 -30.03125 C 39.445312 -30.03125 42.875 -31.015625 45.21875 -32.984375 C 47.570312 -34.960938 48.75 -37.742188 48.75 -41.328125 Z M 48.75 -41.328125 "/></g></g></g></g></g></g><g clip-path="url(#d13093ec9c)"><g transform="matrix(1, 0, 0, 1, 199, 134)"><g clip-path="url(#0a2708c624)"><g fill="#FFFFFF" fill-opacity="1"><g transform="translate(0.741652, 43.335934)"><g><path d="M 37.953125 -31.59375 L 37.953125 0 L 34.75 0 L 34.75 -25.265625 L 22.34375 -4.015625 L 20.75 -4.015625 L 8.34375 -25.140625 L 8.34375 0 L 5.140625 0 L 5.140625 -31.59375 L 7.890625 -31.59375 L 21.609375 -8.171875 L 35.203125 -31.59375 Z M 37.953125 -31.59375 "/></g></g></g><g fill="#FFFFFF" fill-opacity="1"><g transform="translate(61.886394, 43.335934)"><g><path d="M 24.953125 -8.4375 L 7.359375 -8.4375 L 3.5625 0 L 0.09375 0 L 14.53125 -31.59375 L 17.828125 -31.59375 L 32.265625 0 L 28.75 0 Z M 23.734375 -11.140625 L 16.15625 -28.109375 L 8.578125 -11.140625 Z M 23.734375 -11.140625 "/></g></g></g><g fill="#FFFFFF" fill-opacity="1"><g transform="translate(112.292611, 43.335934)"><g><path d="M 26.71875 0 L 19.5 -10.15625 C 18.6875 -10.0625 17.84375 -10.015625 16.96875 -10.015625 L 8.484375 -10.015625 L 8.484375 0 L 5.140625 0 L 5.140625 -31.59375 L 16.96875 -31.59375 C 21 -31.59375 24.15625 -30.628906 26.4375 -28.703125 C 28.726562 -26.773438 29.875 -24.125 29.875 -20.75 C 29.875 -18.289062 29.25 -16.207031 28 -14.5 C 26.75 -12.800781 24.96875 -11.578125 22.65625 -10.828125 L 30.375 0 Z M 16.875 -12.859375 C 20 -12.859375 22.390625 -13.550781 24.046875 -14.9375 C 25.703125 -16.320312 26.53125 -18.257812 26.53125 -20.75 C 26.53125 -23.3125 25.703125 -25.273438 24.046875 -26.640625 C 22.390625 -28.015625 20 -28.703125 16.875 -28.703125 L 8.484375 -28.703125 L 8.484375 -12.859375 Z M 16.875 -12.859375 "/></g></g></g><g fill="#FFFFFF" fill-opacity="1"><g transform="translate(162.969552, 43.335934)"><g><path d="M 14.9375 -14.84375 L 8.484375 -8.296875 L 8.484375 0 L 5.140625 0 L 5.140625 -31.59375 L 8.484375 -31.59375 L 8.484375 -12.5 L 27.03125 -31.59375 L 30.859375 -31.59375 L 17.1875 -17.28125 L 31.8125 0 L 27.84375 0 Z M 14.9375 -14.84375 "/></g></g></g><g fill="#FFFFFF" fill-opacity="1"><g transform="translate(213.105047, 43.335934)"><g><path d="M 27.484375 -2.890625 L 27.484375 0 L 5.140625 0 L 5.140625 -31.59375 L 26.796875 -31.59375 L 26.796875 -28.703125 L 8.484375 -28.703125 L 8.484375 -17.46875 L 24.8125 -17.46875 L 24.8125 -14.625 L 8.484375 -14.625 L 8.484375 -2.890625 Z M 27.484375 -2.890625 "/></g></g></g><g fill="#FFFFFF" fill-opacity="1"><g transform="translate(261.345504, 43.335934)"><g><path d="M 11.28125 -28.703125 L 0.1875 -28.703125 L 0.1875 -31.59375 L 25.71875 -31.59375 L 25.71875 -28.703125 L 14.625 -28.703125 L 14.625 0 L 11.28125 0 Z M 11.28125 -28.703125 "/></g></g></g><g fill="#FFFFFF" fill-opacity="1"><g transform="translate(305.299579, 43.335934)"><g><path d="M 5.140625 -31.59375 L 8.484375 -31.59375 L 8.484375 0 L 5.140625 0 Z M 5.140625 -31.59375 "/></g></g></g><g fill="#FFFFFF" fill-opacity="1"><g transform="translate(336.981027, 43.335934)"><g><path d="M 31.546875 -31.59375 L 31.546875 0 L 28.796875 0 L 8.484375 -25.625 L 8.484375 0 L 5.140625 0 L 5.140625 -31.59375 L 7.890625 -31.59375 L 28.25 -5.953125 L 28.25 -31.59375 Z M 31.546875 -31.59375 "/></g></g></g><g fill="#FFFFFF" fill-opacity="1"><g transform="translate(391.718743, 43.335934)"><g><path d="M 27.390625 -15.796875 L 30.59375 -15.796875 L 30.59375 -3.75 C 29.125 -2.457031 27.378906 -1.460938 25.359375 -0.765625 C 23.347656 -0.078125 21.226562 0.265625 19 0.265625 C 15.84375 0.265625 13 -0.421875 10.46875 -1.796875 C 7.9375 -3.179688 5.945312 -5.097656 4.5 -7.546875 C 3.0625 -10.003906 2.34375 -12.753906 2.34375 -15.796875 C 2.34375 -18.828125 3.0625 -21.566406 4.5 -24.015625 C 5.945312 -26.472656 7.9375 -28.394531 10.46875 -29.78125 C 13 -31.164062 15.859375 -31.859375 19.046875 -31.859375 C 21.453125 -31.859375 23.660156 -31.472656 25.671875 -30.703125 C 27.691406 -29.941406 29.394531 -28.804688 30.78125 -27.296875 L 28.703125 -25.1875 C 26.203125 -27.644531 23.023438 -28.875 19.171875 -28.875 C 16.617188 -28.875 14.3125 -28.3125 12.25 -27.1875 C 10.1875 -26.0625 8.566406 -24.5 7.390625 -22.5 C 6.222656 -20.5 5.640625 -18.265625 5.640625 -15.796875 C 5.640625 -13.328125 6.222656 -11.097656 7.390625 -9.109375 C 8.566406 -7.128906 10.175781 -5.566406 12.21875 -4.421875 C 14.269531 -3.273438 16.578125 -2.703125 19.140625 -2.703125 C 22.378906 -2.703125 25.128906 -3.515625 27.390625 -5.140625 Z M 27.390625 -15.796875 "/></g></g></g></g></g></g><g transform="matrix(1, 0, 0, 1, 2, 31)"><g clip-path="url(#9d8f5296f3)"><g clip-path="url(#d0f94e20ab)"><path fill="#FFFFFF" d="M 149.042969 26.5625 C 153.082031 30.398438 156.714844 34.675781 159.894531 39.277344 C 161.480469 41.578125 162.949219 43.964844 164.300781 46.414062 C 165.652344 48.867188 166.863281 51.394531 167.957031 53.976562 C 170.152344 59.132812 171.792969 64.523438 172.914062 70.019531 C 174.023438 75.519531 174.574219 81.132812 174.585938 86.746094 C 174.574219 92.355469 174.023438 97.96875 172.917969 103.46875 C 172.355469 106.21875 171.664062 108.9375 170.839844 111.617188 C 170.425781 112.957031 169.984375 114.289062 169.503906 115.605469 C 169.019531 116.921875 168.507812 118.222656 167.960938 119.515625 C 166.863281 122.09375 165.652344 124.621094 164.300781 127.074219 C 162.953125 129.527344 161.484375 131.910156 159.898438 134.214844 C 156.714844 138.8125 153.082031 143.089844 149.042969 146.925781 C 152.875 142.882812 156.351562 138.519531 159.363281 133.855469 C 160.871094 131.527344 162.269531 129.128906 163.542969 126.667969 C 164.816406 124.207031 165.980469 121.691406 167.011719 119.121094 C 167.53125 117.839844 168.011719 116.542969 168.464844 115.234375 C 168.921875 113.929688 169.34375 112.613281 169.738281 111.285156 C 170.523438 108.632812 171.175781 105.941406 171.695312 103.226562 C 172.75 97.800781 173.285156 92.273438 173.273438 86.746094 C 173.285156 81.214844 172.75 75.6875 171.699219 70.261719 C 170.660156 64.828125 169.070312 59.503906 167.015625 54.363281 C 165.984375 51.792969 164.816406 49.28125 163.542969 46.820312 C 162.269531 44.359375 160.871094 41.960938 159.363281 39.632812 C 156.351562 34.96875 152.875 30.601562 149.042969 26.5625 " fill-opacity="1" fill-rule="nonzero"/></g><g clip-path="url(#7fb68dca90)"><path fill="#FFFFFF" d="M 28.675781 146.925781 C 24.636719 143.085938 21.003906 138.808594 17.824219 134.210938 C 16.238281 131.910156 14.769531 129.523438 13.417969 127.074219 C 12.066406 124.621094 10.855469 122.089844 9.761719 119.511719 C 7.566406 114.355469 5.925781 108.964844 4.804688 103.46875 C 3.695312 97.96875 3.144531 92.355469 3.132812 86.746094 C 3.144531 81.132812 3.695312 75.519531 4.804688 70.019531 C 5.363281 67.269531 6.054688 64.550781 6.878906 61.871094 C 7.292969 60.53125 7.734375 59.199219 8.214844 57.882812 C 8.699219 56.566406 9.210938 55.261719 9.757812 53.972656 C 10.855469 51.394531 12.066406 48.867188 13.417969 46.414062 C 14.765625 43.960938 16.234375 41.578125 17.820312 39.273438 C 21.003906 34.675781 24.636719 30.398438 28.675781 26.5625 C 24.84375 30.605469 21.367188 34.96875 18.355469 39.632812 C 16.847656 41.960938 15.449219 44.359375 14.175781 46.820312 C 12.902344 49.28125 11.738281 51.796875 10.707031 54.363281 C 10.1875 55.648438 9.707031 56.945312 9.253906 58.253906 C 8.796875 59.558594 8.371094 60.875 7.980469 62.203125 C 7.195312 64.855469 6.542969 67.546875 6.023438 70.261719 C 4.96875 75.6875 4.433594 81.214844 4.445312 86.746094 C 4.433594 92.273438 4.96875 97.800781 6.019531 103.226562 C 7.058594 108.660156 8.648438 113.984375 10.703125 119.125 C 11.734375 121.691406 12.902344 124.207031 14.175781 126.667969 C 15.449219 129.128906 16.847656 131.527344 18.355469 133.855469 C 21.367188 138.519531 24.84375 142.882812 28.675781 146.925781 " fill-opacity="1" fill-rule="nonzero"/></g><path fill="#FFFFFF" d="M 139.636719 35.964844 C 143.125 39.125 146.25 42.703125 149 46.554688 L 149.265625 46.914062 L 149.507812 47.285156 L 149.996094 48.027344 L 150.976562 49.511719 L 151.21875 49.882812 C 151.296875 50.007812 151.371094 50.136719 151.449219 50.261719 L 151.898438 51.027344 L 152.800781 52.5625 L 153.027344 52.945312 C 153.101562 53.074219 153.167969 53.207031 153.238281 53.339844 L 153.648438 54.128906 L 154.464844 55.710938 L 154.667969 56.109375 C 154.734375 56.238281 154.792969 56.375 154.855469 56.511719 L 155.222656 57.320312 L 155.960938 58.945312 C 159.753906 67.667969 161.703125 77.207031 161.707031 86.746094 C 161.707031 96.28125 159.757812 105.820312 155.964844 114.542969 L 155.226562 116.167969 L 154.859375 116.976562 C 154.796875 117.113281 154.738281 117.25 154.671875 117.382812 L 154.464844 117.777344 L 153.652344 119.359375 L 153.242188 120.152344 C 153.171875 120.28125 153.105469 120.414062 153.03125 120.542969 L 151.902344 122.460938 L 151.449219 123.226562 C 151.375 123.355469 151.300781 123.484375 151.222656 123.609375 L 150.976562 123.980469 L 149.511719 126.207031 L 149.265625 126.574219 L 149.003906 126.933594 C 146.25 130.785156 143.125 134.363281 139.636719 137.523438 C 142.789062 134.03125 145.660156 130.3125 148.132812 126.351562 L 148.371094 125.984375 L 148.59375 125.609375 L 149.039062 124.855469 L 149.925781 123.351562 L 150.148438 122.972656 C 150.222656 122.847656 150.285156 122.714844 150.355469 122.585938 L 151.570312 120.269531 L 151.773438 119.882812 C 151.839844 119.753906 151.898438 119.621094 151.960938 119.488281 L 152.328125 118.699219 L 153.074219 117.121094 L 153.257812 116.726562 C 153.320312 116.59375 153.371094 116.457031 153.429688 116.324219 L 154.425781 113.910156 L 154.59375 113.503906 C 154.644531 113.371094 154.691406 113.234375 154.738281 113.097656 L 155.617188 110.636719 L 155.761719 110.226562 L 155.890625 109.8125 L 156.148438 108.980469 L 156.660156 107.316406 C 156.703125 107.179688 156.746094 107.042969 156.785156 106.902344 L 156.894531 106.480469 L 157.109375 105.636719 L 157.542969 103.957031 C 157.621094 103.675781 157.679688 103.390625 157.738281 103.109375 L 157.914062 102.257812 L 158.273438 100.554688 C 158.335938 100.273438 158.375 99.988281 158.421875 99.699219 L 158.558594 98.84375 L 158.839844 97.128906 L 158.875 96.914062 L 158.898438 96.699219 L 158.949219 96.265625 L 159.046875 95.40625 L 159.242188 93.679688 C 159.335938 92.527344 159.40625 91.371094 159.492188 90.214844 L 159.570312 86.746094 L 159.492188 83.273438 C 159.410156 82.117188 159.335938 80.960938 159.246094 79.808594 L 159.046875 78.082031 L 158.949219 77.21875 L 158.902344 76.789062 L 158.875 76.574219 L 158.839844 76.359375 L 158.5625 74.644531 L 158.421875 73.785156 C 158.375 73.5 158.339844 73.214844 158.273438 72.929688 L 157.917969 71.230469 L 157.742188 70.378906 C 157.683594 70.09375 157.625 69.8125 157.546875 69.53125 L 157.113281 67.847656 L 156.894531 67.007812 L 156.789062 66.585938 C 156.75 66.445312 156.703125 66.308594 156.664062 66.167969 L 156.148438 64.507812 L 155.894531 63.675781 L 155.765625 63.257812 L 155.621094 62.851562 L 154.742188 60.390625 C 154.691406 60.253906 154.648438 60.113281 154.59375 59.980469 L 154.429688 59.578125 L 153.765625 57.96875 L 153.429688 57.164062 C 153.375 57.027344 153.324219 56.890625 153.261719 56.761719 L 153.074219 56.367188 L 152.332031 54.789062 C 152.078125 54.265625 151.855469 53.726562 151.574219 53.21875 L 150.355469 50.898438 C 150.289062 50.769531 150.222656 50.640625 150.152344 50.511719 L 149.929688 50.136719 L 149.039062 48.632812 L 148.59375 47.878906 L 148.371094 47.503906 L 148.132812 47.136719 C 145.660156 43.175781 142.789062 39.457031 139.636719 35.964844 " fill-opacity="1" fill-rule="nonzero"/><path fill="#FFFFFF" d="M 38.082031 137.523438 C 34.59375 134.363281 31.46875 130.785156 28.71875 126.929688 L 28.453125 126.574219 L 28.210938 126.203125 L 27.722656 125.460938 L 26.742188 123.976562 L 26.5 123.605469 C 26.417969 123.480469 26.347656 123.351562 26.269531 123.226562 L 25.820312 122.460938 L 24.691406 120.542969 C 24.617188 120.414062 24.550781 120.28125 24.480469 120.148438 L 24.070312 119.359375 L 23.253906 117.777344 L 23.050781 117.378906 C 22.984375 117.25 22.925781 117.109375 22.863281 116.976562 L 22.496094 116.164062 L 21.757812 114.542969 C 17.964844 105.820312 16.015625 96.28125 16.011719 86.746094 C 16.011719 77.207031 17.960938 67.667969 21.753906 58.945312 L 22.492188 57.320312 L 22.859375 56.511719 C 22.921875 56.375 22.980469 56.238281 23.046875 56.105469 L 23.253906 55.710938 L 24.066406 54.128906 L 24.476562 53.335938 C 24.546875 53.207031 24.613281 53.074219 24.6875 52.945312 L 24.914062 52.5625 L 25.816406 51.027344 L 26.269531 50.261719 C 26.34375 50.136719 26.417969 50.003906 26.496094 49.878906 L 26.742188 49.507812 L 27.71875 48.023438 L 28.453125 46.914062 L 28.714844 46.554688 C 31.46875 42.703125 34.59375 39.125 38.082031 35.964844 C 34.929688 39.460938 32.058594 43.175781 29.585938 47.136719 L 29.347656 47.503906 L 29.125 47.878906 L 28.679688 48.632812 L 27.792969 50.140625 L 27.570312 50.515625 C 27.496094 50.640625 27.433594 50.769531 27.363281 50.898438 L 26.960938 51.675781 L 26.148438 53.21875 L 25.945312 53.605469 C 25.878906 53.734375 25.820312 53.867188 25.757812 54 L 24.644531 56.367188 L 24.460938 56.761719 C 24.398438 56.894531 24.347656 57.03125 24.289062 57.164062 L 23.292969 59.578125 L 23.125 59.980469 C 23.074219 60.117188 23.027344 60.253906 22.980469 60.390625 L 22.101562 62.851562 L 21.957031 63.261719 L 21.828125 63.675781 L 21.570312 64.507812 L 21.058594 66.171875 C 21.015625 66.308594 20.972656 66.445312 20.933594 66.585938 L 20.609375 67.851562 L 20.175781 69.53125 C 20.097656 69.8125 20.039062 70.09375 19.980469 70.378906 L 19.804688 71.230469 L 19.449219 72.929688 C 19.382812 73.214844 19.34375 73.5 19.296875 73.785156 L 19.160156 74.644531 L 18.878906 76.359375 L 18.84375 76.574219 L 18.820312 76.789062 L 18.769531 77.21875 L 18.476562 79.808594 C 18.382812 80.960938 18.3125 82.117188 18.226562 83.273438 L 18.148438 86.746094 L 18.226562 90.214844 C 18.308594 91.371094 18.382812 92.527344 18.472656 93.679688 L 18.671875 95.40625 L 18.816406 96.699219 L 18.84375 96.914062 L 18.878906 97.128906 L 19.15625 98.84375 L 19.296875 99.703125 C 19.34375 99.988281 19.378906 100.273438 19.445312 100.558594 L 19.800781 102.257812 L 19.976562 103.109375 C 20.035156 103.394531 20.09375 103.675781 20.171875 103.957031 L 20.605469 105.636719 L 20.820312 106.480469 L 20.929688 106.902344 C 20.96875 107.042969 21.015625 107.179688 21.054688 107.320312 L 21.566406 108.980469 L 21.824219 109.8125 L 21.953125 110.226562 L 22.097656 110.636719 L 22.976562 113.097656 C 23.027344 113.234375 23.070312 113.371094 23.125 113.507812 L 23.289062 113.910156 L 23.953125 115.519531 L 24.289062 116.328125 C 24.34375 116.460938 24.394531 116.59375 24.457031 116.726562 L 24.644531 117.121094 L 25.386719 118.699219 C 25.640625 119.21875 25.859375 119.761719 26.144531 120.269531 L 27.363281 122.589844 C 27.429688 122.71875 27.496094 122.847656 27.566406 122.976562 L 27.789062 123.351562 L 28.679688 124.855469 L 29.121094 125.609375 L 29.347656 125.984375 L 29.585938 126.351562 C 32.058594 130.3125 34.929688 134.03125 38.082031 137.523438 " fill-opacity="1" fill-rule="nonzero"/><path fill="#FFFFFF" d="M 130.234375 45.367188 C 130.953125 46.003906 131.65625 46.660156 132.367188 47.308594 C 133.050781 47.988281 133.710938 48.6875 134.386719 49.378906 C 134.558594 49.550781 134.710938 49.734375 134.871094 49.917969 L 135.34375 50.464844 L 136.292969 51.5625 C 136.371094 51.65625 136.453125 51.746094 136.527344 51.839844 L 136.75 52.128906 L 137.191406 52.703125 L 138.078125 53.855469 C 140.375 56.980469 142.335938 60.371094 143.921875 63.933594 C 147.09375 71.066406 148.742188 78.902344 148.742188 86.746094 C 148.746094 94.582031 147.097656 102.421875 143.925781 109.554688 C 142.339844 113.121094 140.378906 116.511719 138.078125 119.632812 L 137.195312 120.789062 L 136.75 121.363281 L 136.53125 121.648438 C 136.453125 121.742188 136.371094 121.832031 136.292969 121.925781 L 135.347656 123.027344 L 134.875 123.574219 C 134.714844 123.753906 134.558594 123.941406 134.386719 124.109375 C 133.710938 124.800781 133.050781 125.5 132.371094 126.179688 C 131.65625 126.828125 130.953125 127.484375 130.234375 128.121094 C 130.835938 127.367188 131.453125 126.636719 132.058594 125.898438 C 132.644531 125.140625 133.214844 124.375 133.789062 123.617188 C 133.9375 123.429688 134.066406 123.230469 134.203125 123.035156 L 134.605469 122.445312 L 135.417969 121.273438 C 135.484375 121.175781 135.554688 121.082031 135.617188 120.980469 L 135.808594 120.679688 L 136.183594 120.074219 L 136.941406 118.871094 C 138.898438 115.628906 140.5625 112.230469 141.898438 108.71875 C 144.578125 101.695312 145.945312 94.222656 145.953125 86.746094 C 145.949219 79.265625 144.582031 71.789062 141.898438 64.769531 C 140.5625 61.253906 138.902344 57.855469 136.941406 54.613281 L 136.1875 53.410156 L 135.808594 52.808594 L 135.621094 52.503906 C 135.554688 52.40625 135.484375 52.308594 135.417969 52.210938 L 134.609375 51.039062 L 134.203125 50.453125 C 134.070312 50.253906 133.941406 50.054688 133.792969 49.867188 C 133.214844 49.113281 132.644531 48.34375 132.058594 47.589844 C 131.453125 46.851562 130.839844 46.117188 130.234375 45.367188 " fill-opacity="1" fill-rule="nonzero"/><path fill="#FFFFFF" d="M 47.484375 128.121094 C 46.765625 127.484375 46.0625 126.828125 45.347656 126.179688 C 44.667969 125.5 44.007812 124.800781 43.332031 124.109375 C 43.160156 123.9375 43.007812 123.753906 42.847656 123.570312 L 42.375 123.023438 L 41.425781 121.925781 C 41.347656 121.832031 41.265625 121.742188 41.191406 121.648438 L 40.96875 121.359375 L 40.527344 120.785156 L 39.640625 119.632812 C 37.34375 116.507812 35.382812 113.121094 33.796875 109.554688 C 30.625 102.421875 28.976562 94.582031 28.976562 86.746094 C 28.972656 78.902344 30.621094 71.066406 33.792969 63.933594 C 35.378906 60.367188 37.339844 56.976562 39.640625 53.855469 L 40.523438 52.699219 L 40.96875 52.125 L 41.1875 51.839844 C 41.265625 51.742188 41.347656 51.652344 41.425781 51.5625 L 42.371094 50.460938 L 42.84375 49.914062 C 43.003906 49.734375 43.160156 49.550781 43.332031 49.378906 C 44.003906 48.6875 44.667969 47.988281 45.347656 47.308594 C 46.0625 46.660156 46.765625 46.003906 47.484375 45.367188 C 46.882812 46.117188 46.265625 46.851562 45.660156 47.589844 C 45.074219 48.347656 44.503906 49.113281 43.929688 49.871094 C 43.78125 50.054688 43.652344 50.257812 43.515625 50.453125 L 43.113281 51.042969 L 42.300781 52.214844 C 42.234375 52.3125 42.164062 52.40625 42.101562 52.507812 L 41.910156 52.808594 L 41.535156 53.410156 L 40.777344 54.617188 C 38.820312 57.859375 37.15625 61.257812 35.820312 64.769531 C 33.140625 71.792969 31.773438 79.265625 31.765625 86.746094 C 31.769531 94.222656 33.136719 101.695312 35.820312 108.71875 C 37.152344 112.234375 38.816406 115.632812 40.777344 118.875 L 41.53125 120.078125 L 41.910156 120.679688 L 42.097656 120.984375 C 42.164062 121.082031 42.234375 121.179688 42.300781 121.277344 L 43.109375 122.449219 L 43.515625 123.035156 C 43.648438 123.230469 43.777344 123.433594 43.925781 123.621094 C 44.503906 124.375 45.074219 125.140625 45.660156 125.898438 C 46.265625 126.636719 46.878906 127.371094 47.484375 128.121094 " fill-opacity="1" fill-rule="nonzero"/><path fill="#FFFFFF" d="M 120.832031 54.773438 C 125.554688 58.425781 129.355469 63.367188 131.933594 68.902344 C 134.515625 74.441406 135.859375 80.59375 135.859375 86.746094 C 135.863281 92.894531 134.519531 99.046875 131.9375 104.589844 C 129.359375 110.125 125.558594 115.0625 120.832031 118.714844 C 121.265625 118.105469 121.714844 117.515625 122.15625 116.925781 L 123.421875 115.109375 C 123.824219 114.492188 124.210938 113.871094 124.605469 113.257812 C 124.992188 112.636719 125.347656 111.996094 125.714844 111.371094 C 127.140625 108.835938 128.347656 106.207031 129.3125 103.507812 C 131.257812 98.109375 132.242188 92.425781 132.25 86.746094 C 132.246094 81.058594 131.261719 75.378906 129.320312 69.980469 C 128.351562 67.277344 127.144531 64.648438 125.71875 62.113281 C 125.351562 61.488281 124.992188 60.851562 124.609375 60.230469 C 124.214844 59.617188 123.828125 58.992188 123.421875 58.378906 L 122.160156 56.5625 C 121.714844 55.972656 121.269531 55.382812 120.832031 54.773438 " fill-opacity="1" fill-rule="nonzero"/><path fill="#FFFFFF" d="M 56.886719 118.714844 C 52.164062 115.0625 48.363281 110.121094 45.785156 104.585938 C 43.203125 99.046875 41.859375 92.894531 41.859375 86.746094 C 41.855469 80.59375 43.199219 74.4375 45.78125 68.898438 C 48.359375 63.363281 52.160156 58.421875 56.886719 54.773438 C 56.453125 55.382812 56.003906 55.972656 55.5625 56.5625 L 54.296875 58.378906 C 53.894531 58.996094 53.507812 59.617188 53.113281 60.230469 C 52.726562 60.851562 52.371094 61.492188 52.003906 62.117188 C 50.578125 64.652344 49.371094 67.28125 48.40625 69.980469 C 46.460938 75.378906 45.476562 81.058594 45.46875 86.746094 C 45.472656 92.429688 46.457031 98.109375 48.402344 103.507812 C 49.367188 106.210938 50.574219 108.835938 52 111.375 C 52.367188 112 52.726562 112.636719 53.109375 113.257812 C 53.503906 113.871094 53.890625 114.496094 54.296875 115.109375 L 55.558594 116.925781 C 56.003906 117.515625 56.449219 118.105469 56.886719 118.714844 " fill-opacity="1" fill-rule="nonzero"/><path fill="#FFFFFF" d="M 111.425781 64.175781 C 111.875 64.464844 112.3125 64.773438 112.753906 65.085938 C 113.175781 65.417969 113.589844 65.757812 114.003906 66.105469 C 114.410156 66.460938 114.792969 66.84375 115.1875 67.214844 C 115.386719 67.402344 115.558594 67.609375 115.746094 67.804688 L 116.296875 68.410156 L 116.433594 68.558594 L 116.816406 69.039062 L 117.328125 69.675781 C 117.507812 69.886719 117.652344 70.117188 117.8125 70.339844 L 118.285156 71.015625 C 118.597656 71.464844 118.871094 71.945312 119.160156 72.414062 C 119.308594 72.644531 119.429688 72.894531 119.5625 73.132812 L 119.949219 73.867188 C 121.941406 77.8125 122.976562 82.28125 122.976562 86.746094 C 122.980469 91.207031 121.945312 95.675781 119.953125 99.625 L 119.566406 100.355469 C 119.433594 100.597656 119.3125 100.84375 119.167969 101.078125 L 118.734375 101.785156 C 118.589844 102.015625 118.453125 102.253906 118.289062 102.476562 L 117.820312 103.152344 C 117.660156 103.371094 117.515625 103.601562 117.335938 103.8125 L 116.824219 104.453125 L 116.566406 104.769531 C 116.484375 104.878906 116.394531 104.984375 116.300781 105.082031 L 115.75 105.683594 L 115.476562 105.984375 C 115.382812 106.082031 115.292969 106.183594 115.191406 106.273438 C 114.792969 106.648438 114.414062 107.03125 114.007812 107.382812 C 113.59375 107.730469 113.179688 108.074219 112.753906 108.402344 C 112.316406 108.714844 111.878906 109.023438 111.425781 109.3125 C 111.699219 108.84375 111.980469 108.394531 112.257812 107.953125 C 112.527344 107.5 112.785156 107.042969 113.054688 106.597656 L 113.796875 105.238281 C 114.039062 104.785156 114.261719 104.324219 114.492188 103.871094 C 114.714844 103.417969 114.917969 102.949219 115.132812 102.492188 C 115.339844 102.03125 115.523438 101.5625 115.71875 101.105469 C 115.824219 100.875 115.898438 100.632812 115.988281 100.402344 L 116.25 99.703125 C 116.34375 99.472656 116.414062 99.230469 116.492188 98.996094 L 116.730469 98.292969 C 117.929688 94.519531 118.542969 90.636719 118.546875 86.746094 C 118.546875 82.851562 117.933594 78.96875 116.734375 75.191406 C 116.570312 74.726562 116.433594 74.246094 116.257812 73.78125 L 115.992188 73.082031 C 115.902344 72.851562 115.828125 72.609375 115.726562 72.378906 C 115.53125 71.921875 115.34375 71.453125 115.136719 70.992188 C 114.925781 70.535156 114.71875 70.070312 114.496094 69.613281 C 114.265625 69.160156 114.039062 68.699219 113.800781 68.246094 L 113.054688 66.886719 C 112.785156 66.445312 112.53125 65.988281 112.261719 65.535156 C 111.980469 65.089844 111.699219 64.644531 111.425781 64.175781 " fill-opacity="1" fill-rule="nonzero"/><path fill="#FFFFFF" d="M 66.289062 109.3125 C 65.839844 109.023438 65.40625 108.714844 64.964844 108.402344 C 64.542969 108.074219 64.128906 107.730469 63.714844 107.382812 C 63.304688 107.027344 62.925781 106.644531 62.53125 106.269531 C 62.332031 106.085938 62.160156 105.878906 61.972656 105.679688 L 61.421875 105.078125 L 61.285156 104.925781 L 61.15625 104.769531 L 60.902344 104.449219 L 60.386719 103.808594 C 60.210938 103.601562 60.066406 103.371094 59.90625 103.148438 L 59.433594 102.472656 C 59.121094 102.023438 58.847656 101.542969 58.558594 101.078125 C 58.410156 100.84375 58.289062 100.59375 58.15625 100.355469 L 57.769531 99.621094 C 55.777344 95.675781 54.742188 91.207031 54.742188 86.746094 C 54.738281 82.28125 55.773438 77.8125 57.765625 73.863281 L 58.152344 73.132812 C 58.285156 72.890625 58.40625 72.644531 58.550781 72.410156 L 58.984375 71.703125 C 59.128906 71.472656 59.265625 71.234375 59.429688 71.011719 L 59.898438 70.335938 C 60.058594 70.117188 60.203125 69.882812 60.382812 69.675781 L 60.894531 69.035156 L 61.152344 68.714844 C 61.234375 68.609375 61.324219 68.503906 61.417969 68.40625 L 61.96875 67.804688 L 62.242188 67.503906 C 62.335938 67.402344 62.425781 67.304688 62.527344 67.214844 C 62.925781 66.839844 63.304688 66.457031 63.710938 66.105469 C 64.125 65.757812 64.539062 65.414062 64.964844 65.085938 C 65.402344 64.773438 65.839844 64.464844 66.289062 64.175781 C 66.019531 64.644531 65.738281 65.089844 65.460938 65.535156 C 65.191406 65.988281 64.933594 66.449219 64.664062 66.886719 L 63.921875 68.25 C 63.679688 68.703125 63.457031 69.164062 63.226562 69.617188 C 63 70.074219 62.800781 70.539062 62.585938 70.996094 C 62.378906 71.453125 62.195312 71.925781 61.996094 72.382812 C 61.894531 72.613281 61.820312 72.851562 61.730469 73.085938 L 61.46875 73.785156 C 61.375 74.015625 61.304688 74.257812 61.226562 74.492188 L 60.988281 75.195312 C 59.789062 78.96875 59.175781 82.851562 59.171875 86.746094 C 59.171875 90.636719 59.785156 94.519531 60.984375 98.296875 C 61.148438 98.761719 61.285156 99.242188 61.460938 99.703125 L 61.726562 100.40625 C 61.816406 100.636719 61.890625 100.878906 61.992188 101.105469 C 62.1875 101.566406 62.375 102.035156 62.582031 102.496094 C 62.792969 102.953125 62.996094 103.417969 63.222656 103.875 C 63.453125 104.328125 63.679688 104.789062 63.917969 105.242188 L 64.664062 106.601562 C 64.933594 107.042969 65.1875 107.5 65.457031 107.953125 C 65.738281 108.398438 66.019531 108.84375 66.289062 109.3125 " fill-opacity="1" fill-rule="nonzero"/><g clip-path="url(#75ee5ee41e)"><g transform="matrix(1, 0, 0, 1, -0.000000000000000888, 1)"><g clip-path="url(#46450e73f1)"><g clip-path="url(#6bc8c7fb88)"><path fill="#FFFFFF" d="M 6.816406 84.972656 C 6.828125 76.160156 8.171875 67.375 10.875 58.984375 C 13.464844 50.929688 17.28125 43.28125 22.140625 36.355469 C 26.96875 29.472656 32.824219 23.3125 39.449219 18.140625 C 46.097656 12.949219 53.515625 8.757812 61.398438 5.757812 C 63.425781 4.984375 65.488281 4.285156 67.570312 3.679688 C 67.679688 3.648438 67.789062 3.617188 67.898438 3.585938 C 67.179688 3.796875 64.871094 4.363281 65.695312 4.179688 C 65.421875 4.238281 65.605469 4.203125 65.757812 4.167969 C 66.292969 4.039062 66.828125 3.910156 67.367188 3.789062 C 68.457031 3.546875 69.550781 3.328125 70.652344 3.128906 C 75.042969 2.339844 79.492188 1.898438 83.953125 1.808594 C 92.746094 1.625 101.558594 2.796875 109.988281 5.308594 C 118.148438 7.738281 125.921875 11.417969 132.984375 16.167969 C 139.929688 20.839844 146.179688 26.542969 151.46875 33.035156 C 156.8125 39.59375 161.171875 46.949219 164.339844 54.792969 C 167.589844 62.828125 169.574219 71.359375 170.234375 80 C 170.910156 88.859375 170.207031 97.828125 168.125 106.464844 C 166.125 114.742188 162.871094 122.699219 158.496094 130 C 154.171875 137.21875 148.769531 143.789062 142.523438 149.429688 C 136.289062 155.0625 129.21875 159.765625 121.605469 163.324219 C 117.730469 165.136719 113.722656 166.644531 109.617188 167.847656 C 108.507812 168.175781 112.914062 166.996094 111.386719 167.371094 C 110.828125 167.507812 110.269531 167.632812 109.707031 167.757812 C 108.617188 167.996094 107.519531 168.214844 106.417969 168.410156 C 104.238281 168.792969 102.039062 169.097656 99.839844 169.308594 C 91.015625 170.164062 82.066406 169.648438 73.40625 167.761719 C 65.035156 165.9375 56.957031 162.824219 49.527344 158.570312 C 42.25 154.40625 35.601562 149.160156 29.855469 143.058594 C 24.074219 136.917969 19.210938 129.917969 15.484375 122.351562 C 11.691406 114.652344 9.089844 106.375 7.792969 97.890625 C 7.136719 93.617188 6.820312 89.296875 6.816406 84.972656 C 6.816406 85.050781 4.136719 85.660156 3.902344 85.71875 C 3.65625 85.785156 1.003906 86.34375 1.007812 86.527344 C 1.019531 95.488281 2.414062 104.425781 5.207031 112.945312 C 7.898438 121.15625 11.863281 128.945312 16.910156 135.960938 C 21.929688 142.9375 28.007812 149.140625 34.878906 154.304688 C 41.777344 159.492188 49.464844 163.617188 57.609375 166.484375 C 66.027344 169.445312 74.910156 171.046875 83.832031 171.246094 C 88.402344 171.34375 92.984375 171.085938 97.511719 170.453125 C 102.910156 169.703125 108.171875 168.339844 113.417969 166.878906 C 121.863281 164.53125 129.917969 161.054688 137.300781 156.308594 C 144.535156 151.664062 151.050781 145.914062 156.566406 139.320312 C 162.089844 132.722656 166.605469 125.285156 169.894531 117.332031 C 173.273438 109.148438 175.347656 100.441406 176.035156 91.613281 C 176.734375 82.601562 176.007812 73.476562 173.851562 64.695312 C 171.777344 56.253906 168.386719 48.144531 163.84375 40.734375 C 159.347656 33.402344 153.730469 26.765625 147.253906 21.109375 C 140.777344 15.457031 133.445312 10.792969 125.570312 7.339844 C 117.488281 3.789062 108.855469 1.53125 100.070312 0.65625 C 91.097656 -0.242188 81.992188 0.289062 73.183594 2.226562 C 63.554688 4.339844 54.066406 7.285156 45.378906 12.003906 C 37.8125 16.113281 30.882812 21.378906 24.890625 27.558594 C 18.921875 33.71875 13.886719 40.78125 10.027344 48.441406 C 6.078125 56.273438 3.371094 64.714844 2.019531 73.378906 C 1.34375 77.730469 1.011719 82.125 1.007812 86.527344 C 1.007812 86.445312 3.683594 85.839844 3.917969 85.777344 C 4.167969 85.710938 6.816406 85.152344 6.816406 84.972656 " fill-opacity="1" fill-rule="nonzero"/></g></g></g></g><g clip-path="url(#0e55799125)"><path fill="#FFFFFF" d="M 29.097656 26.722656 C 32.925781 22.695312 37.191406 19.070312 41.777344 15.898438 C 44.074219 14.316406 46.453125 12.851562 48.898438 11.503906 C 51.34375 10.15625 53.867188 8.949219 56.441406 7.855469 C 61.585938 5.667969 66.964844 4.03125 72.445312 2.914062 C 77.929688 1.804688 83.527344 1.257812 89.125 1.242188 C 94.722656 1.253906 100.320312 1.808594 105.808594 2.910156 C 108.550781 3.46875 111.265625 4.160156 113.9375 4.980469 C 115.273438 5.394531 116.601562 5.835938 117.914062 6.316406 C 119.226562 6.796875 120.527344 7.308594 121.8125 7.855469 C 124.386719 8.945312 126.90625 10.15625 129.355469 11.503906 C 131.800781 12.851562 134.179688 14.316406 136.476562 15.898438 C 141.0625 19.070312 145.328125 22.695312 149.15625 26.722656 C 145.125 22.902344 140.769531 19.433594 136.117188 16.429688 C 133.796875 14.925781 131.402344 13.53125 128.949219 12.261719 C 126.496094 10.992188 123.984375 9.828125 121.421875 8.800781 C 120.144531 8.285156 118.847656 7.800781 117.546875 7.351562 C 116.242188 6.894531 114.929688 6.472656 113.605469 6.082031 C 110.960938 5.300781 108.277344 4.648438 105.566406 4.128906 C 100.152344 3.078125 94.640625 2.542969 89.125 2.554688 C 83.613281 2.542969 78.097656 3.078125 72.683594 4.125 C 67.265625 5.160156 61.953125 6.746094 56.828125 8.796875 C 54.265625 9.824219 51.757812 10.988281 49.304688 12.257812 C 46.847656 13.527344 44.457031 14.925781 42.132812 16.429688 C 37.480469 19.433594 33.128906 22.898438 29.097656 26.722656 " fill-opacity="1" fill-rule="nonzero"/></g><g clip-path="url(#68ec0785a3)"><path fill="#FFFFFF" d="M 149.15625 146.785156 C 145.328125 150.8125 141.0625 154.4375 136.472656 157.609375 C 134.179688 159.191406 131.796875 160.65625 129.351562 162.003906 C 126.90625 163.351562 124.382812 164.5625 121.8125 165.652344 C 116.667969 167.84375 111.289062 169.476562 105.808594 170.597656 C 100.320312 171.703125 94.722656 172.25 89.125 172.265625 C 83.527344 172.253906 77.929688 171.703125 72.445312 170.597656 C 69.703125 170.039062 66.988281 169.347656 64.316406 168.527344 C 62.980469 168.113281 61.652344 167.671875 60.339844 167.195312 C 59.027344 166.710938 57.726562 166.199219 56.441406 165.65625 C 53.867188 164.5625 51.34375 163.351562 48.898438 162.003906 C 46.453125 160.660156 44.074219 159.195312 41.777344 157.613281 C 37.191406 154.441406 32.925781 150.816406 29.097656 146.785156 C 33.128906 150.609375 37.484375 154.078125 42.136719 157.078125 C 44.457031 158.585938 46.847656 159.980469 49.304688 161.25 C 51.757812 162.519531 54.265625 163.683594 56.828125 164.710938 C 58.109375 165.226562 59.402344 165.707031 60.707031 166.160156 C 62.011719 166.613281 63.324219 167.039062 64.648438 167.429688 C 67.292969 168.210938 69.976562 168.863281 72.683594 169.382812 C 78.097656 170.433594 83.613281 170.964844 89.125 170.957031 C 94.640625 170.96875 100.152344 170.429688 105.570312 169.382812 C 110.988281 168.347656 116.296875 166.761719 121.425781 164.710938 C 123.988281 163.683594 126.496094 162.519531 128.949219 161.25 C 131.40625 159.980469 133.796875 158.585938 136.117188 157.078125 C 140.769531 154.078125 145.125 150.609375 149.15625 146.785156 " fill-opacity="1" fill-rule="nonzero"/></g><path fill="#FFFFFF" d="M 38.476562 36.105469 C 41.628906 32.625 45.195312 29.511719 49.039062 26.765625 L 49.398438 26.503906 L 49.765625 26.257812 L 50.507812 25.769531 L 51.988281 24.796875 L 52.359375 24.550781 C 52.480469 24.472656 52.609375 24.402344 52.738281 24.324219 L 53.5 23.875 L 55.03125 22.972656 L 55.414062 22.75 C 55.542969 22.675781 55.675781 22.609375 55.804688 22.539062 L 56.59375 22.128906 L 58.566406 21.113281 C 58.699219 21.046875 58.835938 20.988281 58.96875 20.925781 L 59.777344 20.558594 L 61.398438 19.824219 C 70.097656 16.039062 79.613281 14.097656 89.125 14.09375 C 98.640625 14.09375 108.15625 16.039062 116.855469 19.820312 L 118.476562 20.554688 L 119.285156 20.921875 C 119.417969 20.984375 119.554688 21.042969 119.6875 21.109375 L 120.082031 21.3125 L 121.660156 22.128906 L 122.449219 22.535156 C 122.578125 22.605469 122.710938 22.671875 122.839844 22.746094 L 124.753906 23.871094 L 125.515625 24.324219 C 125.644531 24.398438 125.773438 24.46875 125.898438 24.550781 L 126.265625 24.792969 L 127.746094 25.769531 L 128.488281 26.257812 L 128.859375 26.5 L 129.214844 26.765625 C 133.058594 29.507812 136.625 32.625 139.777344 36.105469 C 136.292969 32.960938 132.585938 30.097656 128.632812 27.632812 L 128.265625 27.394531 L 127.890625 27.171875 L 127.140625 26.730469 L 125.640625 25.84375 L 125.265625 25.621094 C 125.136719 25.546875 125.007812 25.484375 124.878906 25.417969 L 122.566406 24.203125 L 122.179688 24 C 122.050781 23.933594 121.917969 23.875 121.785156 23.8125 L 121 23.445312 L 119.425781 22.703125 L 119.03125 22.519531 C 118.902344 22.457031 118.765625 22.40625 118.632812 22.347656 L 117.828125 22.019531 L 116.222656 21.355469 L 115.820312 21.1875 C 115.6875 21.136719 115.546875 21.089844 115.414062 21.042969 L 114.59375 20.75 L 112.957031 20.167969 L 112.550781 20.019531 L 112.136719 19.890625 L 111.304688 19.636719 L 109.648438 19.125 C 109.511719 19.085938 109.371094 19.039062 109.234375 19 L 108.8125 18.890625 L 107.972656 18.675781 L 106.292969 18.242188 C 106.015625 18.164062 105.730469 18.109375 105.449219 18.050781 L 104.601562 17.875 L 102.902344 17.519531 C 102.621094 17.453125 102.335938 17.414062 102.050781 17.367188 L 101.195312 17.230469 L 99.484375 16.953125 L 99.273438 16.917969 L 99.054688 16.890625 L 98.625 16.84375 L 97.765625 16.746094 L 96.042969 16.550781 C 94.894531 16.457031 93.742188 16.386719 92.589844 16.300781 L 89.125 16.222656 L 85.664062 16.300781 C 84.511719 16.382812 83.359375 16.457031 82.207031 16.546875 L 80.488281 16.742188 L 79.625 16.839844 L 79.195312 16.890625 L 78.980469 16.914062 L 78.765625 16.949219 L 77.058594 17.230469 L 76.203125 17.367188 C 75.917969 17.414062 75.628906 17.449219 75.347656 17.515625 L 73.652344 17.871094 L 72.804688 18.046875 C 72.519531 18.105469 72.238281 18.164062 71.957031 18.242188 L 70.28125 18.675781 L 69.4375 18.890625 L 69.019531 18.996094 C 68.878906 19.035156 68.742188 19.082031 68.605469 19.125 L 66.945312 19.632812 L 65.703125 20.019531 L 65.292969 20.164062 L 63.65625 20.746094 L 62.839844 21.039062 C 62.703125 21.085938 62.566406 21.132812 62.429688 21.1875 L 62.03125 21.351562 L 60.421875 22.015625 L 59.621094 22.347656 C 59.484375 22.402344 59.351562 22.453125 59.21875 22.515625 L 58.824219 22.699219 L 57.253906 23.441406 C 56.730469 23.695312 56.191406 23.917969 55.683594 24.199219 L 54.144531 25.007812 L 53.371094 25.414062 C 53.246094 25.480469 53.113281 25.546875 52.988281 25.617188 L 52.613281 25.839844 L 51.109375 26.726562 L 50.359375 27.171875 L 49.984375 27.390625 L 49.617188 27.628906 C 45.667969 30.097656 41.960938 32.960938 38.476562 36.105469 " fill-opacity="1" fill-rule="nonzero"/><path fill="#FFFFFF" d="M 139.777344 137.40625 C 136.625 140.882812 133.054688 144 129.210938 146.742188 L 128.855469 147.007812 L 128.488281 147.25 L 127.746094 147.738281 L 126.265625 148.710938 L 125.894531 148.957031 C 125.769531 149.035156 125.640625 149.109375 125.515625 149.183594 L 124.75 149.632812 L 122.839844 150.761719 C 122.710938 150.835938 122.578125 150.898438 122.449219 150.96875 L 121.660156 151.378906 L 120.082031 152.191406 L 119.6875 152.398438 C 119.554688 152.464844 119.417969 152.519531 119.28125 152.582031 L 118.472656 152.953125 L 116.855469 153.6875 C 108.152344 157.46875 98.636719 159.414062 89.125 159.414062 C 79.613281 159.414062 70.097656 157.472656 61.398438 153.691406 L 59.777344 152.953125 L 58.96875 152.585938 C 58.835938 152.523438 58.699219 152.464844 58.566406 152.398438 L 56.59375 151.382812 L 55.804688 150.972656 C 55.671875 150.902344 55.539062 150.839844 55.414062 150.761719 L 55.03125 150.539062 L 53.5 149.636719 L 52.738281 149.1875 C 52.609375 149.109375 52.480469 149.039062 52.355469 148.957031 L 51.984375 148.714844 L 50.503906 147.742188 L 49.394531 147.007812 L 49.039062 146.746094 C 45.195312 144 41.628906 140.882812 38.476562 137.40625 C 41.960938 140.546875 45.667969 143.414062 49.621094 145.875 L 49.984375 146.113281 L 50.359375 146.335938 L 51.113281 146.78125 L 52.613281 147.667969 L 52.988281 147.886719 C 53.113281 147.960938 53.246094 148.023438 53.375 148.09375 L 54.144531 148.496094 L 55.6875 149.308594 L 56.070312 149.507812 C 56.199219 149.578125 56.335938 149.632812 56.464844 149.695312 L 57.253906 150.066406 L 58.828125 150.804688 L 59.21875 150.992188 C 59.351562 151.054688 59.488281 151.105469 59.621094 151.160156 L 60.425781 151.492188 L 62.03125 152.15625 L 62.433594 152.320312 C 62.566406 152.371094 62.703125 152.417969 62.839844 152.46875 L 63.660156 152.761719 L 65.292969 153.34375 L 65.703125 153.488281 L 66.117188 153.617188 L 66.945312 153.871094 L 68.605469 154.382812 C 68.742188 154.425781 68.878906 154.46875 69.019531 154.507812 L 70.28125 154.832031 L 71.960938 155.265625 C 72.238281 155.34375 72.519531 155.402344 72.804688 155.460938 L 75.347656 155.988281 C 75.628906 156.054688 75.917969 156.09375 76.203125 156.140625 L 77.058594 156.277344 L 78.765625 156.558594 L 78.980469 156.59375 L 79.195312 156.617188 L 79.625 156.667969 L 80.488281 156.765625 L 82.207031 156.960938 C 83.359375 157.054688 84.511719 157.125 85.664062 157.207031 L 89.125 157.289062 L 92.589844 157.207031 C 93.742188 157.125 94.894531 157.050781 96.042969 156.960938 L 97.765625 156.765625 L 99.058594 156.617188 L 99.273438 156.59375 L 99.484375 156.558594 L 101.195312 156.28125 L 102.050781 156.140625 C 102.335938 156.097656 102.625 156.058594 102.90625 155.992188 L 104.601562 155.636719 L 105.449219 155.460938 C 105.734375 155.402344 106.015625 155.347656 106.292969 155.269531 L 107.972656 154.835938 L 108.8125 154.621094 L 109.234375 154.511719 C 109.371094 154.472656 109.511719 154.425781 109.648438 154.386719 L 111.308594 153.875 L 112.136719 153.621094 L 112.550781 153.492188 L 112.960938 153.347656 L 114.59375 152.761719 L 115.414062 152.472656 C 115.550781 152.421875 115.6875 152.375 115.820312 152.324219 L 116.222656 152.15625 L 117.828125 151.496094 L 118.632812 151.164062 C 118.765625 151.105469 118.902344 151.054688 119.035156 150.996094 L 119.425781 150.808594 L 121 150.066406 C 121.519531 149.8125 122.058594 149.59375 122.566406 149.308594 L 124.109375 148.5 L 124.882812 148.09375 C 125.007812 148.027344 125.140625 147.964844 125.265625 147.890625 L 125.640625 147.667969 L 127.140625 146.78125 L 127.894531 146.339844 L 128.269531 146.117188 L 128.632812 145.878906 C 132.585938 143.414062 136.292969 140.546875 139.777344 137.40625 " fill-opacity="1" fill-rule="nonzero"/><path fill="#FFFFFF" d="M 47.855469 45.484375 C 48.492188 44.769531 49.144531 44.066406 49.792969 43.355469 C 50.46875 42.675781 51.167969 42.015625 51.855469 41.34375 C 52.027344 41.171875 52.210938 41.019531 52.394531 40.859375 L 52.9375 40.386719 L 54.035156 39.441406 C 54.128906 39.363281 54.214844 39.28125 54.3125 39.207031 L 54.597656 38.988281 L 55.171875 38.546875 L 56.320312 37.660156 C 59.4375 35.371094 62.820312 33.414062 66.375 31.832031 C 73.488281 28.667969 81.304688 27.023438 89.125 27.023438 C 96.945312 27.019531 104.765625 28.664062 111.878906 31.828125 C 115.4375 33.410156 118.816406 35.367188 121.933594 37.660156 L 123.65625 38.984375 L 123.945312 39.203125 C 124.039062 39.28125 124.128906 39.363281 124.21875 39.4375 L 125.316406 40.382812 L 125.863281 40.855469 C 126.042969 41.015625 126.226562 41.167969 126.398438 41.339844 C 127.085938 42.015625 127.785156 42.675781 128.460938 43.355469 C 129.109375 44.066406 129.761719 44.769531 130.398438 45.484375 C 129.648438 44.882812 128.917969 44.269531 128.179688 43.667969 C 127.425781 43.082031 126.664062 42.511719 125.90625 41.9375 C 125.722656 41.789062 125.519531 41.660156 125.324219 41.527344 L 124.738281 41.121094 L 123.570312 40.316406 C 123.472656 40.246094 123.375 40.179688 123.277344 40.113281 L 122.976562 39.925781 L 122.375 39.546875 L 121.171875 38.796875 C 117.9375 36.84375 114.550781 35.183594 111.046875 33.851562 C 104.039062 31.179688 96.585938 29.8125 89.125 29.808594 C 81.667969 29.808594 74.210938 31.175781 67.207031 33.847656 C 63.703125 35.179688 60.3125 36.839844 57.078125 38.792969 L 55.878906 39.546875 L 55.277344 39.921875 L 54.972656 40.113281 C 54.875 40.175781 54.78125 40.246094 54.683594 40.3125 L 53.511719 41.121094 L 52.925781 41.523438 C 52.730469 41.660156 52.53125 41.789062 52.34375 41.9375 C 51.589844 42.511719 50.824219 43.078125 50.074219 43.664062 C 49.335938 44.269531 48.605469 44.882812 47.855469 45.484375 " fill-opacity="1" fill-rule="nonzero"/><path fill="#FFFFFF" d="M 130.398438 128.027344 C 129.761719 128.742188 129.109375 129.441406 128.460938 130.152344 C 127.785156 130.832031 127.085938 131.492188 126.394531 132.167969 C 126.226562 132.339844 126.042969 132.492188 125.859375 132.652344 L 125.316406 133.125 L 124.21875 134.066406 C 124.125 134.144531 124.035156 134.226562 123.941406 134.300781 L 123.65625 134.523438 L 123.082031 134.964844 L 121.929688 135.847656 C 118.816406 138.140625 115.433594 140.09375 111.878906 141.675781 C 104.765625 144.84375 96.945312 146.484375 89.125 146.484375 C 81.304688 146.488281 73.488281 144.84375 66.371094 141.679688 C 62.816406 140.097656 59.433594 138.144531 56.320312 135.851562 L 55.167969 134.964844 L 54.597656 134.523438 L 54.308594 134.304688 C 54.214844 134.230469 54.125 134.148438 54.03125 134.070312 L 52.390625 132.652344 C 52.210938 132.492188 52.027344 132.339844 51.855469 132.167969 C 51.164062 131.496094 50.46875 130.835938 49.789062 130.15625 C 49.144531 129.441406 48.488281 128.742188 47.855469 128.027344 C 48.605469 128.625 49.335938 129.238281 50.074219 129.84375 C 50.824219 130.429688 51.589844 130.996094 52.34375 131.570312 C 52.53125 131.71875 52.730469 131.847656 52.925781 131.980469 L 53.515625 132.386719 L 54.683594 133.195312 C 54.78125 133.261719 54.875 133.332031 54.976562 133.394531 L 55.277344 133.582031 L 55.878906 133.960938 L 57.078125 134.714844 C 60.3125 136.664062 63.703125 138.324219 67.207031 139.65625 C 74.210938 142.332031 81.667969 143.695312 89.125 143.703125 C 96.585938 143.699219 104.042969 142.335938 111.046875 139.660156 C 114.550781 138.328125 117.941406 136.667969 121.175781 134.714844 L 122.375 133.964844 L 122.976562 133.585938 L 123.277344 133.398438 C 123.378906 133.332031 123.472656 133.261719 123.570312 133.195312 L 124.738281 132.386719 L 125.328125 131.984375 C 125.523438 131.851562 125.722656 131.722656 125.910156 131.574219 C 126.664062 131 127.425781 130.429688 128.179688 129.84375 C 128.917969 129.242188 129.648438 128.625 130.398438 128.027344 " fill-opacity="1" fill-rule="nonzero"/><path fill="#FFFFFF" d="M 57.234375 54.863281 C 60.878906 50.152344 65.808594 46.363281 71.328125 43.789062 C 76.855469 41.214844 82.988281 39.875 89.125 39.875 C 95.261719 39.871094 101.398438 41.210938 106.925781 43.785156 C 112.445312 46.355469 117.375 50.148438 121.015625 54.863281 C 120.410156 54.429688 119.820312 53.984375 119.230469 53.539062 L 117.417969 52.28125 C 116.804688 51.878906 116.183594 51.492188 115.570312 51.097656 C 114.953125 50.714844 114.316406 50.359375 113.691406 49.992188 C 111.160156 48.570312 108.539062 47.367188 105.847656 46.402344 C 100.460938 44.464844 94.796875 43.480469 89.125 43.476562 C 83.457031 43.476562 77.789062 44.460938 72.40625 46.398438 C 69.710938 47.363281 67.089844 48.566406 64.558594 49.988281 C 63.933594 50.355469 63.296875 50.710938 62.679688 51.09375 C 62.066406 51.488281 61.445312 51.875 60.832031 52.277344 L 59.023438 53.539062 C 58.433594 53.980469 57.84375 54.429688 57.234375 54.863281 " fill-opacity="1" fill-rule="nonzero"/><path fill="#FFFFFF" d="M 121.015625 118.644531 C 117.371094 123.359375 112.445312 127.148438 106.925781 129.71875 C 101.398438 132.292969 95.261719 133.632812 89.125 133.636719 C 82.988281 133.640625 76.851562 132.296875 71.328125 129.722656 C 65.804688 127.152344 60.878906 123.359375 57.234375 118.644531 C 57.84375 119.082031 58.433594 119.527344 59.023438 119.96875 L 60.835938 121.226562 C 61.449219 121.632812 62.070312 122.015625 62.679688 122.410156 C 63.300781 122.796875 63.9375 123.148438 64.5625 123.515625 C 67.089844 124.9375 69.710938 126.140625 72.40625 127.105469 C 77.789062 129.042969 83.457031 130.027344 89.125 130.035156 C 94.796875 130.03125 100.464844 129.050781 105.847656 127.109375 C 108.542969 126.148438 111.164062 124.941406 113.695312 123.519531 C 114.316406 123.152344 114.953125 122.796875 115.574219 122.414062 C 116.183594 122.019531 116.808594 121.632812 117.421875 121.230469 L 119.230469 119.96875 C 119.820312 119.527344 120.410156 119.082031 121.015625 118.644531 " fill-opacity="1" fill-rule="nonzero"/><path fill="#FFFFFF" d="M 66.613281 64.242188 C 66.902344 63.796875 67.210938 63.359375 67.523438 62.921875 C 67.851562 62.5 68.195312 62.085938 68.542969 61.671875 C 68.894531 61.265625 69.277344 60.886719 69.648438 60.492188 C 69.832031 60.292969 70.039062 60.121094 70.238281 59.9375 L 70.839844 59.386719 L 70.988281 59.25 L 71.464844 58.867188 L 72.101562 58.355469 C 72.3125 58.179688 72.542969 58.035156 72.765625 57.875 L 73.4375 57.402344 C 73.886719 57.089844 74.363281 56.820312 74.832031 56.53125 C 75.0625 56.382812 75.308594 56.261719 75.550781 56.128906 L 76.28125 55.742188 C 80.21875 53.757812 84.675781 52.726562 89.125 52.722656 C 93.578125 52.71875 98.035156 53.75 101.972656 55.738281 L 102.703125 56.125 C 102.945312 56.257812 103.191406 56.375 103.425781 56.523438 L 104.128906 56.953125 C 104.359375 57.097656 104.597656 57.234375 104.816406 57.398438 L 105.492188 57.867188 C 105.714844 58.027344 105.941406 58.171875 106.152344 58.351562 L 106.789062 58.863281 L 107.109375 59.117188 C 107.214844 59.199219 107.320312 59.289062 107.417969 59.382812 L 108.019531 59.933594 L 108.316406 60.207031 C 108.417969 60.296875 108.515625 60.390625 108.605469 60.488281 C 108.980469 60.886719 109.359375 61.261719 109.714844 61.671875 C 110.0625 62.082031 110.402344 62.496094 110.730469 62.917969 C 111.042969 63.359375 111.351562 63.792969 111.636719 64.242188 C 111.171875 63.972656 110.722656 63.691406 110.28125 63.414062 C 109.828125 63.148438 109.371094 62.890625 108.929688 62.621094 L 107.574219 61.878906 C 107.121094 61.640625 106.660156 61.417969 106.210938 61.1875 C 105.757812 60.960938 105.289062 60.761719 104.835938 60.546875 C 104.375 60.34375 103.910156 60.15625 103.449219 59.960938 C 103.222656 59.859375 102.980469 59.785156 102.75 59.695312 L 102.050781 59.433594 C 101.824219 59.339844 101.582031 59.269531 101.347656 59.191406 L 100.644531 58.957031 C 96.882812 57.757812 93.007812 57.148438 89.125 57.144531 C 85.246094 57.140625 81.371094 57.753906 77.605469 58.949219 C 77.140625 59.113281 76.660156 59.25 76.199219 59.425781 L 75.5 59.691406 C 75.269531 59.78125 75.027344 59.851562 74.800781 59.957031 C 74.339844 60.152344 73.875 60.335938 73.414062 60.542969 C 72.960938 60.757812 72.492188 60.957031 72.039062 61.183594 C 71.589844 61.414062 71.128906 61.636719 70.675781 61.875 L 69.320312 62.621094 C 68.878906 62.886719 68.421875 63.144531 67.972656 63.414062 C 67.527344 63.691406 67.082031 63.972656 66.613281 64.242188 " fill-opacity="1" fill-rule="nonzero"/><path fill="#FFFFFF" d="M 111.636719 109.265625 C 111.347656 109.714844 111.039062 110.148438 110.730469 110.589844 C 110.402344 111.007812 110.058594 111.421875 109.710938 111.835938 C 109.359375 112.242188 108.976562 112.621094 108.605469 113.015625 C 108.417969 113.214844 108.210938 113.386719 108.015625 113.574219 L 107.414062 114.121094 L 107.261719 114.261719 L 107.105469 114.386719 L 106.789062 114.640625 L 106.148438 115.152344 C 105.941406 115.332031 105.710938 115.476562 105.488281 115.636719 L 104.816406 116.105469 C 104.367188 116.417969 103.890625 116.6875 103.421875 116.980469 C 103.1875 117.125 102.941406 117.246094 102.703125 117.378906 L 101.972656 117.765625 C 98.035156 119.753906 93.578125 120.785156 89.125 120.785156 C 84.675781 120.789062 80.214844 119.757812 76.277344 117.769531 L 75.546875 117.386719 C 75.308594 117.253906 75.0625 117.132812 74.828125 116.984375 L 74.125 116.554688 C 73.890625 116.410156 73.65625 116.273438 73.433594 116.109375 L 72.761719 115.640625 C 72.539062 115.480469 72.308594 115.335938 72.101562 115.160156 L 71.460938 114.648438 L 71.144531 114.390625 C 71.039062 114.308594 70.933594 114.222656 70.835938 114.125 L 70.234375 113.578125 L 69.9375 113.300781 C 69.835938 113.210938 69.738281 113.121094 69.644531 113.019531 C 69.273438 112.625 68.890625 112.246094 68.539062 111.839844 C 68.191406 111.425781 67.851562 111.011719 67.523438 110.589844 C 67.210938 110.152344 66.902344 109.714844 66.613281 109.265625 C 67.082031 109.535156 67.527344 109.816406 67.972656 110.09375 C 68.425781 110.363281 68.882812 110.617188 69.320312 110.886719 L 70.679688 111.628906 C 71.132812 111.867188 71.59375 112.09375 72.042969 112.320312 C 72.496094 112.546875 72.964844 112.75 73.417969 112.960938 C 73.875 113.167969 74.34375 113.351562 74.804688 113.546875 C 75.03125 113.648438 75.269531 113.722656 75.503906 113.816406 L 76.199219 114.078125 C 76.429688 114.171875 76.671875 114.238281 76.902344 114.316406 L 77.605469 114.554688 C 81.371094 115.75 85.246094 116.363281 89.125 116.367188 C 93.007812 116.367188 96.882812 115.753906 100.648438 114.558594 C 101.113281 114.394531 101.589844 114.257812 102.054688 114.082031 L 102.753906 113.820312 C 102.984375 113.730469 103.226562 113.65625 103.453125 113.554688 C 103.910156 113.359375 104.378906 113.171875 104.839844 112.964844 C 105.292969 112.753906 105.757812 112.550781 106.214844 112.324219 C 106.664062 112.097656 107.125 111.871094 107.578125 111.632812 L 108.933594 110.890625 C 109.375 110.621094 109.828125 110.363281 110.28125 110.097656 C 110.726562 109.816406 111.171875 109.535156 111.636719 109.265625 " fill-opacity="1" fill-rule="nonzero"/></g></g></svg>
