<svg xmlns="http://www.w3.org/2000/svg" xmlns:xlink="http://www.w3.org/1999/xlink" width="500" zoomAndPan="magnify" viewBox="0 0 375 374.999991" height="500" preserveAspectRatio="xMidYMid meet" version="1.0"><defs><g/><clipPath id="2ab3d3aa49"><path d="M 234.421875 93.730469 L 254.300781 93.730469 L 254.300781 187.296875 L 234.421875 187.296875 Z M 234.421875 93.730469 " clip-rule="nonzero"/></clipPath><clipPath id="cafedc321d"><path d="M 121.015625 93.730469 L 141 93.730469 L 141 187.296875 L 121.015625 187.296875 Z M 121.015625 93.730469 " clip-rule="nonzero"/></clipPath><clipPath id="06cbceea1e"><path d="M 119.222656 74.039062 L 255.722656 74.039062 L 255.722656 206.789062 L 119.222656 206.789062 Z M 119.222656 74.039062 " clip-rule="nonzero"/></clipPath><clipPath id="798214e70e"><path d="M 0.367188 0.25 L 136.632812 0.25 L 136.632812 132.789062 L 0.367188 132.789062 Z M 0.367188 0.25 " clip-rule="nonzero"/></clipPath><clipPath id="9623070dd1"><rect x="0" width="137" y="0" height="133"/></clipPath><clipPath id="4348bdd0bd"><path d="M 141.199219 74.246094 L 234.539062 74.246094 L 234.539062 93.871094 L 141.199219 93.871094 Z M 141.199219 74.246094 " clip-rule="nonzero"/></clipPath><clipPath id="ac981f198a"><path d="M 141.199219 187.050781 L 234.539062 187.050781 L 234.539062 206.996094 L 141.199219 206.996094 Z M 141.199219 187.050781 " clip-rule="nonzero"/></clipPath><clipPath id="f9a18ca790"><rect x="0" width="302" y="0" height="77"/></clipPath><clipPath id="53d30624a0"><rect x="0" width="206" y="0" height="27"/></clipPath></defs><g clip-path="url(#2ab3d3aa49)"><path fill="#ffffff" d="M 234.441406 93.730469 C 237.582031 96.714844 240.40625 100.039062 242.878906 103.613281 C 244.109375 105.40625 245.25 107.257812 246.300781 109.164062 C 247.351562 111.070312 248.292969 113.035156 249.144531 115.042969 C 250.851562 119.050781 252.125 123.242188 252.996094 127.515625 C 253.859375 131.789062 254.289062 136.152344 254.296875 140.515625 C 254.289062 144.878906 253.859375 149.238281 253 153.515625 C 252.566406 155.652344 252.027344 157.765625 251.386719 159.851562 C 251.0625 160.890625 250.71875 161.925781 250.347656 162.949219 C 249.972656 163.972656 249.570312 164.984375 249.144531 165.988281 C 248.296875 167.992188 247.351562 169.957031 246.304688 171.863281 C 245.253906 173.773438 244.113281 175.625 242.878906 177.414062 C 240.40625 180.988281 237.582031 184.316406 234.441406 187.296875 C 237.421875 184.15625 240.125 180.761719 242.460938 177.136719 C 243.636719 175.328125 244.722656 173.460938 245.710938 171.550781 C 246.703125 169.636719 247.609375 167.683594 248.410156 165.683594 C 248.8125 164.6875 249.1875 163.679688 249.539062 162.664062 C 249.894531 161.648438 250.222656 160.625 250.527344 159.59375 C 251.136719 157.53125 251.644531 155.4375 252.050781 153.328125 C 252.871094 149.109375 253.285156 144.8125 253.277344 140.515625 C 253.285156 136.21875 252.867188 131.921875 252.050781 127.703125 C 251.246094 123.476562 250.011719 119.339844 248.410156 115.34375 C 247.609375 113.347656 246.703125 111.390625 245.714844 109.480469 C 244.722656 107.566406 243.636719 105.703125 242.464844 103.890625 C 240.125 100.265625 237.421875 96.875 234.441406 93.730469 " fill-opacity="1" fill-rule="nonzero"/></g><g clip-path="url(#cafedc321d)"><path fill="#ffffff" d="M 140.875 187.296875 C 137.734375 184.3125 134.910156 180.988281 132.4375 177.414062 C 131.203125 175.625 130.0625 173.769531 129.011719 171.863281 C 127.964844 169.957031 127.019531 167.992188 126.167969 165.988281 C 124.464844 161.980469 123.1875 157.789062 122.316406 153.515625 C 121.453125 149.238281 121.027344 144.878906 121.015625 140.515625 C 121.027344 136.152344 121.457031 131.789062 122.316406 127.515625 C 122.75 125.378906 123.289062 123.261719 123.929688 121.179688 C 124.25 120.136719 124.59375 119.105469 124.96875 118.082031 C 125.34375 117.058594 125.742188 116.042969 126.167969 115.042969 C 127.019531 113.035156 127.960938 111.070312 129.011719 109.164062 C 130.0625 107.257812 131.203125 105.40625 132.4375 103.613281 C 134.910156 100.039062 137.734375 96.714844 140.875 93.730469 C 137.894531 96.875 135.191406 100.265625 132.851562 103.894531 C 131.679688 105.703125 130.589844 107.566406 129.601562 109.480469 C 128.613281 111.394531 127.707031 113.347656 126.90625 115.34375 C 126.503906 116.34375 126.125 117.351562 125.777344 118.367188 C 125.421875 119.382812 125.089844 120.40625 124.785156 121.4375 C 124.175781 123.5 123.667969 125.589844 123.265625 127.703125 C 122.445312 131.921875 122.027344 136.21875 122.035156 140.515625 C 122.027344 144.8125 122.445312 149.109375 123.261719 153.328125 C 124.070312 157.550781 125.304688 161.691406 126.902344 165.683594 C 127.703125 167.683594 128.613281 169.636719 129.601562 171.550781 C 130.589844 173.464844 131.675781 175.328125 132.851562 177.136719 C 135.191406 180.761719 137.894531 184.15625 140.875 187.296875 " fill-opacity="1" fill-rule="nonzero"/></g><path fill="#ffffff" d="M 227.132812 101.039062 C 229.839844 103.5 232.269531 106.28125 234.40625 109.273438 L 234.613281 109.550781 L 234.804688 109.839844 L 235.183594 110.417969 L 235.945312 111.570312 L 236.132812 111.859375 C 236.195312 111.957031 236.25 112.058594 236.3125 112.15625 L 236.660156 112.75 L 237.363281 113.945312 L 237.539062 114.242188 C 237.597656 114.339844 237.648438 114.445312 237.703125 114.546875 L 238.023438 115.160156 L 238.65625 116.390625 L 238.8125 116.699219 C 238.867188 116.800781 238.910156 116.910156 238.960938 117.011719 L 239.246094 117.644531 L 239.820312 118.90625 C 242.769531 125.6875 244.28125 133.101562 244.285156 140.515625 C 244.285156 147.929688 242.769531 155.34375 239.820312 162.125 L 239.25 163.386719 L 238.960938 164.015625 C 238.914062 164.121094 238.867188 164.226562 238.816406 164.332031 L 238.65625 164.640625 L 238.023438 165.871094 L 237.703125 166.484375 C 237.648438 166.585938 237.601562 166.6875 237.542969 166.789062 L 236.664062 168.28125 L 236.3125 168.875 C 236.253906 168.972656 236.199219 169.074219 236.136719 169.171875 L 235.945312 169.460938 L 235.183594 170.613281 L 234.804688 171.191406 L 234.613281 171.476562 L 234.410156 171.753906 C 232.269531 174.75 229.84375 177.53125 227.132812 179.988281 C 229.582031 177.273438 231.8125 174.382812 233.734375 171.304688 L 233.917969 171.019531 L 234.09375 170.726562 L 234.4375 170.140625 L 235.128906 168.96875 L 235.300781 168.679688 C 235.355469 168.578125 235.40625 168.476562 235.460938 168.378906 L 236.40625 166.574219 L 236.5625 166.273438 C 236.617188 166.175781 236.660156 166.070312 236.710938 165.96875 L 236.996094 165.355469 L 237.574219 164.128906 L 237.71875 163.820312 C 237.765625 163.71875 237.804688 163.613281 237.851562 163.507812 L 238.625 161.632812 L 238.753906 161.316406 C 238.796875 161.214844 238.832031 161.105469 238.871094 161 L 239.097656 160.363281 L 239.550781 159.085938 L 239.664062 158.769531 L 239.765625 158.445312 L 239.964844 157.800781 L 240.363281 156.507812 C 240.394531 156.398438 240.429688 156.292969 240.460938 156.183594 L 240.542969 155.855469 L 240.710938 155.203125 L 241.050781 153.894531 C 241.109375 153.675781 241.15625 153.457031 241.203125 153.234375 L 241.339844 152.574219 L 241.617188 151.25 C 241.667969 151.03125 241.695312 150.808594 241.730469 150.585938 L 241.839844 149.921875 L 242.058594 148.585938 L 242.085938 148.421875 L 242.101562 148.253906 L 242.21875 147.246094 L 242.371094 145.90625 C 242.441406 145.007812 242.5 144.109375 242.5625 143.214844 L 242.625 140.515625 L 242.5625 137.816406 C 242.5 136.917969 242.441406 136.019531 242.371094 135.125 L 242.21875 133.78125 L 242.144531 133.113281 L 242.085938 132.609375 L 242.058594 132.441406 L 241.839844 131.109375 L 241.734375 130.441406 C 241.699219 130.21875 241.667969 129.996094 241.617188 129.777344 L 241.339844 128.453125 L 241.203125 127.792969 C 241.15625 127.574219 241.113281 127.351562 241.050781 127.136719 L 240.714844 125.828125 L 240.546875 125.171875 L 240.464844 124.84375 C 240.433594 124.734375 240.398438 124.628906 240.363281 124.519531 L 239.964844 123.230469 L 239.765625 122.582031 L 239.667969 122.257812 L 239.554688 121.941406 L 239.097656 120.667969 L 238.871094 120.027344 C 238.832031 119.921875 238.796875 119.816406 238.757812 119.710938 L 238.628906 119.398438 L 238.113281 118.144531 L 237.851562 117.519531 C 237.808594 117.414062 237.769531 117.308594 237.722656 117.207031 L 237.578125 116.902344 L 237 115.675781 C 236.800781 115.269531 236.628906 114.847656 236.410156 114.453125 L 235.460938 112.648438 C 235.410156 112.550781 235.359375 112.449219 235.304688 112.351562 L 235.128906 112.058594 L 234.4375 110.886719 L 234.09375 110.300781 L 233.921875 110.011719 L 233.734375 109.726562 C 231.8125 106.644531 229.582031 103.757812 227.132812 101.039062 " fill-opacity="1" fill-rule="nonzero"/><path fill="#ffffff" d="M 148.183594 179.988281 C 145.472656 177.53125 143.042969 174.75 140.90625 171.753906 L 140.703125 171.476562 L 140.511719 171.1875 L 140.132812 170.613281 L 139.371094 169.460938 L 139.179688 169.167969 C 139.121094 169.074219 139.0625 168.972656 139.003906 168.875 L 138.652344 168.277344 L 137.777344 166.789062 C 137.71875 166.6875 137.667969 166.585938 137.613281 166.484375 L 137.292969 165.867188 L 136.660156 164.636719 L 136.5 164.332031 C 136.449219 164.226562 136.402344 164.121094 136.355469 164.015625 L 136.066406 163.386719 L 135.496094 162.125 C 132.546875 155.34375 131.03125 147.929688 131.03125 140.515625 C 131.03125 133.101562 132.546875 125.6875 135.492188 118.90625 L 136.066406 117.644531 L 136.351562 117.011719 C 136.402344 116.90625 136.445312 116.800781 136.5 116.699219 L 136.65625 116.390625 L 137.292969 115.160156 L 137.609375 114.546875 C 137.664062 114.445312 137.714844 114.339844 137.773438 114.242188 L 137.949219 113.941406 L 138.652344 112.75 L 139.003906 112.15625 C 139.0625 112.054688 139.117188 111.957031 139.179688 111.859375 L 139.371094 111.570312 L 140.128906 110.414062 L 140.699219 109.550781 L 140.90625 109.273438 C 143.042969 106.277344 145.472656 103.496094 148.183594 101.039062 C 145.734375 103.757812 143.503906 106.648438 141.582031 109.726562 L 141.394531 110.011719 L 140.878906 110.890625 L 140.1875 112.058594 L 140.015625 112.351562 C 139.957031 112.449219 139.90625 112.550781 139.855469 112.652344 L 139.539062 113.253906 L 138.90625 114.453125 L 138.75 114.753906 C 138.699219 114.855469 138.652344 114.960938 138.605469 115.0625 L 137.738281 116.902344 L 137.597656 117.207031 C 137.546875 117.308594 137.507812 117.417969 137.464844 117.519531 L 137.207031 118.148438 L 136.6875 119.398438 L 136.558594 119.710938 C 136.519531 119.816406 136.484375 119.921875 136.445312 120.027344 L 136.21875 120.667969 L 135.765625 121.941406 L 135.648438 122.257812 L 135.550781 122.582031 L 135.351562 123.230469 L 134.953125 124.523438 C 134.917969 124.628906 134.882812 124.738281 134.855469 124.84375 L 134.601562 125.828125 L 134.265625 127.136719 C 134.203125 127.351562 134.160156 127.574219 134.113281 127.792969 L 133.976562 128.457031 L 133.699219 129.777344 C 133.648438 129.996094 133.621094 130.21875 133.582031 130.441406 L 133.476562 131.109375 L 133.257812 132.441406 L 133.230469 132.609375 L 133.171875 133.113281 L 133.097656 133.78125 L 132.945312 135.125 C 132.871094 136.019531 132.816406 136.917969 132.75 137.816406 L 132.6875 140.515625 L 132.75 143.214844 C 132.816406 144.109375 132.871094 145.007812 132.941406 145.90625 L 133.097656 147.246094 L 133.210938 148.253906 L 133.230469 148.421875 L 133.257812 148.589844 L 133.472656 149.921875 L 133.582031 150.585938 C 133.617188 150.808594 133.648438 151.03125 133.699219 151.253906 L 133.972656 152.574219 L 134.113281 153.234375 C 134.15625 153.457031 134.203125 153.675781 134.261719 153.894531 L 134.601562 155.203125 L 134.769531 155.859375 L 134.851562 156.183594 C 134.882812 156.292969 134.917969 156.402344 134.949219 156.507812 L 135.347656 157.800781 L 135.546875 158.445312 L 135.648438 158.769531 L 135.761719 159.089844 L 136.441406 161 C 136.480469 161.105469 136.515625 161.214844 136.558594 161.320312 L 137.203125 162.882812 L 137.460938 163.511719 C 137.507812 163.613281 137.546875 163.71875 137.59375 163.824219 L 137.738281 164.128906 L 138.316406 165.355469 C 138.515625 165.761719 138.683594 166.179688 138.90625 166.578125 L 139.535156 167.777344 L 139.851562 168.378906 C 139.90625 168.480469 139.957031 168.582031 140.011719 168.679688 L 140.183594 168.972656 L 140.875 170.140625 L 141.222656 170.726562 L 141.394531 171.019531 L 141.582031 171.304688 C 143.5 174.382812 145.734375 177.273438 148.183594 179.988281 " fill-opacity="1" fill-rule="nonzero"/><path fill="#ffffff" d="M 219.820312 108.351562 C 220.378906 108.847656 220.925781 109.355469 221.480469 109.859375 C 222.007812 110.386719 222.523438 110.933594 223.046875 111.46875 C 223.183594 111.601562 223.300781 111.746094 223.425781 111.886719 L 223.792969 112.3125 L 224.53125 113.167969 C 224.589844 113.238281 224.652344 113.308594 224.714844 113.382812 L 224.882812 113.605469 L 225.226562 114.050781 L 225.917969 114.949219 C 227.703125 117.378906 229.226562 120.011719 230.460938 122.785156 C 232.925781 128.328125 234.207031 134.421875 234.207031 140.515625 C 234.210938 146.609375 232.929688 152.703125 230.464844 158.246094 C 229.230469 161.019531 227.707031 163.652344 225.917969 166.082031 L 225.230469 166.976562 L 224.886719 167.425781 L 224.714844 167.648438 C 224.65625 167.722656 224.59375 167.792969 224.53125 167.863281 L 223.796875 168.71875 L 223.425781 169.144531 C 223.300781 169.285156 223.183594 169.429688 223.050781 169.5625 C 222.523438 170.097656 222.011719 170.640625 221.480469 171.171875 C 220.925781 171.675781 220.378906 172.183594 219.820312 172.679688 C 220.289062 172.09375 220.769531 171.523438 221.238281 170.949219 C 221.695312 170.363281 222.136719 169.769531 222.585938 169.179688 C 222.699219 169.035156 222.800781 168.878906 222.90625 168.726562 L 223.21875 168.269531 L 223.847656 167.355469 C 223.902344 167.28125 223.957031 167.207031 224.003906 167.128906 L 224.152344 166.894531 L 224.445312 166.425781 L 225.035156 165.488281 C 226.554688 162.96875 227.847656 160.328125 228.886719 157.597656 C 230.96875 152.136719 232.035156 146.328125 232.039062 140.515625 C 232.039062 134.703125 230.972656 128.890625 228.890625 123.433594 C 227.851562 120.699219 226.558594 118.058594 225.035156 115.539062 L 224.15625 114.132812 L 224.007812 113.898438 C 223.957031 113.820312 223.902344 113.746094 223.851562 113.671875 L 223.222656 112.761719 L 222.90625 112.300781 C 222.800781 112.148438 222.699219 111.992188 222.585938 111.847656 C 222.136719 111.261719 221.695312 110.664062 221.238281 110.078125 C 220.769531 109.503906 220.289062 108.933594 219.820312 108.351562 " fill-opacity="1" fill-rule="nonzero"/><path fill="#ffffff" d="M 155.492188 172.679688 C 154.9375 172.183594 154.390625 171.675781 153.835938 171.167969 C 153.304688 170.640625 152.792969 170.097656 152.265625 169.558594 C 152.132812 169.429688 152.011719 169.285156 151.890625 169.144531 L 151.519531 168.71875 L 150.785156 167.863281 C 150.722656 167.789062 150.660156 167.722656 150.601562 167.648438 L 150.429688 167.425781 L 150.085938 166.976562 L 149.398438 166.082031 C 147.613281 163.652344 146.089844 161.019531 144.855469 158.246094 C 142.386719 152.703125 141.109375 146.609375 141.109375 140.515625 C 141.105469 134.421875 142.386719 128.328125 144.851562 122.78125 C 146.085938 120.011719 147.609375 117.375 149.394531 114.949219 L 150.085938 114.050781 L 150.429688 113.605469 L 150.601562 113.378906 C 150.660156 113.308594 150.722656 113.238281 150.785156 113.164062 L 151.886719 111.886719 C 152.011719 111.746094 152.132812 111.601562 152.265625 111.46875 C 152.789062 110.929688 153.304688 110.386719 153.835938 109.859375 C 154.390625 109.355469 154.9375 108.84375 155.492188 108.351562 C 155.027344 108.933594 154.546875 109.503906 154.078125 110.078125 C 153.621094 110.667969 153.179688 111.261719 152.730469 111.851562 C 152.613281 111.996094 152.515625 112.152344 152.410156 112.304688 L 152.09375 112.761719 L 151.464844 113.671875 C 151.414062 113.75 151.359375 113.824219 151.308594 113.898438 L 151.164062 114.136719 L 150.867188 114.605469 L 150.28125 115.539062 C 148.761719 118.058594 147.464844 120.703125 146.429688 123.433594 C 144.34375 128.890625 143.28125 134.703125 143.277344 140.515625 C 143.277344 146.328125 144.34375 152.136719 146.425781 157.597656 C 147.464844 160.328125 148.757812 162.972656 150.28125 165.492188 L 150.867188 166.425781 L 151.160156 166.894531 L 151.308594 167.128906 C 151.359375 167.207031 151.410156 167.28125 151.464844 167.359375 L 152.09375 168.269531 L 152.410156 168.726562 C 152.511719 168.878906 152.613281 169.035156 152.730469 169.179688 C 153.175781 169.769531 153.621094 170.363281 154.078125 170.949219 C 154.546875 171.523438 155.023438 172.09375 155.492188 172.679688 " fill-opacity="1" fill-rule="nonzero"/><path fill="#ffffff" d="M 212.511719 115.660156 C 216.183594 118.503906 219.136719 122.34375 221.140625 126.644531 C 223.148438 130.949219 224.191406 135.734375 224.191406 140.515625 C 224.195312 145.296875 223.152344 150.078125 221.144531 154.386719 C 219.140625 158.6875 216.183594 162.53125 212.511719 165.367188 C 212.851562 164.894531 213.199219 164.433594 213.542969 163.976562 L 214.523438 162.5625 C 214.835938 162.085938 215.140625 161.601562 215.445312 161.125 C 215.746094 160.640625 216.019531 160.144531 216.308594 159.660156 C 217.414062 157.6875 218.351562 155.644531 219.105469 153.546875 C 220.617188 149.347656 221.382812 144.933594 221.386719 140.515625 C 221.386719 136.097656 220.617188 131.679688 219.109375 127.484375 C 218.355469 125.382812 217.417969 123.339844 216.308594 121.367188 C 216.023438 120.882812 215.746094 120.386719 215.449219 119.902344 C 215.140625 119.425781 214.839844 118.941406 214.527344 118.464844 L 213.542969 117.054688 C 213.199219 116.59375 212.851562 116.132812 212.511719 115.660156 " fill-opacity="1" fill-rule="nonzero"/><path fill="#ffffff" d="M 162.804688 165.367188 C 159.132812 162.527344 156.179688 158.6875 154.171875 154.386719 C 152.167969 150.078125 151.121094 145.296875 151.121094 140.515625 C 151.117188 135.734375 152.164062 130.949219 154.167969 126.644531 C 156.175781 122.339844 159.128906 118.5 162.804688 115.660156 C 162.464844 116.132812 162.117188 116.59375 161.773438 117.054688 L 160.789062 118.464844 C 160.476562 118.945312 160.175781 119.429688 159.867188 119.90625 C 159.570312 120.386719 159.292969 120.882812 159.007812 121.371094 C 157.902344 123.34375 156.960938 125.386719 156.210938 127.484375 C 154.699219 131.679688 153.933594 136.097656 153.929688 140.515625 C 153.929688 144.933594 154.695312 149.351562 156.207031 153.546875 C 156.957031 155.644531 157.898438 157.6875 159.003906 159.660156 C 159.292969 160.148438 159.566406 160.644531 159.867188 161.125 C 160.175781 161.601562 160.476562 162.085938 160.789062 162.566406 L 161.773438 163.976562 C 162.117188 164.433594 162.464844 164.894531 162.804688 165.367188 " fill-opacity="1" fill-rule="nonzero"/><path fill="#ffffff" d="M 205.199219 122.972656 C 205.550781 123.195312 205.890625 123.4375 206.230469 123.679688 C 206.5625 123.933594 206.882812 124.199219 207.203125 124.472656 C 207.519531 124.746094 207.816406 125.042969 208.125 125.335938 C 208.28125 125.480469 208.414062 125.640625 208.558594 125.792969 L 208.984375 126.261719 L 209.09375 126.378906 L 209.390625 126.75 L 209.789062 127.25 C 209.929688 127.410156 210.039062 127.589844 210.164062 127.761719 L 210.53125 128.289062 C 210.773438 128.636719 210.984375 129.007812 211.210938 129.375 C 211.328125 129.554688 211.421875 129.746094 211.523438 129.933594 L 211.824219 130.503906 C 213.375 133.570312 214.179688 137.042969 214.179688 140.515625 C 214.179688 143.984375 213.378906 147.457031 211.828125 150.527344 L 211.527344 151.097656 C 211.425781 151.285156 211.332031 151.476562 211.21875 151.65625 L 210.882812 152.207031 C 210.769531 152.386719 210.660156 152.570312 210.535156 152.742188 L 210.167969 153.269531 C 210.042969 153.441406 209.933594 153.621094 209.792969 153.785156 L 209.394531 154.28125 L 209.195312 154.527344 C 209.132812 154.613281 209.0625 154.691406 208.988281 154.769531 L 208.5625 155.238281 L 208.347656 155.46875 C 208.277344 155.546875 208.203125 155.625 208.125 155.695312 C 207.820312 155.988281 207.523438 156.285156 207.207031 156.558594 C 206.882812 156.828125 206.5625 157.097656 206.234375 157.351562 C 205.890625 157.59375 205.550781 157.835938 205.199219 158.058594 C 205.410156 157.695312 205.628906 157.347656 205.847656 157 C 206.054688 156.648438 206.253906 156.292969 206.464844 155.949219 L 207.042969 154.890625 C 207.230469 154.539062 207.402344 154.179688 207.582031 153.828125 C 207.757812 153.476562 207.914062 153.109375 208.082031 152.757812 C 208.242188 152.398438 208.386719 152.035156 208.539062 151.679688 C 208.617188 151.5 208.675781 151.3125 208.746094 151.132812 L 208.949219 150.589844 C 209.023438 150.410156 209.078125 150.222656 209.140625 150.039062 L 209.324219 149.492188 C 210.253906 146.558594 210.730469 143.539062 210.734375 140.515625 C 210.734375 137.488281 210.257812 134.46875 209.328125 131.535156 C 209.199219 131.175781 209.089844 130.800781 208.953125 130.4375 L 208.75 129.894531 C 208.679688 129.714844 208.621094 129.527344 208.542969 129.347656 C 208.390625 128.992188 208.246094 128.628906 208.085938 128.269531 C 207.917969 127.914062 207.761719 127.550781 207.585938 127.199219 C 207.40625 126.847656 207.230469 126.488281 207.046875 126.136719 L 206.464844 125.078125 C 206.257812 124.734375 206.058594 124.378906 205.847656 124.027344 C 205.632812 123.683594 205.410156 123.335938 205.199219 122.972656 " fill-opacity="1" fill-rule="nonzero"/><path fill="#ffffff" d="M 170.113281 158.058594 C 169.765625 157.832031 169.425781 157.59375 169.082031 157.351562 C 168.753906 157.09375 168.433594 156.828125 168.109375 156.558594 C 167.792969 156.28125 167.5 155.984375 167.191406 155.695312 C 167.035156 155.550781 166.902344 155.390625 166.757812 155.234375 L 166.328125 154.765625 L 166.222656 154.648438 L 166.121094 154.527344 L 165.921875 154.277344 L 165.523438 153.78125 C 165.386719 153.617188 165.273438 153.4375 165.148438 153.265625 L 164.785156 152.742188 C 164.539062 152.390625 164.328125 152.019531 164.101562 151.65625 C 163.988281 151.472656 163.894531 151.28125 163.789062 151.09375 L 163.488281 150.523438 C 161.941406 147.457031 161.136719 143.984375 161.136719 140.515625 C 161.132812 137.042969 161.9375 133.570312 163.484375 130.503906 L 163.785156 129.933594 C 163.890625 129.746094 163.984375 129.554688 164.097656 129.371094 L 164.433594 128.824219 C 164.546875 128.640625 164.652344 128.457031 164.777344 128.285156 L 165.144531 127.761719 C 165.269531 127.589844 165.382812 127.410156 165.519531 127.246094 L 165.921875 126.75 L 166.117188 126.5 C 166.183594 126.417969 166.25 126.335938 166.324219 126.261719 L 166.96875 125.558594 C 167.039062 125.480469 167.109375 125.40625 167.1875 125.332031 C 167.496094 125.042969 167.792969 124.746094 168.109375 124.472656 C 168.429688 124.199219 168.753906 123.933594 169.082031 123.679688 C 169.425781 123.4375 169.765625 123.195312 170.113281 122.972656 C 169.902344 123.335938 169.683594 123.683594 169.46875 124.027344 C 169.257812 124.382812 169.058594 124.738281 168.851562 125.082031 L 168.273438 126.136719 C 168.085938 126.492188 167.910156 126.847656 167.734375 127.203125 C 167.558594 127.554688 167.398438 127.917969 167.234375 128.273438 C 167.074219 128.628906 166.929688 128.996094 166.777344 129.351562 C 166.699219 129.527344 166.640625 129.71875 166.570312 129.898438 L 166.363281 130.441406 C 166.292969 130.617188 166.238281 130.808594 166.175781 130.988281 L 165.992188 131.539062 C 165.058594 134.46875 164.582031 137.492188 164.582031 140.515625 C 164.578125 143.539062 165.054688 146.558594 165.988281 149.496094 C 166.117188 149.855469 166.222656 150.230469 166.359375 150.589844 L 166.566406 151.132812 C 166.636719 151.316406 166.691406 151.503906 166.773438 151.679688 C 166.925781 152.039062 167.070312 152.402344 167.230469 152.757812 C 167.394531 153.113281 167.554688 153.476562 167.730469 153.832031 C 167.910156 154.183594 168.082031 154.539062 168.269531 154.894531 L 168.847656 155.949219 C 169.058594 156.292969 169.257812 156.648438 169.464844 157.003906 C 169.683594 157.347656 169.902344 157.695312 170.113281 158.058594 " fill-opacity="1" fill-rule="nonzero"/><g clip-path="url(#06cbceea1e)"><g transform="matrix(1, 0, 0, 1, 119, 74)"><g clip-path="url(#9623070dd1)"><g clip-path="url(#798214e70e)"><path fill="#ffffff" d="M 4.878906 65.914062 C 4.890625 59.066406 5.9375 52.238281 8.035156 45.714844 C 10.050781 39.453125 13.015625 33.503906 16.792969 28.121094 C 20.546875 22.769531 25.097656 17.980469 30.25 13.960938 C 35.417969 9.925781 41.1875 6.667969 47.3125 4.332031 C 48.890625 3.730469 50.492188 3.191406 52.113281 2.71875 C 52.199219 2.695312 52.285156 2.671875 52.367188 2.644531 C 51.808594 2.808594 50.011719 3.25 50.652344 3.105469 C 50.441406 3.152344 50.582031 3.125 50.703125 3.097656 C 51.121094 2.996094 51.535156 2.898438 51.953125 2.804688 C 52.800781 2.617188 53.652344 2.445312 54.507812 2.289062 C 57.921875 1.675781 61.378906 1.335938 64.847656 1.261719 C 71.683594 1.121094 78.535156 2.03125 85.089844 3.984375 C 91.429688 5.875 97.476562 8.734375 102.964844 12.425781 C 108.367188 16.058594 113.222656 20.492188 117.335938 25.539062 C 121.492188 30.636719 124.878906 36.355469 127.34375 42.453125 C 129.867188 48.703125 131.414062 55.332031 131.925781 62.050781 C 132.449219 68.9375 131.902344 75.910156 130.285156 82.625 C 128.730469 89.058594 126.199219 95.246094 122.800781 100.921875 C 119.4375 106.535156 115.238281 111.640625 110.382812 116.027344 C 105.535156 120.40625 100.039062 124.0625 94.121094 126.828125 C 91.109375 128.238281 87.992188 129.410156 84.800781 130.34375 C 83.9375 130.597656 87.363281 129.683594 86.175781 129.972656 C 85.742188 130.078125 85.304688 130.179688 84.871094 130.273438 C 84.023438 130.460938 83.167969 130.628906 82.3125 130.78125 C 80.617188 131.082031 78.910156 131.316406 77.199219 131.480469 C 70.339844 132.144531 63.378906 131.746094 56.648438 130.277344 C 50.140625 128.859375 43.863281 126.4375 38.085938 123.132812 C 32.429688 119.894531 27.261719 115.816406 22.792969 111.074219 C 18.296875 106.296875 14.515625 100.859375 11.621094 94.976562 C 8.671875 88.988281 6.652344 82.554688 5.640625 75.957031 C 5.132812 72.636719 4.886719 69.277344 4.878906 65.914062 C 4.878906 65.976562 2.796875 66.449219 2.617188 66.496094 C 2.425781 66.546875 0.363281 66.984375 0.367188 67.125 C 0.375 74.09375 1.457031 81.039062 3.628906 87.660156 C 5.722656 94.046875 8.804688 100.101562 12.730469 105.554688 C 16.632812 110.976562 21.355469 115.800781 26.695312 119.816406 C 32.058594 123.847656 38.039062 127.054688 44.367188 129.285156 C 50.914062 131.585938 57.820312 132.832031 64.753906 132.984375 C 68.308594 133.0625 71.867188 132.859375 75.386719 132.371094 C 79.585938 131.789062 83.675781 130.726562 87.753906 129.59375 C 94.320312 127.765625 100.582031 125.0625 106.324219 121.375 C 111.945312 117.761719 117.011719 113.292969 121.300781 108.167969 C 125.59375 103.039062 129.101562 97.253906 131.660156 91.070312 C 134.289062 84.710938 135.898438 77.941406 136.433594 71.082031 C 136.976562 64.074219 136.410156 56.980469 134.734375 50.152344 C 133.125 43.589844 130.488281 37.285156 126.957031 31.523438 C 123.460938 25.824219 119.09375 20.664062 114.058594 16.269531 C 109.023438 11.875 103.324219 8.25 97.203125 5.5625 C 90.917969 2.804688 84.207031 1.046875 77.378906 0.367188 C 70.402344 -0.328125 63.324219 0.0820312 56.476562 1.585938 C 48.992188 3.234375 41.613281 5.523438 34.859375 9.1875 C 28.976562 12.382812 23.589844 16.476562 18.933594 21.28125 C 14.292969 26.070312 10.378906 31.5625 7.375 37.519531 C 4.308594 43.605469 2.203125 50.167969 1.152344 56.902344 C 0.625 60.285156 0.371094 63.703125 0.367188 67.125 C 0.367188 67.0625 2.449219 66.589844 2.628906 66.542969 C 2.820312 66.492188 4.878906 66.058594 4.878906 65.914062 " fill-opacity="1" fill-rule="nonzero"/></g></g></g></g><g clip-path="url(#4348bdd0bd)"><path fill="#ffffff" d="M 141.203125 93.851562 C 144.179688 90.71875 147.496094 87.902344 151.0625 85.433594 C 152.847656 84.207031 154.695312 83.066406 156.597656 82.019531 C 158.5 80.972656 160.460938 80.03125 162.460938 79.183594 C 166.457031 77.480469 170.640625 76.210938 174.902344 75.339844 C 179.167969 74.480469 183.519531 74.054688 187.871094 74.042969 C 192.222656 74.050781 196.574219 74.480469 200.839844 75.339844 C 202.96875 75.773438 205.082031 76.308594 207.15625 76.949219 C 208.195312 77.269531 209.230469 77.613281 210.25 77.984375 C 211.269531 78.359375 212.28125 78.757812 213.28125 79.183594 C 215.28125 80.03125 217.242188 80.972656 219.144531 82.019531 C 221.042969 83.066406 222.894531 84.203125 224.679688 85.433594 C 228.246094 87.902344 231.5625 90.71875 234.539062 93.851562 C 231.402344 90.878906 228.019531 88.183594 224.402344 85.851562 C 222.597656 84.679688 220.738281 83.59375 218.828125 82.609375 C 216.921875 81.621094 214.96875 80.714844 212.976562 79.917969 C 211.980469 79.515625 210.976562 79.140625 209.960938 78.789062 C 208.949219 78.4375 207.929688 78.109375 206.902344 77.804688 C 204.84375 77.195312 202.757812 76.6875 200.652344 76.285156 C 196.441406 75.46875 192.15625 75.054688 187.871094 75.0625 C 183.582031 75.050781 179.296875 75.46875 175.089844 76.285156 C 170.875 77.085938 166.746094 78.320312 162.761719 79.914062 C 160.769531 80.714844 158.820312 81.621094 156.910156 82.605469 C 155.003906 83.59375 153.140625 84.679688 151.335938 85.847656 C 147.722656 88.183594 144.335938 90.878906 141.203125 93.851562 " fill-opacity="1" fill-rule="nonzero"/></g><g clip-path="url(#ac981f198a)"><path fill="#ffffff" d="M 234.539062 187.1875 C 231.5625 190.320312 228.246094 193.136719 224.679688 195.605469 C 222.894531 196.835938 221.042969 197.972656 219.140625 199.019531 C 217.242188 200.066406 215.28125 201.007812 213.28125 201.855469 C 209.28125 203.558594 205.101562 204.828125 200.839844 205.699219 C 196.574219 206.558594 192.222656 206.988281 187.871094 206.996094 C 183.519531 206.988281 179.167969 206.558594 174.902344 205.699219 C 172.769531 205.265625 170.660156 204.730469 168.582031 204.089844 C 167.542969 203.769531 166.511719 203.425781 165.492188 203.054688 C 164.46875 202.679688 163.457031 202.28125 162.460938 201.859375 C 160.457031 201.007812 158.5 200.066406 156.597656 199.019531 C 154.695312 197.972656 152.847656 196.835938 151.058594 195.605469 C 147.496094 193.140625 144.175781 190.320312 141.203125 187.1875 C 144.335938 190.160156 147.722656 192.855469 151.339844 195.191406 C 153.144531 196.363281 155.003906 197.445312 156.910156 198.433594 C 158.820312 199.417969 160.769531 200.324219 162.761719 201.125 C 163.757812 201.523438 164.761719 201.898438 165.777344 202.25 C 166.789062 202.601562 167.8125 202.933594 168.839844 203.234375 C 170.894531 203.84375 172.984375 204.351562 175.089844 204.753906 C 179.296875 205.570312 183.582031 205.988281 187.871094 205.980469 C 192.15625 205.988281 196.441406 205.570312 200.652344 204.757812 C 204.863281 203.953125 208.992188 202.71875 212.976562 201.125 C 214.972656 200.324219 216.921875 199.421875 218.828125 198.433594 C 220.738281 197.445312 222.597656 196.363281 224.402344 195.191406 C 228.019531 192.859375 231.402344 190.160156 234.539062 187.1875 " fill-opacity="1" fill-rule="nonzero"/></g><path fill="#ffffff" d="M 148.492188 101.144531 C 150.945312 98.441406 153.71875 96.015625 156.707031 93.882812 L 156.984375 93.679688 L 157.269531 93.488281 L 157.847656 93.109375 L 158.996094 92.351562 L 159.285156 92.164062 C 159.382812 92.101562 159.480469 92.046875 159.582031 91.988281 L 160.175781 91.636719 L 161.363281 90.9375 L 161.660156 90.761719 C 161.761719 90.703125 161.863281 90.652344 161.964844 90.597656 L 163.804688 89.648438 L 164.113281 89.488281 C 164.214844 89.4375 164.320312 89.390625 164.425781 89.34375 L 165.054688 89.058594 L 166.3125 88.484375 C 173.078125 85.546875 180.476562 84.035156 187.871094 84.03125 C 195.265625 84.03125 202.664062 85.542969 209.425781 88.484375 L 210.6875 89.054688 L 211.316406 89.34375 C 211.417969 89.390625 211.523438 89.433594 211.628906 89.488281 L 211.933594 89.644531 L 213.164062 90.277344 L 213.773438 90.597656 C 213.875 90.652344 213.980469 90.699219 214.078125 90.757812 L 215.566406 91.632812 L 216.160156 91.984375 C 216.257812 92.042969 216.359375 92.097656 216.457031 92.160156 L 216.742188 92.351562 L 217.894531 93.109375 L 218.46875 93.488281 L 218.757812 93.679688 L 219.035156 93.882812 C 222.023438 96.015625 224.796875 98.4375 227.246094 101.144531 C 224.535156 98.699219 221.65625 96.472656 218.582031 94.558594 L 218.296875 94.371094 L 218.007812 94.199219 L 217.421875 93.855469 L 216.253906 93.167969 L 215.964844 92.992188 C 215.867188 92.9375 215.765625 92.886719 215.664062 92.835938 L 213.867188 91.890625 L 213.566406 91.734375 C 213.46875 91.683594 213.363281 91.636719 213.261719 91.589844 L 212.648438 91.300781 L 211.425781 90.726562 L 211.121094 90.582031 C 211.015625 90.535156 210.910156 90.496094 210.808594 90.449219 L 208.621094 89.546875 C 208.515625 89.507812 208.410156 89.472656 208.304688 89.433594 L 207.667969 89.207031 L 206.398438 88.753906 L 206.078125 88.640625 L 205.757812 88.539062 L 205.113281 88.339844 L 203.824219 87.945312 C 203.714844 87.914062 203.609375 87.878906 203.5 87.847656 L 203.175781 87.761719 L 202.519531 87.597656 L 201.214844 87.257812 C 201 87.199219 200.78125 87.152344 200.558594 87.109375 L 199.898438 86.972656 L 198.582031 86.695312 C 198.363281 86.644531 198.136719 86.613281 197.917969 86.578125 L 197.253906 86.472656 L 195.921875 86.253906 L 195.757812 86.226562 L 195.589844 86.207031 L 195.253906 86.171875 L 194.585938 86.09375 L 193.246094 85.941406 C 192.351562 85.867188 191.457031 85.8125 190.5625 85.75 L 187.871094 85.6875 L 185.175781 85.75 C 184.28125 85.8125 183.386719 85.871094 182.492188 85.941406 L 181.152344 86.09375 L 180.484375 86.167969 L 180.148438 86.207031 L 179.984375 86.226562 L 179.816406 86.253906 L 178.488281 86.46875 L 177.820312 86.578125 C 177.601562 86.613281 177.378906 86.640625 177.160156 86.691406 L 175.839844 86.96875 L 175.179688 87.105469 C 174.960938 87.152344 174.738281 87.195312 174.523438 87.257812 L 172.566406 87.761719 L 172.238281 87.84375 C 172.128906 87.875 172.023438 87.910156 171.914062 87.941406 L 169.980469 88.539062 L 169.660156 88.636719 L 169.339844 88.75 L 168.070312 89.203125 L 167.433594 89.429688 C 167.328125 89.46875 167.222656 89.503906 167.117188 89.546875 L 164.929688 90.449219 C 164.828125 90.492188 164.722656 90.53125 164.621094 90.578125 L 164.3125 90.722656 L 163.089844 91.300781 C 162.6875 91.5 162.265625 91.667969 161.871094 91.890625 L 160.675781 92.519531 L 160.074219 92.832031 C 159.976562 92.886719 159.871094 92.9375 159.773438 92.992188 L 159.484375 93.164062 L 158.316406 93.851562 L 157.730469 94.199219 L 157.441406 94.371094 L 157.15625 94.554688 C 154.085938 96.472656 151.203125 98.699219 148.492188 101.144531 " fill-opacity="1" fill-rule="nonzero"/><path fill="#ffffff" d="M 227.246094 179.894531 C 224.796875 182.601562 222.019531 185.023438 219.03125 187.15625 L 218.757812 187.359375 L 218.46875 187.550781 L 217.894531 187.929688 L 216.742188 188.6875 L 216.453125 188.875 C 216.359375 188.9375 216.257812 188.996094 216.160156 189.054688 L 215.566406 189.402344 L 214.078125 190.277344 C 213.980469 190.335938 213.875 190.386719 213.773438 190.441406 L 213.160156 190.761719 L 211.933594 191.394531 L 211.628906 191.550781 C 211.523438 191.601562 211.417969 191.648438 211.3125 191.695312 L 210.683594 191.980469 L 209.425781 192.554688 C 202.660156 195.496094 195.265625 197.003906 187.871094 197.007812 C 180.476562 197.007812 173.078125 195.496094 166.3125 192.554688 L 164.425781 191.699219 C 164.320312 191.648438 164.214844 191.605469 164.113281 191.554688 L 163.804688 191.394531 L 161.964844 190.445312 C 161.863281 190.390625 161.757812 190.339844 161.660156 190.28125 L 161.363281 190.105469 L 160.175781 189.40625 L 159.582031 189.054688 C 159.480469 188.996094 159.382812 188.941406 159.285156 188.878906 L 158.996094 188.6875 L 157.84375 187.929688 L 156.984375 187.363281 L 156.707031 187.15625 C 153.71875 185.023438 150.945312 182.601562 148.492188 179.894531 C 151.203125 182.339844 154.085938 184.566406 157.15625 186.480469 L 157.441406 186.667969 L 157.734375 186.839844 L 158.316406 187.183594 L 159.484375 187.875 L 159.777344 188.046875 C 159.875 188.101562 159.976562 188.152344 160.074219 188.207031 L 160.675781 188.519531 L 161.875 189.148438 L 162.171875 189.304688 C 162.273438 189.359375 162.378906 189.402344 162.480469 189.453125 L 163.089844 189.738281 L 164.316406 190.316406 L 164.621094 190.457031 C 164.722656 190.507812 164.828125 190.546875 164.929688 190.589844 L 165.558594 190.847656 L 166.804688 191.363281 L 167.117188 191.492188 C 167.222656 191.53125 167.328125 191.566406 167.433594 191.605469 L 169.34375 192.285156 L 169.660156 192.398438 L 169.984375 192.5 L 170.628906 192.699219 L 171.917969 193.09375 C 172.023438 193.128906 172.128906 193.164062 172.238281 193.195312 L 173.21875 193.445312 L 174.523438 193.78125 C 174.738281 193.84375 174.960938 193.886719 175.179688 193.933594 L 177.160156 194.34375 C 177.378906 194.394531 177.601562 194.425781 177.820312 194.460938 L 178.488281 194.570312 L 179.816406 194.785156 L 179.984375 194.8125 L 180.148438 194.832031 L 180.484375 194.871094 L 181.152344 194.945312 L 182.492188 195.097656 C 183.386719 195.171875 184.28125 195.226562 185.175781 195.292969 L 187.871094 195.355469 L 190.5625 195.292969 C 191.457031 195.226562 192.351562 195.171875 193.25 195.101562 L 194.585938 194.949219 L 195.589844 194.832031 L 195.757812 194.8125 L 195.921875 194.785156 L 197.253906 194.570312 L 197.917969 194.464844 C 198.140625 194.425781 198.363281 194.398438 198.582031 194.347656 L 199.898438 194.070312 L 200.558594 193.933594 C 200.78125 193.886719 201 193.84375 201.214844 193.78125 L 202.523438 193.445312 L 203.175781 193.28125 L 203.5 193.195312 C 203.609375 193.164062 203.71875 193.128906 203.824219 193.097656 L 205.757812 192.5 L 206.082031 192.402344 L 206.398438 192.289062 L 207.667969 191.835938 L 208.304688 191.609375 C 208.410156 191.570312 208.519531 191.535156 208.625 191.492188 L 208.933594 191.367188 L 210.808594 190.59375 C 210.914062 190.546875 211.019531 190.507812 211.121094 190.460938 L 211.425781 190.316406 L 212.648438 189.738281 C 213.054688 189.542969 213.472656 189.371094 213.867188 189.152344 L 215.066406 188.523438 L 215.664062 188.207031 C 215.765625 188.152344 215.867188 188.105469 215.964844 188.046875 L 216.257812 187.875 L 217.421875 187.1875 L 218.007812 186.84375 L 218.300781 186.667969 L 218.582031 186.484375 C 221.65625 184.566406 224.539062 182.339844 227.246094 179.894531 " fill-opacity="1" fill-rule="nonzero"/><path fill="#ffffff" d="M 155.785156 108.433594 C 156.277344 107.878906 156.789062 107.335938 157.289062 106.78125 C 157.816406 106.253906 158.359375 105.738281 158.894531 105.21875 C 159.027344 105.082031 159.171875 104.964844 159.3125 104.839844 L 160.589844 103.738281 C 160.660156 103.679688 160.730469 103.613281 160.804688 103.554688 L 161.027344 103.382812 L 161.472656 103.042969 L 162.367188 102.355469 C 164.789062 100.574219 167.417969 99.054688 170.183594 97.824219 C 175.714844 95.363281 181.789062 94.085938 187.871094 94.085938 C 193.949219 94.082031 200.027344 95.359375 205.558594 97.820312 C 208.324219 99.050781 210.953125 100.570312 213.375 102.351562 L 214.269531 103.039062 L 214.9375 103.554688 C 215.011719 103.613281 215.078125 103.675781 215.152344 103.738281 L 216.429688 104.839844 C 216.570312 104.960938 216.714844 105.082031 216.84375 105.214844 C 217.382812 105.738281 217.921875 106.253906 218.449219 106.78125 C 218.953125 107.335938 219.460938 107.878906 219.953125 108.433594 C 219.371094 107.96875 218.804688 107.492188 218.230469 107.023438 C 217.644531 106.566406 217.050781 106.125 216.464844 105.679688 C 216.320312 105.5625 216.164062 105.464844 216.011719 105.359375 L 215.554688 105.046875 L 214.644531 104.417969 C 214.570312 104.363281 214.496094 104.3125 214.417969 104.261719 L 214.183594 104.113281 L 213.71875 103.820312 L 212.785156 103.234375 C 210.269531 101.71875 207.632812 100.429688 204.910156 99.390625 C 199.464844 97.3125 193.667969 96.253906 187.871094 96.25 C 182.070312 96.25 176.273438 97.3125 170.828125 99.390625 C 168.105469 100.425781 165.46875 101.714844 162.957031 103.234375 L 162.019531 103.820312 L 161.554688 104.113281 L 161.320312 104.257812 C 161.242188 104.308594 161.167969 104.363281 161.09375 104.414062 L 160.183594 105.042969 L 159.726562 105.359375 C 159.574219 105.460938 159.417969 105.5625 159.273438 105.675781 C 158.6875 106.125 158.09375 106.566406 157.507812 107.023438 C 156.9375 107.492188 156.367188 107.96875 155.785156 108.433594 " fill-opacity="1" fill-rule="nonzero"/><path fill="#ffffff" d="M 219.953125 172.605469 C 219.460938 173.160156 218.953125 173.707031 218.449219 174.257812 C 217.921875 174.785156 217.378906 175.300781 216.84375 175.824219 C 216.710938 175.957031 216.566406 176.078125 216.425781 176.199219 L 216.003906 176.566406 L 215.152344 177.300781 C 215.078125 177.363281 215.007812 177.425781 214.9375 177.484375 L 214.710938 177.65625 L 214.265625 178 L 213.371094 178.683594 C 210.949219 180.46875 208.324219 181.988281 205.558594 183.21875 C 200.027344 185.679688 193.949219 186.953125 187.871094 186.953125 C 181.789062 186.957031 175.710938 185.679688 170.179688 183.21875 C 167.417969 181.988281 164.789062 180.46875 162.367188 178.6875 L 161.472656 178 L 161.027344 177.65625 L 160.800781 177.484375 C 160.730469 177.425781 160.660156 177.363281 160.589844 177.304688 L 159.734375 176.570312 L 159.3125 176.203125 C 159.171875 176.078125 159.027344 175.957031 158.894531 175.824219 C 158.359375 175.300781 157.816406 174.789062 157.289062 174.261719 C 156.785156 173.707031 156.277344 173.160156 155.785156 172.605469 C 156.367188 173.070312 156.9375 173.546875 157.507812 174.019531 C 158.09375 174.472656 158.6875 174.914062 159.277344 175.363281 C 159.421875 175.476562 159.578125 175.574219 159.726562 175.679688 L 160.183594 175.996094 L 161.09375 176.621094 C 161.167969 176.675781 161.242188 176.730469 161.320312 176.777344 L 161.554688 176.925781 L 162.023438 177.21875 L 162.957031 177.804688 C 165.46875 179.320312 168.105469 180.613281 170.832031 181.648438 C 176.273438 183.726562 182.070312 184.789062 187.871094 184.792969 C 193.667969 184.789062 199.464844 183.730469 204.910156 181.648438 C 207.636719 180.613281 210.269531 179.324219 212.785156 177.804688 L 213.71875 177.21875 L 214.1875 176.925781 L 214.421875 176.78125 C 214.496094 176.730469 214.570312 176.675781 214.648438 176.625 L 215.554688 175.996094 L 216.011719 175.683594 C 216.164062 175.578125 216.320312 175.476562 216.464844 175.363281 C 217.050781 174.914062 217.644531 174.472656 218.230469 174.019531 C 218.804688 173.550781 219.371094 173.070312 219.953125 172.605469 " fill-opacity="1" fill-rule="nonzero"/><path fill="#ffffff" d="M 163.078125 115.726562 C 165.910156 112.066406 169.742188 109.117188 174.035156 107.117188 C 178.328125 105.117188 183.097656 104.074219 187.871094 104.074219 C 192.640625 104.070312 197.410156 105.113281 201.707031 107.113281 C 206 109.113281 209.832031 112.0625 212.664062 115.726562 C 212.191406 115.390625 211.730469 115.042969 211.273438 114.699219 L 209.863281 113.71875 C 209.386719 113.40625 208.90625 113.105469 208.429688 112.800781 C 207.945312 112.5 207.453125 112.226562 206.964844 111.941406 C 205 110.835938 202.960938 109.898438 200.867188 109.148438 C 196.683594 107.644531 192.277344 106.878906 187.871094 106.875 C 183.460938 106.875 179.054688 107.640625 174.871094 109.144531 C 172.777344 109.894531 170.738281 110.832031 168.769531 111.9375 C 168.285156 112.222656 167.792969 112.5 167.308594 112.796875 C 166.832031 113.105469 166.351562 113.40625 165.875 113.71875 L 164.464844 114.699219 C 164.007812 115.042969 163.550781 115.390625 163.078125 115.726562 " fill-opacity="1" fill-rule="nonzero"/><path fill="#ffffff" d="M 212.664062 165.3125 C 209.828125 168.976562 205.996094 171.921875 201.707031 173.921875 C 197.410156 175.921875 192.640625 176.964844 187.871094 176.964844 C 183.097656 176.96875 178.328125 175.925781 174.03125 173.925781 C 169.742188 171.925781 165.910156 168.976562 163.078125 165.3125 C 163.550781 165.652344 164.007812 165.996094 164.46875 166.339844 L 165.875 167.320312 C 166.351562 167.632812 166.835938 167.933594 167.3125 168.242188 C 167.792969 168.539062 168.289062 168.8125 168.773438 169.101562 C 170.738281 170.203125 172.777344 171.140625 174.871094 171.890625 C 179.058594 173.398438 183.460938 174.160156 187.871094 174.164062 C 192.277344 174.164062 196.683594 173.402344 200.871094 171.894531 C 202.964844 171.144531 205.003906 170.207031 206.96875 169.101562 C 207.453125 168.816406 207.949219 168.539062 208.429688 168.242188 C 208.90625 167.9375 209.390625 167.636719 209.867188 167.324219 L 211.273438 166.34375 C 211.730469 165.996094 212.191406 165.652344 212.664062 165.3125 " fill-opacity="1" fill-rule="nonzero"/><path fill="#ffffff" d="M 170.367188 123.019531 C 170.59375 122.671875 170.832031 122.332031 171.074219 121.992188 C 171.332031 121.664062 171.597656 121.34375 171.867188 121.019531 C 172.140625 120.707031 172.4375 120.410156 172.726562 120.105469 C 172.871094 119.949219 173.03125 119.816406 173.183594 119.671875 L 173.652344 119.242188 L 173.769531 119.136719 L 174.140625 118.839844 L 174.636719 118.441406 C 174.796875 118.304688 174.976562 118.191406 175.148438 118.066406 L 175.671875 117.703125 C 176.023438 117.460938 176.394531 117.25 176.757812 117.023438 C 176.9375 116.910156 177.128906 116.816406 177.316406 116.710938 L 177.882812 116.410156 C 180.945312 114.867188 184.410156 114.066406 187.871094 114.0625 C 191.332031 114.0625 194.796875 114.863281 197.859375 116.40625 L 198.425781 116.707031 C 198.613281 116.808594 198.804688 116.902344 198.984375 117.019531 L 199.53125 117.351562 C 199.714844 117.464844 199.894531 117.570312 200.070312 117.699219 L 200.59375 118.0625 C 200.765625 118.1875 200.945312 118.300781 201.105469 118.4375 L 201.601562 118.835938 L 201.847656 119.035156 C 201.933594 119.097656 202.011719 119.167969 202.089844 119.242188 L 202.554688 119.667969 L 202.789062 119.882812 C 202.867188 119.953125 202.941406 120.023438 203.015625 120.101562 C 203.304688 120.410156 203.601562 120.703125 203.875 121.019531 C 204.144531 121.339844 204.410156 121.664062 204.664062 121.988281 C 204.90625 122.332031 205.148438 122.671875 205.371094 123.019531 C 205.007812 122.808594 204.660156 122.589844 204.316406 122.375 C 203.964844 122.167969 203.609375 121.96875 203.265625 121.757812 L 202.210938 121.183594 C 201.859375 120.996094 201.5 120.824219 201.152344 120.644531 C 200.796875 120.46875 200.433594 120.3125 200.082031 120.148438 C 199.726562 119.988281 199.363281 119.84375 199.003906 119.691406 C 198.828125 119.609375 198.640625 119.554688 198.460938 119.484375 L 197.917969 119.28125 C 197.742188 119.207031 197.554688 119.152344 197.371094 119.089844 L 196.824219 118.910156 C 193.898438 117.976562 190.886719 117.503906 187.871094 117.5 C 184.851562 117.5 181.839844 117.972656 178.914062 118.902344 C 178.550781 119.03125 178.179688 119.140625 177.820312 119.277344 L 177.277344 119.480469 C 177.097656 119.550781 176.910156 119.605469 176.730469 119.6875 C 176.375 119.839844 176.011719 119.984375 175.65625 120.144531 C 175.300781 120.308594 174.941406 120.464844 174.585938 120.640625 C 174.234375 120.820312 173.878906 120.992188 173.527344 121.179688 L 172.472656 121.757812 C 172.128906 121.964844 171.773438 122.164062 171.421875 122.375 C 171.078125 122.589844 170.730469 122.808594 170.367188 123.019531 " fill-opacity="1" fill-rule="nonzero"/><path fill="#ffffff" d="M 205.371094 158.019531 C 205.144531 158.367188 204.90625 158.707031 204.664062 159.050781 C 204.410156 159.375 204.144531 159.699219 203.871094 160.019531 C 203.597656 160.335938 203.300781 160.628906 203.011719 160.9375 C 202.867188 161.089844 202.707031 161.222656 202.554688 161.367188 L 202.085938 161.796875 L 201.96875 161.902344 L 201.847656 162.003906 L 201.601562 162.199219 L 201.105469 162.597656 C 200.941406 162.734375 200.761719 162.847656 200.589844 162.972656 L 200.066406 163.335938 C 199.714844 163.582031 199.347656 163.792969 198.984375 164.015625 C 198.800781 164.132812 198.609375 164.226562 198.421875 164.328125 L 197.855469 164.628906 C 194.796875 166.171875 191.332031 166.976562 187.871094 166.976562 C 184.410156 166.980469 180.941406 166.175781 177.882812 164.632812 L 177.3125 164.332031 C 177.125 164.230469 176.933594 164.136719 176.753906 164.019531 L 176.207031 163.6875 C 176.027344 163.574219 175.84375 163.46875 175.671875 163.34375 L 175.148438 162.976562 C 174.976562 162.851562 174.796875 162.738281 174.632812 162.601562 L 174.136719 162.203125 L 173.890625 162.003906 C 173.808594 161.941406 173.726562 161.871094 173.648438 161.800781 L 173.183594 161.371094 L 172.953125 161.160156 C 172.871094 161.089844 172.796875 161.015625 172.726562 160.9375 C 172.4375 160.628906 172.140625 160.335938 171.867188 160.019531 C 171.59375 159.699219 171.328125 159.378906 171.074219 159.050781 C 170.832031 158.707031 170.59375 158.371094 170.367188 158.019531 C 170.730469 158.230469 171.078125 158.449219 171.425781 158.664062 C 171.777344 158.875 172.132812 159.074219 172.472656 159.28125 L 173.527344 159.859375 C 173.878906 160.042969 174.238281 160.21875 174.589844 160.394531 C 174.941406 160.570312 175.304688 160.726562 175.65625 160.894531 C 176.015625 161.054688 176.378906 161.199219 176.734375 161.347656 C 176.910156 161.429688 177.097656 161.484375 177.277344 161.558594 L 177.820312 161.761719 C 178 161.832031 178.1875 161.886719 178.367188 161.949219 L 178.914062 162.132812 C 181.839844 163.0625 184.851562 163.539062 187.871094 163.539062 C 190.886719 163.539062 193.898438 163.066406 196.828125 162.136719 C 197.1875 162.007812 197.558594 161.902344 197.921875 161.765625 L 198.464844 161.5625 C 198.644531 161.492188 198.832031 161.433594 199.007812 161.355469 C 199.363281 161.203125 199.726562 161.058594 200.085938 160.898438 C 200.4375 160.730469 200.800781 160.574219 201.152344 160.398438 C 201.503906 160.21875 201.863281 160.046875 202.214844 159.859375 L 203.269531 159.28125 C 203.609375 159.074219 203.964844 158.875 204.316406 158.667969 C 204.660156 158.449219 205.007812 158.230469 205.371094 158.019531 " fill-opacity="1" fill-rule="nonzero"/><g transform="matrix(1, 0, 0, 1, 43, 205)"><g clip-path="url(#f9a18ca790)"><g fill="#f8f9fa" fill-opacity="1"><g transform="translate(0.761993, 60.458421)"><g><path d="M 19.609375 0.75 C 16.140625 0.75 12.785156 0.28125 9.546875 -0.65625 C 6.316406 -1.59375 3.71875 -2.816406 1.75 -4.328125 L 5.203125 -11.96875 C 7.078125 -10.582031 9.304688 -9.472656 11.890625 -8.640625 C 14.484375 -7.804688 17.078125 -7.390625 19.671875 -7.390625 C 22.546875 -7.390625 24.671875 -7.816406 26.046875 -8.671875 C 27.429688 -9.523438 28.125 -10.664062 28.125 -12.09375 C 28.125 -13.132812 27.710938 -14 26.890625 -14.6875 C 26.078125 -15.375 25.035156 -15.925781 23.765625 -16.34375 C 22.492188 -16.757812 20.769531 -17.21875 18.59375 -17.71875 C 15.257812 -18.507812 12.523438 -19.300781 10.390625 -20.09375 C 8.265625 -20.894531 6.4375 -22.171875 4.90625 -23.921875 C 3.382812 -25.671875 2.625 -28.007812 2.625 -30.9375 C 2.625 -33.476562 3.3125 -35.78125 4.6875 -37.84375 C 6.070312 -39.914062 8.148438 -41.554688 10.921875 -42.765625 C 13.703125 -43.984375 17.097656 -44.59375 21.109375 -44.59375 C 23.898438 -44.59375 26.628906 -44.253906 29.296875 -43.578125 C 31.972656 -42.910156 34.316406 -41.953125 36.328125 -40.703125 L 33.1875 -33 C 29.132812 -35.300781 25.085938 -36.453125 21.046875 -36.453125 C 18.203125 -36.453125 16.101562 -35.988281 14.75 -35.0625 C 13.394531 -34.144531 12.71875 -32.9375 12.71875 -31.4375 C 12.71875 -29.9375 13.5 -28.816406 15.0625 -28.078125 C 16.625 -27.347656 19.015625 -26.628906 22.234375 -25.921875 C 25.566406 -25.128906 28.296875 -24.335938 30.421875 -23.546875 C 32.554688 -22.753906 34.382812 -21.5 35.90625 -19.78125 C 37.4375 -18.070312 38.203125 -15.757812 38.203125 -12.84375 C 38.203125 -10.332031 37.5 -8.039062 36.09375 -5.96875 C 34.695312 -3.90625 32.597656 -2.269531 29.796875 -1.0625 C 27.003906 0.144531 23.609375 0.75 19.609375 0.75 Z M 19.609375 0.75 "/></g></g></g><g fill="#f8f9fa" fill-opacity="1"><g transform="translate(53.23542, 60.458421)"><g><path d="M 26.421875 0.75 C 21.878906 0.75 17.78125 -0.226562 14.125 -2.1875 C 10.46875 -4.15625 7.601562 -6.859375 5.53125 -10.296875 C 3.46875 -13.742188 2.4375 -17.617188 2.4375 -21.921875 C 2.4375 -26.222656 3.46875 -30.09375 5.53125 -33.53125 C 7.601562 -36.976562 10.46875 -39.679688 14.125 -41.640625 C 17.78125 -43.609375 21.878906 -44.59375 26.421875 -44.59375 C 30.972656 -44.59375 35.066406 -43.609375 38.703125 -41.640625 C 42.335938 -39.679688 45.195312 -36.976562 47.28125 -33.53125 C 49.363281 -30.09375 50.40625 -26.222656 50.40625 -21.921875 C 50.40625 -17.617188 49.363281 -13.742188 47.28125 -10.296875 C 45.195312 -6.859375 42.335938 -4.15625 38.703125 -2.1875 C 35.066406 -0.226562 30.972656 0.75 26.421875 0.75 Z M 26.421875 -7.890625 C 29.015625 -7.890625 31.351562 -8.484375 33.4375 -9.671875 C 35.53125 -10.859375 37.171875 -12.515625 38.359375 -14.640625 C 39.546875 -16.773438 40.140625 -19.203125 40.140625 -21.921875 C 40.140625 -24.628906 39.546875 -27.046875 38.359375 -29.171875 C 37.171875 -31.304688 35.53125 -32.96875 33.4375 -34.15625 C 31.351562 -35.351562 29.015625 -35.953125 26.421875 -35.953125 C 23.835938 -35.953125 21.5 -35.351562 19.40625 -34.15625 C 17.320312 -32.96875 15.6875 -31.304688 14.5 -29.171875 C 13.3125 -27.046875 12.71875 -24.628906 12.71875 -21.921875 C 12.71875 -19.203125 13.3125 -16.773438 14.5 -14.640625 C 15.6875 -12.515625 17.320312 -10.859375 19.40625 -9.671875 C 21.5 -8.484375 23.835938 -7.890625 26.421875 -7.890625 Z M 26.421875 -7.890625 "/></g></g></g><g fill="#f8f9fa" fill-opacity="1"><g transform="translate(118.607884, 60.458421)"><g><path d="M 45.40625 -43.84375 L 45.40625 0 L 37.078125 0 L 15.21875 -26.609375 L 15.21875 0 L 5.203125 0 L 5.203125 -43.84375 L 13.59375 -43.84375 L 35.390625 -17.21875 L 35.390625 -43.84375 Z M 45.40625 -43.84375 "/></g></g></g><g fill="#f8f9fa" fill-opacity="1"><g transform="translate(181.726145, 60.458421)"><g><path d="M 34.0625 -9.390625 L 13.71875 -9.390625 L 9.828125 0 L -0.5625 0 L 18.96875 -43.84375 L 29 -43.84375 L 48.59375 0 L 37.953125 0 Z M 30.875 -17.09375 L 23.921875 -33.875 L 16.96875 -17.09375 Z M 30.875 -17.09375 "/></g></g></g><g fill="#f8f9fa" fill-opacity="1"><g transform="translate(242.214508, 60.458421)"><g><path d="M 33.125 0 L 24.671875 -12.21875 L 15.34375 -12.21875 L 15.34375 0 L 5.203125 0 L 5.203125 -43.84375 L 24.171875 -43.84375 C 28.054688 -43.84375 31.425781 -43.191406 34.28125 -41.890625 C 37.144531 -40.597656 39.347656 -38.757812 40.890625 -36.375 C 42.441406 -34 43.21875 -31.1875 43.21875 -27.9375 C 43.21875 -24.675781 42.429688 -21.863281 40.859375 -19.5 C 39.296875 -17.144531 37.070312 -15.34375 34.1875 -14.09375 L 44.03125 0 Z M 32.9375 -27.9375 C 32.9375 -30.394531 32.144531 -32.28125 30.5625 -33.59375 C 28.976562 -34.914062 26.660156 -35.578125 23.609375 -35.578125 L 15.34375 -35.578125 L 15.34375 -20.296875 L 23.609375 -20.296875 C 26.660156 -20.296875 28.976562 -20.960938 30.5625 -22.296875 C 32.144531 -23.628906 32.9375 -25.507812 32.9375 -27.9375 Z M 32.9375 -27.9375 "/></g></g></g></g></g><g transform="matrix(1, 0, 0, 1, 89, 275)"><g clip-path="url(#53d30624a0)"><g fill="#f8f9fa" fill-opacity="1"><g transform="translate(0.591936, 20.409967)"><g><path d="M 17.453125 -14.53125 L 17.453125 0 L 15.984375 0 L 15.984375 -11.625 L 10.265625 -1.84375 L 9.546875 -1.84375 L 3.84375 -11.5625 L 3.84375 0 L 2.359375 0 L 2.359375 -14.53125 L 3.625 -14.53125 L 9.9375 -3.75 L 16.1875 -14.53125 Z M 17.453125 -14.53125 "/></g></g></g><g fill="#f8f9fa" fill-opacity="1"><g transform="translate(28.705148, 20.409967)"><g><path d="M 11.46875 -3.875 L 3.375 -3.875 L 1.640625 0 L 0.046875 0 L 6.6875 -14.53125 L 8.203125 -14.53125 L 14.84375 0 L 13.21875 0 Z M 10.921875 -5.125 L 7.421875 -12.921875 L 3.9375 -5.125 Z M 10.921875 -5.125 "/></g></g></g><g fill="#f8f9fa" fill-opacity="1"><g transform="translate(51.880987, 20.409967)"><g><path d="M 12.28125 0 L 8.96875 -4.671875 C 8.59375 -4.628906 8.203125 -4.609375 7.796875 -4.609375 L 3.90625 -4.609375 L 3.90625 0 L 2.359375 0 L 2.359375 -14.53125 L 7.796875 -14.53125 C 9.648438 -14.53125 11.101562 -14.085938 12.15625 -13.203125 C 13.207031 -12.316406 13.734375 -11.097656 13.734375 -9.546875 C 13.734375 -8.410156 13.445312 -7.453125 12.875 -6.671875 C 12.300781 -5.890625 11.484375 -5.328125 10.421875 -4.984375 L 13.96875 0 Z M 7.765625 -5.90625 C 9.203125 -5.90625 10.300781 -6.222656 11.0625 -6.859375 C 11.820312 -7.503906 12.203125 -8.398438 12.203125 -9.546875 C 12.203125 -10.722656 11.820312 -11.625 11.0625 -12.25 C 10.300781 -12.882812 9.203125 -13.203125 7.765625 -13.203125 L 3.90625 -13.203125 L 3.90625 -5.90625 Z M 7.765625 -5.90625 "/></g></g></g><g fill="#f8f9fa" fill-opacity="1"><g transform="translate(75.181299, 20.409967)"><g><path d="M 6.875 -6.828125 L 3.90625 -3.8125 L 3.90625 0 L 2.359375 0 L 2.359375 -14.53125 L 3.90625 -14.53125 L 3.90625 -5.75 L 12.421875 -14.53125 L 14.1875 -14.53125 L 7.90625 -7.953125 L 14.625 0 L 12.796875 0 Z M 6.875 -6.828125 "/></g></g></g><g fill="#f8f9fa" fill-opacity="1"><g transform="translate(98.232664, 20.409967)"><g><path d="M 12.640625 -1.328125 L 12.640625 0 L 2.359375 0 L 2.359375 -14.53125 L 12.328125 -14.53125 L 12.328125 -13.203125 L 3.90625 -13.203125 L 3.90625 -8.03125 L 11.40625 -8.03125 L 11.40625 -6.71875 L 3.90625 -6.71875 L 3.90625 -1.328125 Z M 12.640625 -1.328125 "/></g></g></g><g fill="#f8f9fa" fill-opacity="1"><g transform="translate(120.412727, 20.409967)"><g><path d="M 5.1875 -13.203125 L 0.078125 -13.203125 L 0.078125 -14.53125 L 11.828125 -14.53125 L 11.828125 -13.203125 L 6.71875 -13.203125 L 6.71875 0 L 5.1875 0 Z M 5.1875 -13.203125 "/></g></g></g><g fill="#f8f9fa" fill-opacity="1"><g transform="translate(140.621991, 20.409967)"><g><path d="M 2.359375 -14.53125 L 3.90625 -14.53125 L 3.90625 0 L 2.359375 0 Z M 2.359375 -14.53125 "/></g></g></g><g fill="#f8f9fa" fill-opacity="1"><g transform="translate(155.18853, 20.409967)"><g><path d="M 14.5 -14.53125 L 14.5 0 L 13.234375 0 L 3.90625 -11.78125 L 3.90625 0 L 2.359375 0 L 2.359375 -14.53125 L 3.625 -14.53125 L 12.984375 -2.734375 L 12.984375 -14.53125 Z M 14.5 -14.53125 "/></g></g></g><g fill="#f8f9fa" fill-opacity="1"><g transform="translate(180.355911, 20.409967)"><g><path d="M 12.59375 -7.265625 L 14.0625 -7.265625 L 14.0625 -1.71875 C 13.382812 -1.125 12.582031 -0.664062 11.65625 -0.34375 C 10.726562 -0.03125 9.753906 0.125 8.734375 0.125 C 7.285156 0.125 5.976562 -0.191406 4.8125 -0.828125 C 3.65625 -1.460938 2.742188 -2.34375 2.078125 -3.46875 C 1.410156 -4.601562 1.078125 -5.867188 1.078125 -7.265625 C 1.078125 -8.660156 1.410156 -9.921875 2.078125 -11.046875 C 2.742188 -12.171875 3.65625 -13.050781 4.8125 -13.6875 C 5.976562 -14.332031 7.289062 -14.65625 8.75 -14.65625 C 9.863281 -14.65625 10.882812 -14.476562 11.8125 -14.125 C 12.738281 -13.769531 13.519531 -13.242188 14.15625 -12.546875 L 13.203125 -11.578125 C 12.046875 -12.710938 10.582031 -13.28125 8.8125 -13.28125 C 7.644531 -13.28125 6.585938 -13.019531 5.640625 -12.5 C 4.691406 -11.976562 3.945312 -11.257812 3.40625 -10.34375 C 2.863281 -9.425781 2.59375 -8.398438 2.59375 -7.265625 C 2.59375 -6.128906 2.863281 -5.101562 3.40625 -4.1875 C 3.945312 -3.28125 4.6875 -2.5625 5.625 -2.03125 C 6.5625 -1.507812 7.617188 -1.25 8.796875 -1.25 C 10.285156 -1.25 11.550781 -1.617188 12.59375 -2.359375 Z M 12.59375 -7.265625 "/></g></g></g></g></g></svg>