<svg xmlns="http://www.w3.org/2000/svg" xmlns:xlink="http://www.w3.org/1999/xlink" width="500" zoomAndPan="magnify" viewBox="0 0 375 374.999991" height="500" preserveAspectRatio="xMidYMid meet" version="1.0"><defs><clipPath id="bbfef140c3"><path d="M 293.386719 81.667969 L 338.234375 81.667969 L 338.234375 292.792969 L 293.386719 292.792969 Z M 293.386719 81.667969 " clip-rule="nonzero"/></clipPath><clipPath id="2aabb1feaf"><path d="M 37.5 81.667969 L 82.613281 81.667969 L 82.613281 292.792969 L 37.5 292.792969 Z M 37.5 81.667969 " clip-rule="nonzero"/></clipPath><clipPath id="e83f562494"><path d="M 33.457031 37.234375 L 341.707031 37.234375 L 341.707031 337.234375 L 33.457031 337.234375 Z M 33.457031 37.234375 " clip-rule="nonzero"/></clipPath><clipPath id="47753719bf"><path d="M 0.773438 0.234375 L 308.234375 0.234375 L 308.234375 300.234375 L 0.773438 300.234375 Z M 0.773438 0.234375 " clip-rule="nonzero"/></clipPath><clipPath id="c5387f1ab1"><rect x="0" width="309" y="0" height="301"/></clipPath><clipPath id="19fbe74941"><path d="M 81.929688 37.136719 L 293.054688 37.136719 L 293.054688 81.984375 L 81.929688 81.984375 Z M 81.929688 37.136719 " clip-rule="nonzero"/></clipPath><clipPath id="5f38109b80"><path d="M 81.929688 293 L 293.054688 293 L 293.054688 337.875 L 81.929688 337.875 Z M 81.929688 293 " clip-rule="nonzero"/></clipPath></defs><g clip-path="url(#bbfef140c3)"><path fill="#ffffff" d="M 293.429688 81.667969 C 300.511719 88.402344 306.886719 95.90625 312.464844 103.972656 C 315.246094 108.007812 317.820312 112.195312 320.191406 116.496094 C 322.558594 120.792969 324.6875 125.230469 326.605469 129.753906 C 330.457031 138.800781 333.332031 148.257812 335.300781 157.898438 C 337.246094 167.542969 338.210938 177.386719 338.234375 187.230469 C 338.214844 197.074219 337.242188 206.917969 335.304688 216.566406 C 334.324219 221.386719 333.105469 226.160156 331.660156 230.859375 C 330.933594 233.207031 330.160156 235.542969 329.316406 237.851562 C 328.46875 240.160156 327.570312 242.445312 326.609375 244.710938 C 324.6875 249.230469 322.5625 253.667969 320.191406 257.96875 C 317.828125 262.269531 315.25 266.453125 312.46875 270.492188 C 306.886719 278.558594 300.515625 286.058594 293.429688 292.792969 C 300.152344 285.699219 306.25 278.042969 311.527344 269.863281 C 314.175781 265.78125 316.628906 261.574219 318.859375 257.257812 C 321.09375 252.941406 323.140625 248.53125 324.949219 244.023438 C 325.855469 241.773438 326.703125 239.496094 327.496094 237.203125 C 328.296875 234.914062 329.039062 232.605469 329.726562 230.277344 C 331.105469 225.625 332.25 220.90625 333.164062 216.140625 C 335.011719 206.621094 335.949219 196.925781 335.933594 187.230469 C 335.953125 177.535156 335.007812 167.839844 333.167969 158.320312 C 331.347656 148.789062 328.558594 139.449219 324.953125 130.4375 C 323.144531 125.929688 321.097656 121.519531 318.863281 117.203125 C 316.632812 112.886719 314.179688 108.679688 311.53125 104.597656 C 306.25 96.417969 300.152344 88.757812 293.429688 81.667969 " fill-opacity="1" fill-rule="nonzero"/></g><g clip-path="url(#2aabb1feaf)"><path fill="#ffffff" d="M 82.304688 292.792969 C 75.222656 286.058594 68.847656 278.554688 63.269531 270.488281 C 60.488281 266.453125 57.914062 262.269531 55.542969 257.96875 C 53.175781 253.667969 51.046875 249.230469 49.128906 244.707031 C 45.277344 235.664062 42.402344 226.203125 40.433594 216.5625 C 38.488281 206.917969 37.523438 197.074219 37.5 187.230469 C 37.519531 177.386719 38.492188 167.542969 40.433594 157.898438 C 41.414062 153.074219 42.628906 148.304688 44.074219 143.601562 C 44.796875 141.253906 45.574219 138.917969 46.417969 136.609375 C 47.265625 134.300781 48.164062 132.015625 49.125 129.753906 C 51.046875 125.230469 53.171875 120.792969 55.542969 116.492188 C 57.910156 112.191406 60.484375 108.007812 63.265625 103.96875 C 68.847656 95.90625 75.21875 88.402344 82.304688 81.667969 C 75.582031 88.761719 69.484375 96.417969 64.207031 104.597656 C 61.558594 108.679688 59.105469 112.886719 56.871094 117.203125 C 54.640625 121.519531 52.59375 125.929688 50.785156 130.4375 C 49.878906 132.691406 49.03125 134.964844 48.238281 137.257812 C 47.441406 139.550781 46.695312 141.859375 46.007812 144.183594 C 44.632812 148.835938 43.484375 153.554688 42.570312 158.320312 C 40.722656 167.839844 39.785156 177.535156 39.800781 187.230469 C 39.78125 196.925781 40.726562 206.621094 42.566406 216.144531 C 44.386719 225.671875 47.175781 235.011719 50.785156 244.023438 C 52.589844 248.53125 54.636719 252.941406 56.871094 257.261719 C 59.101562 261.578125 61.554688 265.78125 64.203125 269.863281 C 69.484375 278.046875 75.582031 285.703125 82.304688 292.792969 " fill-opacity="1" fill-rule="nonzero"/></g><path fill="#ffffff" d="M 276.933594 98.164062 C 283.050781 103.710938 288.53125 109.984375 293.355469 116.742188 L 293.816406 117.367188 L 294.25 118.015625 L 295.105469 119.320312 L 296.820312 121.921875 L 297.246094 122.574219 C 297.386719 122.792969 297.511719 123.019531 297.648438 123.242188 L 298.4375 124.585938 L 300.023438 127.277344 L 300.417969 127.949219 C 300.550781 128.171875 300.664062 128.40625 300.785156 128.636719 L 301.507812 130.023438 L 302.9375 132.800781 L 303.296875 133.496094 C 303.414062 133.726562 303.515625 133.964844 303.625 134.203125 L 304.273438 135.625 L 305.566406 138.472656 C 312.214844 153.773438 315.632812 170.503906 315.640625 187.230469 C 315.640625 203.957031 312.222656 220.691406 305.570312 235.992188 L 304.277344 238.839844 L 303.628906 240.261719 C 303.519531 240.496094 303.417969 240.738281 303.300781 240.96875 L 302.941406 241.664062 L 301.511719 244.441406 L 300.792969 245.828125 C 300.667969 246.054688 300.554688 246.289062 300.425781 246.515625 L 298.445312 249.878906 L 297.652344 251.222656 C 297.519531 251.445312 297.390625 251.671875 297.25 251.890625 L 296.824219 252.542969 L 295.109375 255.144531 L 294.25 256.445312 L 293.820312 257.097656 L 293.359375 257.722656 C 288.53125 264.480469 283.054688 270.753906 276.933594 276.296875 C 282.460938 270.167969 287.5 263.648438 291.832031 256.699219 L 292.25 256.058594 L 293.421875 254.078125 L 294.980469 251.4375 L 295.367188 250.777344 C 295.496094 250.554688 295.609375 250.328125 295.730469 250.101562 L 297.863281 246.03125 L 298.21875 245.355469 C 298.335938 245.128906 298.4375 244.894531 298.546875 244.664062 L 299.195312 243.277344 L 300.5 240.511719 L 300.824219 239.820312 C 300.933594 239.589844 301.023438 239.347656 301.121094 239.117188 L 301.703125 237.703125 L 302.871094 234.878906 L 303.164062 234.171875 C 303.253906 233.933594 303.335938 233.695312 303.421875 233.453125 L 303.933594 232.015625 L 304.957031 229.136719 L 305.214844 228.421875 L 305.441406 227.691406 L 305.890625 226.234375 L 306.789062 223.316406 C 306.863281 223.074219 306.941406 222.832031 307.011719 222.589844 L 307.199219 221.847656 L 307.578125 220.371094 L 308.34375 217.417969 C 308.480469 216.929688 308.582031 216.429688 308.683594 215.933594 L 308.992188 214.441406 L 309.617188 211.457031 C 309.730469 210.960938 309.796875 210.457031 309.878906 209.957031 L 310.121094 208.453125 L 310.613281 205.445312 L 310.675781 205.070312 L 310.804688 203.933594 L 310.976562 202.421875 L 311.320312 199.394531 C 311.484375 197.371094 311.609375 195.34375 311.757812 193.320312 L 311.898438 187.230469 L 311.757812 181.140625 C 311.613281 179.117188 311.484375 177.089844 311.324219 175.066406 L 310.980469 172.039062 L 310.808594 170.527344 L 310.71875 169.769531 L 310.675781 169.390625 L 310.613281 169.015625 L 310.125 166.007812 L 309.882812 164.503906 C 309.800781 164 309.734375 163.5 309.621094 163.003906 L 308.996094 160.019531 L 308.6875 158.527344 C 308.582031 158.027344 308.484375 157.53125 308.34375 157.042969 L 307.582031 154.089844 L 307.203125 152.613281 L 307.015625 151.871094 C 306.945312 151.628906 306.867188 151.386719 306.792969 151.144531 L 305.894531 148.226562 L 305.445312 146.769531 L 305.222656 146.039062 L 304.964844 145.320312 L 303.9375 142.445312 L 303.425781 141.007812 C 303.339844 140.765625 303.261719 140.523438 303.167969 140.289062 L 302.875 139.582031 L 301.710938 136.757812 L 301.125 135.34375 C 301.027344 135.109375 300.9375 134.871094 300.828125 134.640625 L 300.503906 133.949219 L 299.199219 131.183594 C 298.75 130.265625 298.367188 129.316406 297.867188 128.425781 L 295.734375 124.359375 C 295.613281 124.132812 295.5 123.902344 295.375 123.683594 L 294.984375 123.023438 L 293.425781 120.382812 L 292.253906 118.402344 L 291.835938 117.757812 C 287.5 110.808594 282.460938 104.289062 276.933594 98.164062 " fill-opacity="1" fill-rule="nonzero"/><path fill="#ffffff" d="M 98.800781 276.296875 C 92.683594 270.753906 87.203125 264.480469 82.378906 257.71875 L 81.917969 257.09375 L 81.488281 256.445312 L 80.628906 255.144531 L 78.917969 252.539062 L 78.488281 251.886719 C 78.347656 251.667969 78.222656 251.441406 78.085938 251.21875 L 77.296875 249.875 L 75.316406 246.511719 C 75.183594 246.289062 75.070312 246.054688 74.949219 245.824219 L 74.226562 244.4375 L 72.796875 241.660156 L 72.4375 240.96875 C 72.320312 240.734375 72.21875 240.496094 72.109375 240.257812 L 71.460938 238.835938 L 70.167969 235.988281 C 63.519531 220.6875 60.101562 203.957031 60.09375 187.230469 C 60.09375 170.503906 63.515625 153.769531 70.164062 138.46875 L 71.457031 135.625 L 72.105469 134.199219 C 72.214844 133.964844 72.316406 133.722656 72.433594 133.492188 L 72.792969 132.796875 L 74.222656 130.019531 L 74.941406 128.636719 C 75.066406 128.40625 75.179688 128.171875 75.308594 127.945312 L 75.707031 127.273438 L 77.289062 124.585938 L 78.082031 123.242188 C 78.21875 123.019531 78.34375 122.792969 78.484375 122.570312 L 78.914062 121.917969 L 80.625 119.316406 L 81.914062 117.367188 L 82.375 116.738281 C 87.203125 109.980469 92.683594 103.707031 98.800781 98.164062 C 93.273438 104.292969 88.238281 110.8125 83.902344 117.761719 L 83.484375 118.402344 L 82.3125 120.382812 L 80.753906 123.023438 L 80.367188 123.683594 C 80.238281 123.90625 80.125 124.132812 80.007812 124.359375 L 79.292969 125.71875 L 77.871094 128.429688 L 77.515625 129.105469 C 77.398438 129.332031 77.296875 129.566406 77.1875 129.796875 L 76.539062 131.183594 L 75.234375 133.949219 L 74.910156 134.640625 C 74.800781 134.871094 74.710938 135.113281 74.613281 135.34375 L 74.03125 136.757812 L 72.863281 139.582031 L 72.570312 140.289062 C 72.480469 140.527344 72.398438 140.769531 72.3125 141.007812 L 71.800781 142.445312 L 70.777344 145.324219 L 70.519531 146.039062 L 70.292969 146.769531 L 69.84375 148.230469 L 68.945312 151.144531 C 68.871094 151.386719 68.792969 151.628906 68.722656 151.875 L 68.15625 154.089844 L 67.394531 157.042969 C 67.253906 157.53125 67.15625 158.03125 67.050781 158.527344 L 66.742188 160.019531 L 66.121094 163.003906 C 66.003906 163.5 65.9375 164.003906 65.855469 164.503906 L 65.613281 166.007812 L 65.121094 169.015625 L 65.0625 169.390625 L 65.015625 169.769531 L 64.929688 170.527344 L 64.757812 172.039062 L 64.414062 175.066406 C 64.25 177.089844 64.125 179.117188 63.976562 181.140625 L 63.835938 187.230469 L 63.976562 193.320312 C 64.125 195.34375 64.25 197.371094 64.410156 199.398438 L 64.757812 202.421875 L 65.015625 204.691406 L 65.058594 205.070312 L 65.121094 205.449219 L 65.609375 208.453125 L 65.851562 209.960938 C 65.933594 210.460938 66 210.964844 66.113281 211.460938 L 66.738281 214.441406 L 67.046875 215.933594 C 67.152344 216.433594 67.25 216.929688 67.390625 217.417969 L 68.152344 220.371094 L 68.527344 221.851562 L 68.71875 222.589844 C 68.789062 222.832031 68.867188 223.074219 68.941406 223.320312 L 70.289062 227.691406 L 70.515625 228.421875 L 70.769531 229.140625 L 71.796875 232.015625 L 72.308594 233.457031 C 72.394531 233.695312 72.476562 233.9375 72.566406 234.175781 L 72.859375 234.878906 L 74.023438 237.703125 L 74.609375 239.117188 C 74.707031 239.351562 74.796875 239.589844 74.902344 239.820312 L 75.230469 240.511719 L 76.535156 243.28125 C 76.984375 244.195312 77.367188 245.144531 77.867188 246.035156 L 79.289062 248.746094 L 80 250.105469 C 80.121094 250.328125 80.234375 250.558594 80.363281 250.78125 L 80.75 251.4375 L 82.308594 254.078125 L 83.480469 256.058594 L 83.898438 256.703125 C 88.234375 263.652344 93.273438 270.171875 98.800781 276.296875 " fill-opacity="1" fill-rule="nonzero"/><path fill="#ffffff" d="M 260.441406 114.65625 C 261.695312 115.773438 262.933594 116.921875 264.183594 118.0625 C 265.378906 119.253906 266.539062 120.480469 267.722656 121.695312 C 268.023438 121.992188 268.292969 122.320312 268.574219 122.636719 L 269.40625 123.597656 L 271.066406 125.523438 C 271.203125 125.6875 271.347656 125.84375 271.476562 126.007812 L 271.867188 126.511719 L 272.640625 127.523438 L 274.195312 129.542969 C 278.226562 135.023438 281.664062 140.96875 284.445312 147.222656 C 290.011719 159.734375 292.898438 173.480469 292.902344 187.230469 C 292.90625 200.980469 290.015625 214.730469 284.453125 227.242188 C 281.667969 233.496094 278.230469 239.441406 274.199219 244.921875 L 272.644531 246.941406 L 271.871094 247.953125 L 271.484375 248.457031 C 271.347656 248.621094 271.207031 248.777344 271.070312 248.941406 L 269.410156 250.871094 L 268.578125 251.828125 C 268.296875 252.148438 268.027344 252.472656 267.726562 252.769531 C 266.539062 253.984375 265.378906 255.210938 264.183594 256.402344 C 262.933594 257.539062 261.699219 258.6875 260.441406 259.804688 C 261.496094 258.488281 262.578125 257.199219 263.636719 255.90625 C 264.667969 254.578125 265.664062 253.234375 266.675781 251.910156 C 266.9375 251.582031 267.160156 251.230469 267.398438 250.882812 L 268.109375 249.851562 L 269.53125 247.796875 C 269.648438 247.625 269.769531 247.457031 269.882812 247.28125 L 270.214844 246.753906 L 270.878906 245.695312 L 272.203125 243.582031 C 275.632812 237.894531 278.554688 231.933594 280.894531 225.773438 C 285.597656 213.457031 288 200.347656 288.007812 187.230469 C 288.003906 174.113281 285.601562 161.003906 280.902344 148.683594 C 278.558594 142.523438 275.640625 136.5625 272.207031 130.875 L 270.882812 128.761719 L 270.21875 127.707031 L 269.886719 127.175781 C 269.773438 127 269.652344 126.832031 269.535156 126.660156 L 268.113281 124.605469 L 267.402344 123.574219 C 267.164062 123.230469 266.9375 122.878906 266.679688 122.550781 C 265.667969 121.222656 264.667969 119.878906 263.636719 118.554688 C 262.578125 117.261719 261.5 115.976562 260.441406 114.65625 " fill-opacity="1" fill-rule="nonzero"/><path fill="#ffffff" d="M 115.292969 259.804688 C 114.035156 258.6875 112.804688 257.539062 111.550781 256.398438 C 110.359375 255.207031 109.195312 253.980469 108.011719 252.765625 C 107.710938 252.46875 107.441406 252.144531 107.160156 251.828125 L 106.332031 250.867188 L 104.667969 248.9375 C 104.53125 248.777344 104.390625 248.617188 104.257812 248.453125 L 103.867188 247.949219 L 103.09375 246.941406 L 101.539062 244.917969 C 97.507812 239.4375 94.070312 233.492188 91.289062 227.238281 C 85.722656 214.730469 82.835938 200.980469 82.835938 187.230469 C 82.828125 173.480469 85.71875 159.730469 91.28125 147.21875 C 94.066406 140.964844 97.503906 135.019531 101.535156 129.542969 L 103.089844 127.519531 L 103.863281 126.511719 L 104.253906 126.003906 C 104.386719 125.839844 104.527344 125.683594 104.664062 125.519531 L 106.324219 123.59375 L 107.15625 122.632812 C 107.4375 122.316406 107.707031 121.992188 108.011719 121.691406 C 109.195312 120.476562 110.355469 119.25 111.550781 118.058594 C 112.804688 116.921875 114.035156 115.773438 115.292969 114.65625 C 114.238281 115.976562 113.160156 117.261719 112.097656 118.558594 C 111.070312 119.882812 110.070312 121.226562 109.058594 122.554688 C 108.800781 122.878906 108.574219 123.230469 108.335938 123.578125 L 107.625 124.609375 L 106.203125 126.664062 C 106.085938 126.835938 105.964844 127.003906 105.851562 127.179688 L 105.519531 127.707031 L 104.859375 128.765625 L 103.535156 130.878906 C 100.101562 136.566406 97.183594 142.527344 94.839844 148.6875 C 90.136719 161.003906 87.734375 174.113281 87.726562 187.230469 C 87.730469 200.347656 90.132812 213.457031 94.832031 225.777344 C 97.175781 231.941406 100.09375 237.898438 103.527344 243.585938 L 104.851562 245.699219 L 105.515625 246.753906 L 105.847656 247.285156 C 105.960938 247.460938 106.082031 247.628906 106.199219 247.800781 L 107.621094 249.855469 L 108.332031 250.886719 C 108.570312 251.230469 108.796875 251.585938 109.054688 251.910156 C 110.066406 253.238281 111.066406 254.582031 112.097656 255.90625 C 113.15625 257.203125 114.238281 258.488281 115.292969 259.804688 " fill-opacity="1" fill-rule="nonzero"/><path fill="#ffffff" d="M 243.949219 131.152344 C 252.230469 137.5625 258.894531 146.226562 263.421875 155.933594 C 267.945312 165.652344 270.304688 176.441406 270.304688 187.230469 C 270.3125 198.023438 267.953125 208.8125 263.429688 218.53125 C 258.90625 228.238281 252.238281 236.90625 243.949219 243.308594 C 244.710938 242.242188 245.496094 241.203125 246.273438 240.167969 L 248.488281 236.980469 C 249.195312 235.902344 249.875 234.808594 250.570312 233.734375 C 251.242188 232.644531 251.867188 231.523438 252.511719 230.425781 C 255.011719 225.980469 257.128906 221.367188 258.824219 216.632812 C 262.234375 207.164062 263.960938 197.199219 263.972656 187.230469 C 263.972656 177.261719 262.242188 167.296875 258.832031 157.828125 C 257.136719 153.089844 255.015625 148.476562 252.519531 144.03125 C 251.871094 142.933594 251.246094 141.8125 250.574219 140.722656 C 249.878906 139.648438 249.199219 138.554688 248.492188 137.476562 L 246.273438 134.292969 C 245.496094 133.257812 244.710938 132.21875 243.949219 131.152344 " fill-opacity="1" fill-rule="nonzero"/><path fill="#ffffff" d="M 131.789062 243.308594 C 123.503906 236.898438 116.839844 228.234375 112.3125 218.527344 C 107.789062 208.8125 105.429688 198.023438 105.429688 187.230469 C 105.421875 176.441406 107.78125 165.648438 112.304688 155.929688 C 116.828125 146.222656 123.496094 137.554688 131.789062 131.152344 C 131.023438 132.21875 130.238281 133.257812 129.460938 134.296875 L 127.246094 137.480469 C 126.539062 138.558594 125.859375 139.652344 125.164062 140.726562 C 124.492188 141.816406 123.867188 142.9375 123.222656 144.035156 C 120.726562 148.484375 118.605469 153.09375 116.910156 157.832031 C 113.503906 167.296875 111.773438 177.261719 111.761719 187.230469 C 111.765625 197.203125 113.492188 207.167969 116.902344 216.632812 C 118.597656 221.371094 120.714844 225.984375 123.214844 230.433594 C 123.863281 231.527344 124.488281 232.648438 125.160156 233.738281 C 125.855469 234.8125 126.53125 235.90625 127.242188 236.984375 L 129.460938 240.167969 C 130.238281 241.203125 131.023438 242.242188 131.789062 243.308594 " fill-opacity="1" fill-rule="nonzero"/><path fill="#ffffff" d="M 227.453125 147.644531 C 228.242188 148.152344 229.007812 148.695312 229.777344 149.242188 C 230.519531 149.820312 231.246094 150.421875 231.972656 151.03125 C 232.6875 151.65625 233.351562 152.324219 234.046875 152.980469 C 234.398438 153.304688 234.699219 153.667969 235.027344 154.015625 L 235.992188 155.070312 L 236.234375 155.335938 L 236.90625 156.175781 L 237.804688 157.296875 C 238.117188 157.664062 238.371094 158.070312 238.652344 158.457031 L 239.480469 159.640625 C 240.03125 160.433594 240.507812 161.269531 241.015625 162.09375 C 241.277344 162.5 241.484375 162.9375 241.71875 163.359375 L 242.398438 164.644531 C 245.894531 171.566406 247.707031 179.402344 247.710938 187.230469 C 247.714844 195.058594 245.902344 202.898438 242.410156 209.820312 L 241.730469 211.105469 C 241.496094 211.53125 241.285156 211.964844 241.027344 212.375 L 240.269531 213.609375 C 240.015625 214.019531 239.773438 214.433594 239.488281 214.824219 L 238.660156 216.007812 C 238.382812 216.398438 238.128906 216.800781 237.816406 217.171875 L 236.914062 218.292969 L 236.464844 218.851562 C 236.320312 219.039062 236.167969 219.222656 236 219.394531 L 235.03125 220.449219 L 234.550781 220.976562 C 234.394531 221.152344 234.230469 221.324219 234.054688 221.488281 C 233.359375 222.140625 232.691406 222.8125 231.976562 223.433594 C 231.25 224.042969 230.523438 224.644531 229.78125 225.21875 C 229.007812 225.765625 228.242188 226.308594 227.453125 226.816406 C 227.925781 225.996094 228.421875 225.210938 228.910156 224.429688 C 229.382812 223.632812 229.832031 222.832031 230.304688 222.058594 L 231.609375 219.671875 C 232.03125 218.875 232.421875 218.066406 232.824219 217.273438 C 233.222656 216.472656 233.574219 215.652344 233.949219 214.855469 C 234.3125 214.046875 234.636719 213.226562 234.980469 212.417969 C 235.164062 212.019531 235.289062 211.59375 235.453125 211.1875 L 235.910156 209.960938 C 236.078125 209.558594 236.195312 209.136719 236.335938 208.722656 L 236.75 207.488281 C 238.855469 200.867188 239.929688 194.054688 239.9375 187.230469 C 239.9375 180.40625 238.867188 173.589844 236.761719 166.972656 C 236.472656 166.15625 236.230469 165.3125 235.921875 164.496094 L 235.460938 163.269531 C 235.300781 162.859375 235.171875 162.4375 234.992188 162.039062 C 234.648438 161.230469 234.320312 160.410156 233.960938 159.601562 C 233.585938 158.800781 233.226562 157.984375 232.832031 157.183594 C 232.429688 156.390625 232.035156 155.582031 231.617188 154.785156 L 230.308594 152.402344 C 229.835938 151.628906 229.386719 150.824219 228.914062 150.03125 C 228.421875 149.25 227.925781 148.464844 227.453125 147.644531 " fill-opacity="1" fill-rule="nonzero"/><path fill="#ffffff" d="M 148.28125 226.816406 C 147.496094 226.308594 146.730469 225.765625 145.957031 225.21875 C 145.214844 224.640625 144.488281 224.039062 143.761719 223.429688 C 143.046875 222.808594 142.382812 222.136719 141.6875 221.480469 C 141.335938 221.15625 141.035156 220.792969 140.707031 220.445312 L 139.742188 219.390625 L 139.5 219.125 L 139.277344 218.847656 L 138.828125 218.285156 L 137.929688 217.164062 C 137.617188 216.796875 137.363281 216.394531 137.082031 216.003906 L 136.253906 214.820312 C 135.707031 214.027344 135.230469 213.191406 134.71875 212.371094 C 134.460938 211.960938 134.25 211.523438 134.015625 211.101562 L 133.335938 209.816406 C 129.839844 202.894531 128.027344 195.058594 128.023438 187.230469 C 128.019531 179.402344 129.832031 171.5625 133.324219 164.640625 L 134.003906 163.355469 C 134.238281 162.929688 134.449219 162.496094 134.707031 162.085938 L 135.464844 160.851562 C 135.71875 160.441406 135.960938 160.027344 136.246094 159.636719 L 137.074219 158.453125 C 137.351562 158.066406 137.605469 157.660156 137.921875 157.289062 L 138.820312 156.167969 L 139.269531 155.609375 C 139.414062 155.421875 139.566406 155.242188 139.734375 155.066406 L 140.703125 154.011719 L 141.183594 153.484375 C 141.34375 153.308594 141.503906 153.136719 141.679688 152.976562 C 142.378906 152.320312 143.042969 151.648438 143.757812 151.03125 C 144.484375 150.417969 145.210938 149.816406 145.953125 149.242188 C 146.726562 148.695312 147.492188 148.152344 148.28125 147.644531 C 147.808594 148.46875 147.3125 149.253906 146.824219 150.03125 C 146.355469 150.828125 145.902344 151.628906 145.433594 152.40625 L 144.125 154.789062 C 143.703125 155.585938 143.3125 156.398438 142.910156 157.191406 C 142.511719 157.988281 142.15625 158.808594 141.785156 159.605469 C 141.421875 160.414062 141.097656 161.238281 140.753906 162.042969 C 140.574219 162.441406 140.445312 162.867188 140.28125 163.273438 L 139.824219 164.5 C 139.65625 164.902344 139.539062 165.328125 139.398438 165.738281 L 138.984375 166.976562 C 136.878906 173.59375 135.804688 180.40625 135.796875 187.230469 C 135.796875 194.054688 136.871094 200.871094 138.972656 207.492188 C 139.261719 208.308594 139.503906 209.148438 139.8125 209.964844 L 140.273438 211.191406 C 140.433594 211.601562 140.5625 212.023438 140.742188 212.421875 C 141.085938 213.230469 141.414062 214.050781 141.777344 214.859375 C 142.148438 215.660156 142.507812 216.476562 142.902344 217.277344 C 143.304688 218.070312 143.699219 218.878906 144.121094 219.675781 L 145.425781 222.058594 C 145.898438 222.835938 146.347656 223.636719 146.820312 224.433594 C 147.3125 225.210938 147.808594 225.996094 148.28125 226.816406 " fill-opacity="1" fill-rule="nonzero"/><g clip-path="url(#e83f562494)"><g transform="matrix(1, 0, 0, 1, 33, 37)"><g clip-path="url(#c5387f1ab1)"><g clip-path="url(#47753719bf)"><path fill="#ffffff" d="M 10.960938 148.875 C 10.980469 133.417969 13.34375 118.011719 18.078125 103.292969 C 22.625 89.164062 29.316406 75.746094 37.84375 63.59375 C 46.308594 51.523438 56.578125 40.71875 68.203125 31.644531 C 79.867188 22.542969 92.878906 15.191406 106.703125 9.925781 C 110.257812 8.570312 113.875 7.347656 117.53125 6.285156 C 117.722656 6.226562 117.917969 6.175781 118.109375 6.117188 C 116.839844 6.488281 112.792969 7.480469 114.238281 7.15625 C 113.761719 7.265625 114.082031 7.199219 114.351562 7.136719 C 115.289062 6.910156 116.226562 6.6875 117.171875 6.476562 C 119.082031 6.050781 121.007812 5.664062 122.9375 5.316406 C 130.632812 3.933594 138.441406 3.160156 146.261719 3 C 161.6875 2.679688 177.148438 4.734375 191.9375 9.136719 C 206.246094 13.402344 219.882812 19.855469 232.269531 28.1875 C 244.457031 36.382812 255.414062 46.390625 264.691406 57.769531 C 274.066406 69.277344 281.710938 82.179688 287.273438 95.9375 C 292.96875 110.035156 296.453125 124.996094 297.613281 140.152344 C 298.796875 155.695312 297.5625 171.425781 293.90625 186.578125 C 290.40625 201.089844 284.691406 215.050781 277.019531 227.859375 C 269.4375 240.523438 259.960938 252.042969 249.007812 261.9375 C 238.066406 271.820312 225.664062 280.066406 212.3125 286.3125 C 205.515625 289.492188 198.480469 292.136719 191.28125 294.246094 C 189.335938 294.816406 197.0625 292.753906 194.386719 293.40625 C 193.410156 293.648438 192.425781 293.871094 191.441406 294.085938 C 189.527344 294.503906 187.605469 294.886719 185.671875 295.230469 C 181.84375 295.90625 177.992188 296.433594 174.128906 296.808594 C 158.65625 298.308594 142.953125 297.40625 127.761719 294.09375 C 113.085938 290.894531 98.914062 285.429688 85.878906 277.96875 C 73.117188 270.664062 61.453125 261.464844 51.375 250.761719 C 41.230469 239.992188 32.703125 227.714844 26.167969 214.441406 C 19.515625 200.933594 14.953125 186.417969 12.675781 171.53125 C 11.527344 164.035156 10.972656 156.457031 10.960938 148.875 C 10.960938 149.015625 6.261719 150.078125 5.851562 150.1875 C 5.417969 150.300781 0.769531 151.285156 0.773438 151.605469 C 0.792969 167.324219 3.238281 183 8.136719 197.941406 C 12.859375 212.347656 19.816406 226.003906 28.671875 238.3125 C 37.472656 250.546875 48.136719 261.433594 60.183594 270.492188 C 72.285156 279.589844 85.773438 286.824219 100.054688 291.851562 C 114.824219 297.046875 130.402344 299.855469 146.054688 300.203125 C 154.070312 300.378906 162.105469 299.921875 170.046875 298.816406 C 179.519531 297.503906 188.75 295.105469 197.949219 292.546875 C 212.765625 288.429688 226.894531 282.328125 239.84375 274.007812 C 252.527344 265.855469 263.960938 255.769531 273.636719 244.207031 C 283.324219 232.632812 291.242188 219.585938 297.011719 205.632812 C 302.945312 191.28125 306.578125 176.007812 307.78125 160.527344 C 309.011719 144.714844 307.734375 128.710938 303.953125 113.308594 C 300.316406 98.5 294.367188 84.273438 286.398438 71.277344 C 278.511719 58.421875 268.664062 46.777344 257.300781 36.859375 C 245.941406 26.941406 233.078125 18.757812 219.269531 12.699219 C 205.089844 6.476562 189.945312 2.515625 174.539062 0.976562 C 158.800781 -0.597656 142.828125 0.339844 127.378906 3.730469 C 110.488281 7.441406 93.84375 12.609375 78.601562 20.882812 C 65.332031 28.089844 53.175781 37.324219 42.667969 48.167969 C 32.195312 58.972656 23.367188 71.363281 16.589844 84.800781 C 9.667969 98.535156 4.917969 113.34375 2.546875 128.535156 C 1.359375 136.167969 0.785156 143.882812 0.773438 151.605469 C 0.773438 151.460938 5.46875 150.398438 5.878906 150.289062 C 6.316406 150.171875 10.960938 149.195312 10.960938 148.875 " fill-opacity="1" fill-rule="nonzero"/></g></g></g></g><g clip-path="url(#19fbe74941)"><path fill="#ffffff" d="M 81.933594 81.945312 C 88.667969 74.859375 96.167969 68.488281 104.234375 62.910156 C 108.273438 60.125 112.457031 57.550781 116.757812 55.183594 C 121.058594 52.8125 125.492188 50.6875 130.019531 48.769531 C 139.0625 44.917969 148.523438 42.042969 158.160156 40.074219 C 167.808594 38.128906 177.652344 37.164062 187.496094 37.140625 C 197.339844 37.160156 207.179688 38.128906 216.828125 40.070312 C 221.652344 41.050781 226.421875 42.265625 231.125 43.714844 C 233.472656 44.441406 235.804688 45.214844 238.117188 46.058594 C 240.421875 46.902344 242.710938 47.804688 244.972656 48.765625 C 249.496094 50.683594 253.929688 52.8125 258.234375 55.179688 C 262.535156 57.546875 266.71875 60.125 270.757812 62.90625 C 278.820312 68.488281 286.324219 74.859375 293.054688 81.945312 C 285.964844 75.222656 278.308594 69.125 270.128906 63.847656 C 266.042969 61.195312 261.835938 58.746094 257.519531 56.511719 C 253.207031 54.277344 248.792969 52.234375 244.285156 50.425781 C 242.035156 49.519531 239.761719 48.671875 237.46875 47.878906 C 235.175781 47.078125 232.867188 46.335938 230.539062 45.648438 C 225.886719 44.269531 221.167969 43.125 216.40625 42.210938 C 206.886719 40.363281 197.191406 39.425781 187.496094 39.441406 C 177.796875 39.421875 168.101562 40.367188 158.582031 42.207031 C 149.054688 44.027344 139.714844 46.816406 130.699219 50.421875 C 126.191406 52.230469 121.78125 54.277344 117.464844 56.507812 C 113.148438 58.742188 108.941406 61.195312 104.859375 63.84375 C 96.679688 69.121094 89.023438 75.222656 81.933594 81.945312 " fill-opacity="1" fill-rule="nonzero"/></g><g clip-path="url(#5f38109b80)"><path fill="#ffffff" d="M 293.054688 293.070312 C 286.320312 300.152344 278.820312 306.527344 270.753906 312.105469 C 266.714844 314.886719 262.53125 317.460938 258.230469 319.832031 C 253.929688 322.199219 249.496094 324.324219 244.972656 326.246094 C 235.925781 330.097656 226.46875 332.972656 216.828125 334.9375 C 207.179688 336.886719 197.339844 337.851562 187.496094 337.875 C 177.648438 337.851562 167.808594 336.882812 158.160156 334.941406 C 153.339844 333.960938 148.566406 332.746094 143.867188 331.300781 C 141.515625 330.574219 139.183594 329.800781 136.875 328.957031 C 134.566406 328.109375 132.277344 327.210938 130.015625 326.25 C 125.492188 324.328125 121.058594 322.203125 116.753906 319.832031 C 112.457031 317.464844 108.273438 314.890625 104.230469 312.105469 C 96.167969 306.527344 88.664062 300.15625 81.933594 293.070312 C 89.023438 299.789062 96.679688 305.890625 104.863281 311.167969 C 108.945312 313.816406 113.152344 316.269531 117.46875 318.503906 C 121.785156 320.734375 126.195312 322.78125 130.703125 324.589844 C 132.953125 325.496094 135.226562 326.34375 137.519531 327.136719 C 139.8125 327.933594 142.121094 328.679688 144.449219 329.367188 C 149.101562 330.742188 153.820312 331.890625 158.582031 332.804688 C 168.101562 334.648438 177.796875 335.589844 187.496094 335.574219 C 197.191406 335.59375 206.886719 334.648438 216.40625 332.804688 C 225.933594 330.988281 235.273438 328.199219 244.289062 324.589844 C 248.796875 322.785156 253.207031 320.738281 257.523438 318.503906 C 261.839844 316.273438 266.046875 313.820312 270.128906 311.171875 C 278.308594 305.890625 285.964844 299.792969 293.054688 293.070312 " fill-opacity="1" fill-rule="nonzero"/></g><path fill="#ffffff" d="M 98.425781 98.441406 C 103.972656 92.324219 110.246094 86.84375 117.003906 82.019531 L 117.632812 81.554688 L 118.28125 81.125 L 119.582031 80.269531 L 122.1875 78.554688 L 122.835938 78.128906 C 123.054688 77.988281 123.28125 77.859375 123.503906 77.726562 L 124.847656 76.9375 L 127.539062 75.351562 L 128.214844 74.957031 C 128.4375 74.824219 128.671875 74.710938 128.902344 74.585938 L 130.285156 73.867188 L 133.0625 72.4375 L 133.757812 72.078125 C 133.988281 71.960938 134.230469 71.859375 134.464844 71.75 L 135.886719 71.101562 L 138.734375 69.808594 C 154.035156 63.15625 170.765625 59.742188 187.496094 59.734375 C 204.222656 59.734375 220.953125 63.152344 236.253906 69.804688 L 239.101562 71.097656 L 240.523438 71.746094 C 240.761719 71.855469 241 71.957031 241.234375 72.074219 L 241.929688 72.433594 L 244.707031 73.863281 L 246.089844 74.582031 C 246.320312 74.707031 246.554688 74.820312 246.777344 74.949219 L 250.140625 76.929688 L 251.484375 77.722656 C 251.707031 77.855469 251.933594 77.980469 252.152344 78.125 L 252.804688 78.550781 L 255.410156 80.265625 L 256.710938 81.125 L 257.359375 81.554688 L 257.984375 82.015625 C 264.746094 86.839844 271.019531 92.320312 276.5625 98.441406 C 270.433594 92.914062 263.914062 87.875 256.964844 83.542969 L 256.324219 83.125 L 255.664062 82.734375 L 254.339844 81.953125 L 251.699219 80.394531 L 251.042969 80.003906 C 250.820312 79.878906 250.589844 79.765625 250.363281 79.644531 L 246.296875 77.511719 L 245.617188 77.15625 C 245.394531 77.039062 245.15625 76.9375 244.925781 76.828125 L 243.539062 76.179688 L 240.773438 74.875 L 240.085938 74.550781 C 239.851562 74.441406 239.613281 74.351562 239.378906 74.25 L 237.964844 73.667969 L 235.140625 72.503906 L 234.433594 72.210938 C 234.199219 72.121094 233.957031 72.039062 233.71875 71.953125 L 232.277344 71.4375 L 229.402344 70.414062 L 228.683594 70.15625 L 227.957031 69.933594 L 226.496094 69.484375 L 223.582031 68.585938 C 223.339844 68.511719 223.09375 68.433594 222.851562 68.363281 L 222.113281 68.175781 L 220.632812 67.796875 L 217.683594 67.03125 C 217.195312 66.894531 216.695312 66.792969 216.199219 66.691406 L 214.703125 66.382812 L 211.722656 65.757812 C 211.226562 65.644531 210.722656 65.578125 210.222656 65.496094 L 208.71875 65.25 L 205.710938 64.761719 L 205.335938 64.699219 L 204.199219 64.570312 L 202.6875 64.398438 L 199.660156 64.054688 C 197.636719 63.890625 195.609375 63.765625 193.582031 63.617188 L 187.496094 63.476562 L 181.40625 63.617188 C 179.378906 63.761719 177.351562 63.890625 175.328125 64.050781 L 172.300781 64.394531 L 170.789062 64.566406 L 170.03125 64.652344 L 169.652344 64.699219 L 169.277344 64.757812 L 166.269531 65.25 L 164.765625 65.492188 C 164.265625 65.574219 163.761719 65.640625 163.265625 65.753906 L 160.28125 66.378906 L 158.789062 66.6875 C 158.292969 66.792969 157.792969 66.890625 157.304688 67.03125 L 154.351562 67.792969 L 152.875 68.171875 L 152.136719 68.359375 C 151.890625 68.429688 151.648438 68.507812 151.40625 68.582031 L 148.492188 69.476562 L 147.03125 69.929688 L 146.300781 70.152344 L 145.582031 70.410156 L 142.710938 71.433594 L 141.269531 71.945312 C 141.03125 72.035156 140.789062 72.113281 140.550781 72.207031 L 139.84375 72.5 L 137.019531 73.664062 L 135.609375 74.246094 C 135.371094 74.347656 135.132812 74.4375 134.902344 74.546875 L 134.210938 74.871094 L 131.445312 76.175781 C 130.53125 76.625 129.582031 77.007812 128.691406 77.503906 L 125.980469 78.929688 L 124.621094 79.640625 C 124.398438 79.761719 124.167969 79.875 123.945312 80 L 123.285156 80.390625 L 120.644531 81.949219 L 118.664062 83.121094 L 118.023438 83.539062 C 111.074219 87.875 104.554688 92.914062 98.425781 98.441406 " fill-opacity="1" fill-rule="nonzero"/><path fill="#ffffff" d="M 276.5625 276.574219 C 271.015625 282.691406 264.742188 288.167969 257.984375 292.996094 L 257.355469 293.457031 L 256.707031 293.886719 L 255.40625 294.742188 L 252.804688 296.457031 L 252.152344 296.886719 C 251.933594 297.027344 251.707031 297.152344 251.480469 297.289062 L 250.140625 298.078125 L 246.777344 300.058594 C 246.550781 300.191406 246.316406 300.304688 246.089844 300.425781 L 244.703125 301.148438 L 241.925781 302.578125 L 241.230469 302.9375 C 241 303.054688 240.757812 303.15625 240.523438 303.265625 L 239.101562 303.910156 L 236.253906 305.203125 C 220.953125 311.855469 204.222656 315.273438 187.496094 315.277344 C 170.765625 315.277344 154.035156 311.859375 138.734375 305.210938 L 135.886719 303.917969 L 134.464844 303.269531 C 134.226562 303.160156 133.988281 303.058594 133.753906 302.941406 L 133.058594 302.582031 L 130.285156 301.152344 L 128.898438 300.433594 C 128.667969 300.308594 128.433594 300.195312 128.210938 300.066406 L 127.535156 299.667969 L 124.847656 298.082031 L 123.503906 297.292969 C 123.28125 297.15625 123.054688 297.03125 122.835938 296.890625 L 122.183594 296.460938 L 119.578125 294.75 L 117.628906 293.460938 L 117.003906 293 C 110.242188 288.171875 103.96875 282.691406 98.425781 276.574219 C 104.554688 282.101562 111.078125 287.136719 118.023438 291.46875 L 118.664062 291.890625 L 119.328125 292.28125 L 120.648438 293.058594 L 123.289062 294.621094 L 123.945312 295.007812 C 124.167969 295.136719 124.398438 295.25 124.625 295.367188 L 125.980469 296.082031 L 128.691406 297.503906 L 129.371094 297.859375 C 129.597656 297.976562 129.832031 298.078125 130.0625 298.1875 L 131.449219 298.835938 L 134.214844 300.140625 L 134.902344 300.464844 C 135.136719 300.574219 135.375 300.664062 135.609375 300.761719 L 137.023438 301.34375 L 139.847656 302.511719 L 140.554688 302.800781 C 140.789062 302.894531 141.03125 302.972656 141.269531 303.0625 L 142.710938 303.574219 L 145.585938 304.597656 L 146.304688 304.855469 L 147.035156 305.082031 L 151.40625 306.429688 C 151.652344 306.503906 151.894531 306.582031 152.136719 306.652344 L 154.355469 307.21875 L 157.304688 307.980469 C 157.796875 308.117188 158.292969 308.21875 158.792969 308.320312 L 160.285156 308.632812 L 163.265625 309.253906 C 163.761719 309.371094 164.265625 309.4375 164.765625 309.519531 L 166.269531 309.761719 L 169.277344 310.253906 L 169.65625 310.3125 L 170.03125 310.359375 L 170.789062 310.445312 L 172.300781 310.617188 L 175.328125 310.960938 C 177.351562 311.125 179.378906 311.25 181.40625 311.398438 L 187.496094 311.539062 L 193.582031 311.398438 C 195.609375 311.25 197.636719 311.125 199.660156 310.964844 L 202.6875 310.617188 L 204.957031 310.359375 L 205.335938 310.316406 L 205.710938 310.253906 L 208.71875 309.765625 L 210.222656 309.523438 C 210.722656 309.441406 211.226562 309.375 211.722656 309.257812 L 214.707031 308.636719 L 216.199219 308.324219 C 216.695312 308.222656 217.195312 308.121094 217.683594 307.984375 L 220.636719 307.222656 L 222.113281 306.847656 L 222.851562 306.65625 C 223.097656 306.585938 223.339844 306.507812 223.582031 306.433594 L 226.496094 305.535156 L 227.957031 305.085938 L 228.6875 304.859375 L 229.40625 304.605469 L 232.28125 303.578125 L 233.71875 303.066406 C 233.957031 302.980469 234.199219 302.898438 234.4375 302.804688 L 235.140625 302.515625 L 237.96875 301.351562 L 239.382812 300.765625 C 239.617188 300.667969 239.855469 300.578125 240.085938 300.46875 L 240.777344 300.144531 L 243.542969 298.839844 C 244.457031 298.390625 245.40625 298.007812 246.300781 297.507812 L 249.007812 296.085938 L 250.367188 295.371094 C 250.59375 295.253906 250.820312 295.140625 251.042969 295.011719 L 251.703125 294.621094 L 254.34375 293.066406 L 256.324219 291.894531 L 256.964844 291.472656 C 263.914062 287.140625 270.4375 282.101562 276.5625 276.574219 " fill-opacity="1" fill-rule="nonzero"/><path fill="#ffffff" d="M 114.921875 114.933594 C 116.039062 113.675781 117.1875 112.441406 118.324219 111.191406 C 119.515625 109.996094 120.742188 108.835938 121.957031 107.652344 C 122.257812 107.351562 122.582031 107.082031 122.898438 106.800781 L 123.859375 105.96875 L 125.789062 104.308594 C 125.949219 104.171875 126.105469 104.027344 126.273438 103.894531 L 127.785156 102.734375 L 129.808594 101.179688 C 135.289062 97.148438 141.234375 93.710938 147.484375 90.925781 C 159.996094 85.363281 173.742188 82.476562 187.496094 82.472656 C 201.246094 82.46875 214.996094 85.355469 227.503906 90.921875 C 233.757812 93.703125 239.703125 97.144531 245.183594 101.175781 L 247.207031 102.730469 L 248.71875 103.890625 C 248.882812 104.027344 249.042969 104.167969 249.203125 104.304688 L 251.132812 105.964844 L 252.09375 106.796875 C 252.410156 107.078125 252.734375 107.347656 253.035156 107.648438 C 254.246094 108.835938 255.472656 109.996094 256.664062 111.1875 C 257.804688 112.441406 258.953125 113.675781 260.066406 114.933594 C 258.75 113.878906 257.464844 112.796875 256.167969 111.738281 C 254.84375 110.707031 253.5 109.707031 252.171875 108.699219 C 251.84375 108.4375 251.492188 108.214844 251.148438 107.976562 L 250.117188 107.265625 L 248.0625 105.84375 C 247.890625 105.726562 247.722656 105.605469 247.546875 105.492188 L 247.015625 105.160156 L 245.957031 104.496094 L 243.847656 103.171875 C 238.160156 99.738281 232.199219 96.820312 226.039062 94.480469 C 213.71875 89.777344 200.609375 87.375 187.496094 87.367188 C 174.378906 87.367188 161.265625 89.769531 148.949219 94.472656 C 142.785156 96.816406 136.824219 99.734375 131.136719 103.167969 L 129.027344 104.492188 L 127.96875 105.15625 L 127.4375 105.488281 C 127.265625 105.601562 127.097656 105.722656 126.925781 105.839844 L 124.867188 107.261719 L 123.835938 107.972656 C 123.492188 108.207031 123.140625 108.4375 122.8125 108.695312 C 121.488281 109.707031 120.144531 110.707031 118.820312 111.734375 C 117.523438 112.796875 116.238281 113.875 114.921875 114.933594 " fill-opacity="1" fill-rule="nonzero"/><path fill="#ffffff" d="M 260.066406 260.082031 C 258.949219 261.339844 257.800781 262.570312 256.664062 263.824219 C 255.472656 265.015625 254.246094 266.179688 253.03125 267.363281 C 252.734375 267.664062 252.40625 267.933594 252.089844 268.214844 L 251.128906 269.042969 L 249.203125 270.703125 C 249.039062 270.839844 248.882812 270.984375 248.714844 271.117188 L 248.210938 271.503906 L 247.203125 272.28125 L 245.179688 273.835938 C 239.703125 277.867188 233.757812 281.300781 227.503906 284.085938 C 214.992188 289.652344 201.246094 292.539062 187.496094 292.539062 C 173.742188 292.546875 159.992188 289.65625 147.484375 284.09375 C 141.230469 281.308594 135.285156 277.871094 129.804688 273.839844 L 127.78125 272.285156 L 126.773438 271.511719 L 126.269531 271.121094 C 126.105469 270.988281 125.945312 270.847656 125.785156 270.710938 L 123.855469 269.046875 L 122.898438 268.214844 C 122.578125 267.9375 122.253906 267.667969 121.953125 267.363281 C 120.742188 266.179688 119.515625 265.019531 118.324219 263.824219 C 117.1875 262.570312 116.035156 261.339844 114.921875 260.082031 C 116.238281 261.136719 117.523438 262.214844 118.820312 263.277344 C 120.144531 264.304688 121.488281 265.304688 122.816406 266.316406 C 123.144531 266.574219 123.496094 266.800781 123.839844 267.039062 L 124.871094 267.75 L 126.925781 269.167969 C 127.097656 269.285156 127.265625 269.410156 127.441406 269.523438 L 127.972656 269.851562 L 129.03125 270.515625 L 131.140625 271.839844 C 136.828125 275.273438 142.789062 278.191406 148.953125 280.535156 C 161.269531 285.234375 174.378906 287.636719 187.496094 287.648438 C 200.609375 287.644531 213.722656 285.242188 226.039062 280.542969 C 232.203125 278.199219 238.164062 275.28125 243.851562 271.84375 L 245.960938 270.523438 L 247.019531 269.859375 L 247.550781 269.527344 C 247.726562 269.414062 247.894531 269.289062 248.066406 269.175781 L 250.117188 267.753906 L 251.152344 267.042969 C 251.496094 266.804688 251.847656 266.578125 252.175781 266.320312 C 253.5 265.308594 254.84375 264.308594 256.171875 263.277344 C 257.464844 262.214844 258.75 261.136719 260.066406 260.082031 " fill-opacity="1" fill-rule="nonzero"/><path fill="#ffffff" d="M 131.414062 131.425781 C 137.824219 123.144531 146.492188 116.480469 156.195312 111.953125 C 165.914062 107.429688 176.703125 105.070312 187.496094 105.070312 C 198.285156 105.0625 209.078125 107.421875 218.796875 111.945312 C 228.503906 116.46875 237.167969 123.136719 243.574219 131.425781 C 242.503906 130.664062 241.464844 129.878906 240.429688 129.101562 L 237.246094 126.886719 C 236.167969 126.179688 235.074219 125.5 233.996094 124.804688 C 232.90625 124.132812 231.789062 123.507812 230.691406 122.863281 C 226.242188 120.363281 221.632812 118.246094 216.894531 116.550781 C 207.429688 113.140625 197.464844 111.410156 187.496094 111.402344 C 177.523438 111.402344 167.558594 113.132812 158.089844 116.539062 C 153.351562 118.238281 148.742188 120.355469 144.292969 122.855469 C 143.195312 123.503906 142.078125 124.128906 140.984375 124.800781 C 139.910156 125.496094 138.816406 126.175781 137.742188 126.882812 L 134.554688 129.101562 C 133.519531 129.878906 132.484375 130.660156 131.414062 131.425781 " fill-opacity="1" fill-rule="nonzero"/><path fill="#ffffff" d="M 243.574219 243.585938 C 237.164062 251.871094 228.496094 258.535156 218.792969 263.0625 C 209.074219 267.585938 198.285156 269.945312 187.496094 269.945312 C 176.703125 269.953125 165.910156 267.59375 156.195312 263.066406 C 146.488281 258.546875 137.820312 251.875 131.414062 243.585938 C 132.484375 244.351562 133.523438 245.136719 134.558594 245.914062 L 137.742188 248.128906 C 138.820312 248.835938 139.914062 249.515625 140.992188 250.207031 C 142.082031 250.882812 143.199219 251.507812 144.296875 252.152344 C 148.746094 254.648438 153.355469 256.769531 158.09375 258.464844 C 167.5625 261.871094 177.523438 263.601562 187.496094 263.613281 C 197.464844 263.609375 207.429688 261.882812 216.898438 258.472656 C 221.636719 256.777344 226.246094 254.660156 230.695312 252.160156 C 231.792969 251.511719 232.910156 250.886719 234.003906 250.214844 C 235.078125 249.519531 236.171875 248.839844 237.246094 248.132812 L 240.433594 245.914062 C 241.46875 245.136719 242.507812 244.351562 243.574219 243.585938 " fill-opacity="1" fill-rule="nonzero"/><path fill="#ffffff" d="M 147.910156 147.921875 C 148.414062 147.132812 148.957031 146.367188 149.507812 145.597656 C 150.085938 144.855469 150.683594 144.128906 151.296875 143.402344 C 151.917969 142.6875 152.585938 142.023438 153.242188 141.328125 C 153.566406 140.976562 153.933594 140.675781 154.277344 140.347656 L 155.335938 139.382812 L 155.601562 139.140625 L 156.4375 138.46875 L 157.558594 137.570312 C 157.929688 137.257812 158.332031 137 158.722656 136.722656 L 159.90625 135.894531 C 160.695312 135.34375 161.535156 134.867188 162.355469 134.359375 C 162.765625 134.097656 163.199219 133.890625 163.621094 133.65625 L 164.90625 132.976562 C 171.828125 129.480469 179.664062 127.667969 187.496094 127.664062 C 195.324219 127.660156 203.164062 129.472656 210.085938 132.964844 L 211.371094 133.644531 C 211.792969 133.878906 212.226562 134.089844 212.636719 134.347656 L 213.875 135.105469 C 214.28125 135.359375 214.699219 135.601562 215.085938 135.886719 L 216.273438 136.710938 C 216.660156 136.992188 217.066406 137.246094 217.433594 137.558594 L 218.554688 138.460938 L 219.113281 138.90625 C 219.300781 139.054688 219.484375 139.207031 219.660156 139.375 L 220.714844 140.339844 L 221.242188 140.824219 C 221.417969 140.980469 221.589844 141.144531 221.75 141.320312 C 222.40625 142.015625 223.074219 142.683594 223.695312 143.398438 C 224.308594 144.125 224.90625 144.851562 225.484375 145.59375 C 226.03125 146.367188 226.574219 147.132812 227.078125 147.921875 C 226.257812 147.449219 225.472656 146.953125 224.691406 146.464844 C 223.898438 145.992188 223.09375 145.542969 222.320312 145.070312 L 219.933594 143.765625 C 219.136719 143.34375 218.328125 142.953125 217.535156 142.550781 C 216.738281 142.152344 215.917969 141.800781 215.117188 141.425781 C 214.3125 141.0625 213.488281 140.734375 212.683594 140.390625 C 212.285156 140.210938 211.859375 140.082031 211.453125 139.921875 L 210.222656 139.464844 C 209.820312 139.296875 209.398438 139.179688 208.984375 139.039062 L 207.75 138.621094 C 201.132812 136.519531 194.320312 135.445312 187.496094 135.4375 C 180.667969 135.433594 173.855469 136.507812 167.234375 138.613281 C 166.417969 138.902344 165.578125 139.144531 164.761719 139.453125 L 163.53125 139.914062 C 163.125 140.074219 162.699219 140.203125 162.300781 140.382812 C 161.496094 140.726562 160.671875 141.054688 159.863281 141.414062 C 159.066406 141.789062 158.246094 142.144531 157.449219 142.539062 C 156.65625 142.945312 155.847656 143.339844 155.050781 143.757812 L 152.664062 145.066406 C 151.890625 145.539062 151.085938 145.988281 150.292969 146.460938 C 149.515625 146.953125 148.730469 147.449219 147.910156 147.921875 " fill-opacity="1" fill-rule="nonzero"/><path fill="#ffffff" d="M 227.078125 227.09375 C 226.574219 227.878906 226.03125 228.644531 225.480469 229.417969 C 224.90625 230.160156 224.304688 230.886719 223.691406 231.613281 C 223.070312 232.328125 222.402344 232.992188 221.746094 233.6875 C 221.421875 234.039062 221.054688 234.339844 220.710938 234.664062 L 219.652344 235.632812 L 219.386719 235.875 L 219.109375 236.097656 L 218.550781 236.546875 L 217.429688 237.445312 C 217.058594 237.757812 216.65625 238.011719 216.265625 238.292969 L 215.082031 239.121094 C 214.292969 239.667969 213.457031 240.144531 212.632812 240.65625 C 212.222656 240.914062 211.789062 241.125 211.367188 241.359375 L 210.082031 242.039062 C 203.160156 245.535156 195.324219 247.347656 187.496094 247.351562 C 179.664062 247.355469 171.824219 245.542969 164.902344 242.050781 L 163.617188 241.371094 C 163.195312 241.136719 162.761719 240.925781 162.351562 240.664062 L 161.117188 239.910156 C 160.707031 239.65625 160.289062 239.414062 159.898438 239.128906 L 158.71875 238.300781 C 158.328125 238.019531 157.921875 237.765625 157.554688 237.453125 L 156.433594 236.554688 L 155.875 236.105469 C 155.6875 235.960938 155.503906 235.804688 155.328125 235.640625 L 154.273438 234.671875 L 153.75 234.191406 C 153.570312 234.03125 153.402344 233.867188 153.238281 233.691406 C 152.582031 232.996094 151.914062 232.332031 151.292969 231.617188 C 150.679688 230.890625 150.082031 230.164062 149.503906 229.421875 C 148.957031 228.648438 148.414062 227.882812 147.910156 227.09375 C 148.730469 227.566406 149.515625 228.0625 150.296875 228.550781 C 151.09375 229.019531 151.894531 229.472656 152.667969 229.941406 L 155.054688 231.25 C 155.851562 231.667969 156.660156 232.0625 157.453125 232.464844 C 158.253906 232.859375 159.070312 233.214844 159.871094 233.589844 C 160.675781 233.953125 161.5 234.277344 162.308594 234.621094 C 162.707031 234.800781 163.128906 234.929688 163.539062 235.089844 L 164.765625 235.550781 C 165.167969 235.71875 165.589844 235.835938 166.003906 235.976562 L 167.238281 236.390625 C 173.855469 238.496094 180.667969 239.570312 187.496094 239.578125 C 194.320312 239.578125 201.136719 238.503906 207.753906 236.402344 C 208.570312 236.113281 209.414062 235.871094 210.226562 235.5625 L 211.457031 235.101562 C 211.863281 234.941406 212.289062 234.8125 212.6875 234.632812 C 213.492188 234.289062 214.316406 233.960938 215.125 233.597656 C 215.921875 233.226562 216.742188 232.867188 217.539062 232.472656 C 218.335938 232.070312 219.140625 231.675781 219.941406 231.253906 L 222.324219 229.945312 C 223.097656 229.476562 223.902344 229.023438 224.695312 228.550781 C 225.476562 228.0625 226.257812 227.566406 227.078125 227.09375 " fill-opacity="1" fill-rule="nonzero"/></svg>