<svg xmlns="http://www.w3.org/2000/svg" xmlns:xlink="http://www.w3.org/1999/xlink" width="851" zoomAndPan="magnify" viewBox="0 0 638.25 236.249991" height="315" preserveAspectRatio="xMidYMid meet" version="1.0"><defs><g/><clipPath id="142724ac73"><path d="M 108.253906 74.757812 L 126.394531 74.757812 L 126.394531 160.707031 L 108.253906 160.707031 Z M 108.253906 74.757812 " clip-rule="nonzero"/></clipPath><clipPath id="21b9203936"><path d="M 3.78125 74.757812 L 22.199219 74.757812 L 22.199219 160.707031 L 3.78125 160.707031 Z M 3.78125 74.757812 " clip-rule="nonzero"/></clipPath><clipPath id="1ace35bab2"><path d="M 2.132812 56.617188 L 127.734375 56.617188 L 127.734375 179.226562 L 2.132812 179.226562 Z M 2.132812 56.617188 " clip-rule="nonzero"/></clipPath><clipPath id="c2cd41a85c"><path d="M 0.316406 0.617188 L 125.734375 0.617188 L 125.734375 123.097656 L 0.316406 123.097656 Z M 0.316406 0.617188 " clip-rule="nonzero"/></clipPath><clipPath id="63f5059c51"><rect x="0" width="126" y="0" height="124"/></clipPath><clipPath id="7929f6dfe8"><path d="M 22.375 56.625 L 108.324219 56.625 L 108.324219 74.890625 L 22.375 74.890625 Z M 22.375 56.625 " clip-rule="nonzero"/></clipPath><clipPath id="1354ef0699"><path d="M 22.375 160.730469 L 108.324219 160.730469 L 108.324219 179.101562 L 22.375 179.101562 Z M 22.375 160.730469 " clip-rule="nonzero"/></clipPath><clipPath id="6a50bf8ac4"><path d="M 147 53 L 636.867188 53 L 636.867188 181 L 147 181 Z M 147 53 " clip-rule="nonzero"/></clipPath><clipPath id="a5f709e66a"><rect x="0" width="490" y="0" height="128"/></clipPath></defs><g clip-path="url(#142724ac73)"><path fill="#FFFFFF" d="M 108.269531 74.757812 C 111.160156 77.507812 113.761719 80.570312 116.042969 83.863281 C 117.175781 85.511719 118.226562 87.21875 119.195312 88.976562 C 120.164062 90.730469 121.03125 92.542969 121.816406 94.390625 C 123.386719 98.082031 124.5625 101.945312 125.363281 105.878906 C 126.15625 109.820312 126.550781 113.835938 126.5625 117.855469 C 126.554688 121.875 126.15625 125.894531 125.367188 129.832031 C 124.964844 131.800781 124.46875 133.75 123.878906 135.667969 C 123.582031 136.625 123.265625 137.582031 122.921875 138.523438 C 122.574219 139.464844 122.207031 140.398438 121.816406 141.324219 C 121.03125 143.167969 120.164062 144.980469 119.195312 146.734375 C 118.230469 148.492188 117.179688 150.199219 116.042969 151.847656 C 113.765625 155.140625 111.164062 158.203125 108.269531 160.953125 C 111.015625 158.058594 113.503906 154.929688 115.660156 151.59375 C 116.742188 149.925781 117.742188 148.207031 118.652344 146.445312 C 119.566406 144.683594 120.398438 142.882812 121.136719 141.042969 C 121.507812 140.121094 121.855469 139.195312 122.179688 138.257812 C 122.503906 137.324219 122.808594 136.378906 123.089844 135.429688 C 123.652344 133.53125 124.117188 131.605469 124.492188 129.660156 C 125.246094 125.773438 125.628906 121.8125 125.621094 117.855469 C 125.628906 113.898438 125.246094 109.9375 124.492188 106.050781 C 123.75 102.160156 122.613281 98.347656 121.140625 94.667969 C 120.402344 92.828125 119.566406 91.027344 118.652344 89.265625 C 117.742188 87.503906 116.742188 85.785156 115.660156 84.117188 C 113.503906 80.78125 111.015625 77.652344 108.269531 74.757812 " fill-opacity="1" fill-rule="nonzero"/></g><g clip-path="url(#21b9203936)"><path fill="#FFFFFF" d="M 22.074219 160.953125 C 19.183594 158.203125 16.582031 155.140625 14.304688 151.847656 C 13.167969 150.199219 12.117188 148.492188 11.148438 146.734375 C 10.183594 144.980469 9.3125 143.167969 8.53125 141.320312 C 6.957031 137.628906 5.785156 133.765625 4.980469 129.832031 C 4.1875 125.894531 3.792969 121.875 3.78125 117.855469 C 3.789062 113.835938 4.1875 109.820312 4.980469 105.878906 C 5.378906 103.910156 5.875 101.964844 6.464844 100.042969 C 6.761719 99.085938 7.078125 98.132812 7.421875 97.1875 C 7.769531 96.246094 8.136719 95.3125 8.527344 94.390625 C 9.3125 92.542969 10.179688 90.730469 11.148438 88.976562 C 12.113281 87.21875 13.167969 85.511719 14.300781 83.863281 C 16.578125 80.570312 19.183594 77.507812 22.074219 74.757812 C 19.332031 77.652344 16.839844 80.78125 14.6875 84.121094 C 13.605469 85.785156 12.601562 87.503906 11.691406 89.265625 C 10.78125 91.027344 9.945312 92.828125 9.207031 94.667969 C 8.835938 95.589844 8.488281 96.515625 8.167969 97.453125 C 7.839844 98.390625 7.535156 99.332031 7.253906 100.28125 C 6.695312 102.179688 6.226562 104.109375 5.851562 106.050781 C 5.097656 109.9375 4.714844 113.898438 4.722656 117.855469 C 4.714844 121.8125 5.097656 125.773438 5.851562 129.660156 C 6.59375 133.550781 7.734375 137.363281 9.207031 141.042969 C 9.945312 142.882812 10.777344 144.683594 11.691406 146.445312 C 12.601562 148.207031 13.601562 149.925781 14.683594 151.59375 C 16.839844 154.933594 19.328125 158.058594 22.074219 160.953125 " fill-opacity="1" fill-rule="nonzero"/></g><path fill="#FFFFFF" d="M 101.535156 81.492188 C 104.03125 83.757812 106.269531 86.316406 108.238281 89.078125 L 108.429688 89.332031 L 108.605469 89.597656 L 108.953125 90.128906 L 109.652344 91.191406 L 109.828125 91.457031 C 109.886719 91.546875 109.9375 91.640625 109.992188 91.730469 L 110.316406 92.28125 L 110.960938 93.378906 L 111.125 93.652344 C 111.175781 93.746094 111.222656 93.839844 111.273438 93.933594 L 112.152344 95.632812 L 112.296875 95.917969 C 112.347656 96.011719 112.386719 96.109375 112.433594 96.207031 L 112.695312 96.785156 L 113.222656 97.949219 C 115.941406 104.195312 117.335938 111.027344 117.335938 117.855469 C 117.335938 124.683594 115.941406 131.515625 113.226562 137.761719 L 112.699219 138.925781 L 112.433594 139.507812 C 112.390625 139.601562 112.347656 139.699219 112.300781 139.796875 L 112.152344 140.078125 L 111.570312 141.214844 L 111.277344 141.777344 C 111.226562 141.871094 111.179688 141.96875 111.125 142.058594 L 110.316406 143.433594 L 109.992188 143.980469 C 109.9375 144.070312 109.886719 144.164062 109.828125 144.253906 L 109.65625 144.519531 L 108.953125 145.582031 L 108.605469 146.113281 L 108.429688 146.378906 L 108.242188 146.636719 C 106.269531 149.394531 104.035156 151.957031 101.535156 154.21875 C 103.792969 151.71875 105.847656 149.054688 107.617188 146.21875 L 107.789062 145.957031 L 107.949219 145.6875 L 108.265625 145.148438 L 108.902344 144.070312 L 109.0625 143.800781 C 109.113281 143.710938 109.160156 143.617188 109.207031 143.523438 L 110.082031 141.863281 L 110.226562 141.585938 C 110.273438 141.492188 110.3125 141.398438 110.359375 141.304688 L 110.625 140.738281 L 111.15625 139.609375 L 111.289062 139.328125 C 111.332031 139.230469 111.371094 139.132812 111.410156 139.039062 L 111.648438 138.460938 L 112.125 137.308594 L 112.242188 137.019531 C 112.28125 136.921875 112.3125 136.824219 112.347656 136.726562 L 112.558594 136.140625 L 112.976562 134.964844 L 113.082031 134.671875 L 113.175781 134.375 L 113.359375 133.777344 L 113.722656 132.589844 C 113.753906 132.488281 113.785156 132.390625 113.816406 132.292969 L 113.890625 131.988281 L 114.046875 131.386719 L 114.359375 130.179688 C 114.414062 129.980469 114.457031 129.777344 114.496094 129.574219 L 114.625 128.964844 L 114.878906 127.746094 C 114.925781 127.542969 114.953125 127.339844 114.984375 127.132812 L 115.085938 126.519531 L 115.285156 125.292969 L 115.308594 125.140625 L 115.328125 124.984375 L 115.433594 124.058594 L 115.574219 122.820312 C 115.640625 121.996094 115.691406 121.167969 115.753906 120.34375 L 115.808594 117.855469 L 115.753906 115.371094 C 115.691406 114.542969 115.640625 113.714844 115.574219 112.890625 L 115.433594 111.652344 L 115.328125 110.726562 L 115.3125 110.570312 L 115.285156 110.417969 L 115.085938 109.191406 L 114.988281 108.578125 C 114.953125 108.371094 114.925781 108.167969 114.878906 107.964844 L 114.625 106.746094 L 114.5 106.136719 C 114.457031 105.933594 114.414062 105.730469 114.359375 105.53125 L 114.046875 104.324219 L 113.894531 103.722656 L 113.816406 103.421875 C 113.789062 103.320312 113.757812 103.222656 113.726562 103.121094 L 113.359375 101.933594 L 113.175781 101.335938 L 113.082031 101.039062 L 112.980469 100.746094 L 112.558594 99.570312 L 112.351562 98.984375 C 112.316406 98.886719 112.28125 98.785156 112.246094 98.691406 L 112.125 98.402344 L 111.652344 97.25 L 111.414062 96.671875 C 111.371094 96.578125 111.335938 96.480469 111.289062 96.382812 L 111.15625 96.101562 L 110.625 94.972656 C 110.441406 94.597656 110.285156 94.210938 110.082031 93.847656 L 109.5 92.742188 L 109.210938 92.1875 C 109.160156 92.09375 109.113281 92 109.0625 91.910156 L 108.90625 91.640625 L 108.269531 90.5625 L 107.789062 89.753906 L 107.617188 89.492188 C 105.847656 86.65625 103.792969 83.992188 101.535156 81.492188 " fill-opacity="1" fill-rule="nonzero"/><path fill="#FFFFFF" d="M 28.808594 154.21875 C 26.3125 151.957031 24.074219 149.394531 22.105469 146.632812 L 21.917969 146.378906 L 21.390625 145.582031 L 20.691406 144.519531 L 20.515625 144.253906 C 20.460938 144.164062 20.40625 144.070312 20.351562 143.980469 L 20.03125 143.429688 L 19.222656 142.058594 C 19.167969 141.964844 19.121094 141.871094 19.070312 141.777344 L 18.191406 140.078125 L 18.046875 139.796875 C 18 139.699219 17.957031 139.601562 17.914062 139.503906 L 17.648438 138.925781 L 17.121094 137.761719 C 14.40625 131.515625 13.007812 124.683594 13.007812 117.855469 C 13.007812 111.027344 14.402344 104.195312 17.117188 97.949219 L 17.644531 96.785156 L 17.910156 96.207031 C 17.957031 96.109375 17.996094 96.011719 18.042969 95.914062 L 18.191406 95.632812 L 18.773438 94.5 L 19.070312 93.933594 C 19.121094 93.839844 19.164062 93.742188 19.21875 93.652344 L 19.378906 93.378906 L 20.027344 92.28125 L 20.351562 91.730469 C 20.40625 91.640625 20.457031 91.546875 20.515625 91.457031 L 20.691406 91.191406 L 21.390625 90.128906 L 21.914062 89.332031 L 22.105469 89.078125 C 24.074219 86.316406 26.3125 83.753906 28.808594 81.492188 C 26.554688 83.996094 24.496094 86.65625 22.726562 89.492188 L 22.554688 89.753906 L 22.398438 90.027344 L 22.078125 90.566406 L 21.441406 91.644531 L 21.28125 91.910156 C 21.230469 92.003906 21.183594 92.097656 21.136719 92.1875 L 20.84375 92.742188 L 20.265625 93.847656 L 20.117188 94.125 C 20.070312 94.21875 20.03125 94.3125 19.984375 94.40625 L 19.722656 94.972656 L 19.1875 96.101562 L 19.054688 96.386719 C 19.011719 96.480469 18.976562 96.578125 18.933594 96.671875 L 18.695312 97.25 L 18.21875 98.402344 L 18.101562 98.691406 C 18.0625 98.789062 18.03125 98.886719 17.996094 98.984375 L 17.785156 99.570312 L 17.367188 100.746094 L 17.261719 101.039062 L 17.171875 101.335938 L 16.988281 101.933594 L 16.621094 103.121094 C 16.589844 103.222656 16.558594 103.320312 16.53125 103.421875 L 16.296875 104.324219 L 15.988281 105.53125 C 15.929688 105.730469 15.890625 105.933594 15.847656 106.136719 L 15.722656 106.746094 L 15.464844 107.964844 C 15.417969 108.167969 15.390625 108.371094 15.359375 108.578125 L 15.257812 109.191406 L 15.058594 110.417969 L 15.035156 110.574219 L 15.015625 110.726562 L 14.910156 111.652344 L 14.769531 112.890625 C 14.703125 113.714844 14.652344 114.542969 14.59375 115.371094 L 14.535156 117.855469 L 14.589844 120.34375 C 14.652344 121.167969 14.703125 121.996094 14.769531 122.824219 L 15.015625 124.984375 L 15.035156 125.140625 L 15.058594 125.292969 L 15.257812 126.519531 L 15.355469 127.136719 C 15.390625 127.339844 15.417969 127.546875 15.464844 127.746094 L 15.71875 128.964844 L 15.847656 129.574219 C 15.886719 129.777344 15.929688 129.980469 15.984375 130.179688 L 16.296875 131.386719 L 16.449219 131.988281 L 16.527344 132.292969 C 16.554688 132.390625 16.589844 132.488281 16.617188 132.589844 L 16.984375 133.78125 L 17.167969 134.375 L 17.261719 134.671875 L 17.363281 134.964844 L 17.785156 136.140625 L 17.992188 136.726562 C 18.027344 136.824219 18.0625 136.925781 18.097656 137.019531 L 18.21875 137.308594 L 18.695312 138.460938 L 18.933594 139.039062 C 18.972656 139.136719 19.007812 139.234375 19.054688 139.328125 L 19.1875 139.609375 L 19.71875 140.738281 C 19.902344 141.113281 20.058594 141.5 20.261719 141.863281 L 20.84375 142.96875 L 21.132812 143.523438 C 21.183594 143.617188 21.230469 143.710938 21.28125 143.800781 L 21.441406 144.070312 L 22.078125 145.148438 L 22.394531 145.6875 L 22.554688 145.957031 L 22.726562 146.21875 C 24.496094 149.054688 26.550781 151.71875 28.808594 154.21875 " fill-opacity="1" fill-rule="nonzero"/><path fill="#FFFFFF" d="M 94.800781 88.226562 C 95.3125 88.683594 95.820312 89.152344 96.328125 89.617188 C 96.816406 90.101562 97.289062 90.605469 97.773438 91.097656 C 97.898438 91.222656 98.007812 91.355469 98.121094 91.484375 L 98.460938 91.875 L 99.140625 92.664062 C 99.195312 92.730469 99.253906 92.792969 99.308594 92.863281 L 99.464844 93.066406 L 99.78125 93.480469 L 100.417969 94.304688 C 102.0625 96.542969 103.464844 98.96875 104.601562 101.523438 C 106.875 106.628906 108.054688 112.242188 108.054688 117.855469 C 108.054688 123.46875 106.875 129.082031 104.605469 134.191406 C 103.46875 136.746094 102.066406 139.171875 100.417969 141.410156 L 99.785156 142.234375 L 99.46875 142.644531 L 99.308594 142.851562 C 99.253906 142.917969 99.195312 142.984375 99.140625 143.050781 L 98.460938 143.835938 L 98.125 144.230469 C 98.007812 144.359375 97.898438 144.492188 97.777344 144.613281 C 97.292969 145.109375 96.816406 145.609375 96.332031 146.097656 C 95.820312 146.5625 95.316406 147.03125 94.800781 147.484375 C 95.234375 146.945312 95.671875 146.421875 96.105469 145.894531 C 96.527344 145.351562 96.933594 144.804688 97.347656 144.261719 C 97.453125 144.128906 97.546875 143.984375 97.640625 143.84375 L 97.933594 143.421875 L 98.511719 142.582031 C 98.5625 142.511719 98.609375 142.445312 98.65625 142.371094 L 98.792969 142.15625 L 99.0625 141.726562 L 99.601562 140.863281 C 101.003906 138.539062 102.195312 136.105469 103.152344 133.59375 C 105.070312 128.5625 106.050781 123.210938 106.054688 117.855469 C 106.054688 112.5 105.074219 107.148438 103.15625 102.117188 C 102.199219 99.601562 101.007812 97.167969 99.605469 94.847656 L 99.0625 93.984375 L 98.792969 93.554688 L 98.65625 93.335938 C 98.613281 93.265625 98.5625 93.199219 98.515625 93.128906 L 97.933594 92.289062 L 97.644531 91.867188 C 97.546875 91.726562 97.453125 91.582031 97.347656 91.449219 C 96.9375 90.90625 96.527344 90.359375 96.105469 89.816406 C 95.671875 89.289062 95.234375 88.765625 94.800781 88.226562 " fill-opacity="1" fill-rule="nonzero"/><path fill="#FFFFFF" d="M 35.542969 147.484375 C 35.03125 147.027344 34.527344 146.558594 34.015625 146.09375 C 33.527344 145.609375 33.054688 145.109375 32.570312 144.613281 C 32.445312 144.492188 32.335938 144.359375 32.222656 144.226562 L 31.882812 143.835938 L 31.207031 143.046875 C 31.148438 142.984375 31.089844 142.917969 31.035156 142.851562 L 30.878906 142.644531 L 30.5625 142.234375 L 29.925781 141.40625 C 28.28125 139.171875 26.878906 136.742188 25.742188 134.191406 C 23.46875 129.082031 22.292969 123.46875 22.289062 117.855469 C 22.289062 112.242188 23.46875 106.628906 25.738281 101.519531 C 26.875 98.96875 28.28125 96.539062 29.925781 94.304688 L 30.558594 93.476562 L 30.875 93.066406 L 31.035156 92.859375 C 31.089844 92.792969 31.148438 92.726562 31.203125 92.660156 L 31.882812 91.875 L 32.222656 91.484375 C 32.335938 91.351562 32.445312 91.21875 32.570312 91.097656 C 33.050781 90.601562 33.527344 90.101562 34.015625 89.617188 C 34.527344 89.152344 35.03125 88.683594 35.542969 88.226562 C 35.113281 88.765625 34.671875 89.289062 34.238281 89.820312 C 33.816406 90.359375 33.410156 90.910156 32.996094 91.449219 C 32.890625 91.582031 32.800781 91.726562 32.703125 91.867188 L 32.414062 92.289062 L 31.832031 93.128906 C 31.785156 93.199219 31.734375 93.265625 31.6875 93.339844 L 31.554688 93.554688 L 31.28125 93.988281 L 30.742188 94.847656 C 29.339844 97.171875 28.148438 99.605469 27.191406 102.121094 C 25.273438 107.148438 24.292969 112.5 24.289062 117.855469 C 24.289062 123.210938 25.269531 128.5625 27.191406 133.59375 C 28.144531 136.109375 29.335938 138.542969 30.738281 140.863281 L 31.28125 141.726562 L 31.550781 142.15625 L 31.6875 142.375 C 31.734375 142.445312 31.78125 142.515625 31.832031 142.585938 L 32.410156 143.421875 L 32.699219 143.84375 C 32.796875 143.984375 32.890625 144.128906 32.996094 144.261719 C 33.410156 144.804688 33.816406 145.351562 34.238281 145.894531 C 34.671875 146.421875 35.109375 146.949219 35.542969 147.484375 " fill-opacity="1" fill-rule="nonzero"/><path fill="#FFFFFF" d="M 88.066406 94.960938 C 91.449219 97.578125 94.171875 101.117188 96.019531 105.078125 C 97.867188 109.046875 98.828125 113.449219 98.828125 117.855469 C 98.832031 122.261719 97.867188 126.667969 96.019531 130.636719 C 94.175781 134.597656 91.453125 138.136719 88.066406 140.75 C 88.378906 140.316406 88.699219 139.890625 89.015625 139.46875 L 89.921875 138.167969 C 90.210938 137.726562 90.488281 137.28125 90.769531 136.839844 C 91.046875 136.398438 91.300781 135.9375 91.5625 135.492188 C 92.585938 133.675781 93.449219 131.792969 94.140625 129.859375 C 95.53125 125.996094 96.238281 121.925781 96.242188 117.855469 C 96.242188 113.785156 95.535156 109.714844 94.144531 105.851562 C 93.453125 103.917969 92.585938 102.035156 91.566406 100.21875 C 91.304688 99.769531 91.046875 99.3125 90.773438 98.867188 C 90.488281 98.429688 90.210938 97.984375 89.921875 97.542969 L 89.019531 96.242188 C 88.699219 95.820312 88.378906 95.398438 88.066406 94.960938 " fill-opacity="1" fill-rule="nonzero"/><path fill="#FFFFFF" d="M 42.277344 140.75 C 38.894531 138.132812 36.171875 134.597656 34.328125 130.632812 C 32.480469 126.667969 31.515625 122.261719 31.515625 117.855469 C 31.511719 113.449219 32.476562 109.042969 34.324219 105.078125 C 36.167969 101.113281 38.890625 97.574219 42.277344 94.960938 C 41.964844 95.398438 41.644531 95.820312 41.328125 96.242188 L 40.421875 97.542969 C 40.132812 97.984375 39.855469 98.429688 39.574219 98.871094 C 39.296875 99.316406 39.042969 99.773438 38.78125 100.21875 C 37.761719 102.035156 36.894531 103.917969 36.203125 105.851562 C 34.8125 109.71875 34.105469 113.785156 34.101562 117.855469 C 34.101562 121.925781 34.808594 125.996094 36.199219 129.859375 C 36.890625 131.792969 37.757812 133.675781 38.777344 135.492188 C 39.042969 135.941406 39.296875 136.398438 39.570312 136.84375 C 39.855469 137.28125 40.132812 137.730469 40.421875 138.167969 L 41.328125 139.46875 C 41.644531 139.890625 41.964844 140.316406 42.277344 140.75 " fill-opacity="1" fill-rule="nonzero"/><path fill="#FFFFFF" d="M 81.332031 101.695312 C 81.65625 101.902344 81.96875 102.125 82.28125 102.347656 C 82.585938 102.582031 82.882812 102.828125 83.179688 103.078125 C 83.46875 103.332031 83.742188 103.605469 84.027344 103.871094 C 84.167969 104.003906 84.292969 104.152344 84.425781 104.292969 L 84.820312 104.726562 L 84.917969 104.835938 L 85.191406 105.175781 L 85.558594 105.632812 C 85.6875 105.785156 85.792969 105.949219 85.90625 106.109375 L 86.242188 106.59375 C 86.46875 106.914062 86.664062 107.257812 86.871094 107.59375 C 86.976562 107.757812 87.0625 107.9375 87.160156 108.109375 L 87.4375 108.632812 C 88.863281 111.460938 89.601562 114.660156 89.605469 117.855469 C 89.605469 121.050781 88.867188 124.253906 87.441406 127.078125 L 87.164062 127.605469 C 87.066406 127.777344 86.980469 127.953125 86.875 128.121094 L 86.566406 128.625 C 86.464844 128.792969 86.363281 128.960938 86.246094 129.121094 L 85.910156 129.605469 C 85.796875 129.765625 85.691406 129.929688 85.5625 130.078125 L 85.195312 130.539062 L 85.015625 130.765625 C 84.953125 130.839844 84.890625 130.917969 84.824219 130.988281 L 84.429688 131.417969 L 84.230469 131.632812 C 84.167969 131.707031 84.101562 131.773438 84.027344 131.839844 C 83.746094 132.109375 83.472656 132.382812 83.179688 132.636719 C 82.882812 132.886719 82.585938 133.128906 82.285156 133.367188 C 81.96875 133.589844 81.65625 133.8125 81.332031 134.015625 C 81.527344 133.683594 81.730469 133.359375 81.929688 133.042969 C 82.121094 132.71875 82.304688 132.390625 82.496094 132.074219 L 83.03125 131.101562 C 83.203125 130.773438 83.363281 130.445312 83.527344 130.121094 C 83.6875 129.792969 83.832031 129.460938 83.984375 129.132812 C 84.132812 128.804688 84.265625 128.46875 84.40625 128.140625 C 84.480469 127.976562 84.535156 127.800781 84.597656 127.636719 L 84.785156 127.136719 C 84.855469 126.972656 84.902344 126.800781 84.960938 126.628906 L 85.128906 126.125 C 85.988281 123.421875 86.429688 120.640625 86.429688 117.855469 C 86.429688 115.070312 85.992188 112.289062 85.132812 109.585938 C 85.015625 109.25 84.917969 108.90625 84.789062 108.574219 L 84.601562 108.074219 C 84.539062 107.90625 84.484375 107.734375 84.410156 107.570312 C 84.269531 107.242188 84.136719 106.90625 83.992188 106.574219 C 83.835938 106.25 83.691406 105.914062 83.53125 105.589844 C 83.363281 105.265625 83.203125 104.933594 83.03125 104.609375 L 82.5 103.636719 C 82.308594 103.320312 82.121094 102.992188 81.929688 102.667969 C 81.730469 102.351562 81.527344 102.027344 81.332031 101.695312 " fill-opacity="1" fill-rule="nonzero"/><path fill="#FFFFFF" d="M 49.011719 134.015625 C 48.6875 133.808594 48.375 133.589844 48.0625 133.363281 C 47.757812 133.128906 47.460938 132.882812 47.164062 132.632812 C 46.875 132.382812 46.601562 132.105469 46.320312 131.839844 C 46.175781 131.707031 46.050781 131.558594 45.917969 131.417969 L 45.523438 130.984375 L 45.425781 130.875 L 45.335938 130.761719 L 45.152344 130.535156 L 44.785156 130.078125 C 44.65625 129.925781 44.550781 129.761719 44.4375 129.601562 L 44.101562 129.121094 C 43.875 128.796875 43.683594 128.453125 43.472656 128.121094 C 43.367188 127.953125 43.28125 127.773438 43.1875 127.601562 L 42.910156 127.078125 C 41.480469 124.25 40.742188 121.050781 40.742188 117.855469 C 40.738281 114.660156 41.476562 111.460938 42.90625 108.632812 L 43.183594 108.109375 C 43.277344 107.933594 43.363281 107.757812 43.46875 107.589844 L 43.777344 107.085938 C 43.882812 106.917969 43.980469 106.75 44.097656 106.589844 L 44.433594 106.105469 C 44.550781 105.949219 44.652344 105.78125 44.78125 105.632812 L 45.148438 105.175781 L 45.332031 104.945312 C 45.390625 104.871094 45.453125 104.796875 45.519531 104.722656 L 45.917969 104.292969 L 46.113281 104.078125 C 46.175781 104.007812 46.246094 103.9375 46.316406 103.871094 C 46.601562 103.601562 46.871094 103.328125 47.164062 103.078125 C 47.460938 102.828125 47.757812 102.582031 48.058594 102.347656 C 48.375 102.121094 48.6875 101.902344 49.011719 101.695312 C 48.816406 102.03125 48.617188 102.351562 48.414062 102.667969 C 48.222656 102.992188 48.039062 103.320312 47.847656 103.636719 L 47.3125 104.609375 C 47.140625 104.9375 46.980469 105.265625 46.816406 105.589844 C 46.65625 105.917969 46.511719 106.25 46.359375 106.578125 C 46.210938 106.90625 46.078125 107.242188 45.9375 107.574219 C 45.863281 107.734375 45.8125 107.910156 45.746094 108.074219 L 45.558594 108.574219 C 45.488281 108.738281 45.441406 108.914062 45.382812 109.082031 L 45.214844 109.585938 C 44.355469 112.289062 43.917969 115.070312 43.914062 117.855469 C 43.914062 120.640625 44.351562 123.425781 45.210938 126.128906 C 45.328125 126.460938 45.425781 126.804688 45.554688 127.136719 L 45.742188 127.636719 C 45.808594 127.804688 45.859375 127.976562 45.933594 128.140625 C 46.074219 128.46875 46.207031 128.804688 46.355469 129.136719 C 46.507812 129.460938 46.652344 129.796875 46.8125 130.121094 C 46.980469 130.445312 47.140625 130.777344 47.3125 131.101562 L 47.84375 132.074219 C 48.039062 132.390625 48.222656 132.71875 48.414062 133.042969 C 48.613281 133.363281 48.816406 133.683594 49.011719 134.015625 " fill-opacity="1" fill-rule="nonzero"/><g clip-path="url(#1ace35bab2)"><g transform="matrix(1, 0, 0, 1, 2, 56)"><g clip-path="url(#63f5059c51)"><g clip-path="url(#c2cd41a85c)"><path fill="#FFFFFF" d="M 4.421875 61.300781 C 4.429688 54.992188 5.394531 48.699219 7.328125 42.691406 C 9.183594 36.925781 11.917969 31.445312 15.398438 26.484375 C 18.855469 21.554688 23.046875 17.144531 27.792969 13.441406 C 32.554688 9.722656 37.867188 6.722656 43.511719 4.574219 C 44.964844 4.019531 46.441406 3.519531 47.933594 3.085938 C 48.011719 3.0625 48.089844 3.042969 48.167969 3.019531 C 47.652344 3.167969 45.996094 3.574219 46.589844 3.441406 C 46.394531 3.484375 46.523438 3.460938 46.632812 3.433594 C 47.015625 3.339844 47.398438 3.25 47.785156 3.164062 C 48.566406 2.992188 49.351562 2.832031 50.140625 2.691406 C 53.28125 2.125 56.46875 1.8125 59.664062 1.746094 C 65.960938 1.613281 72.273438 2.453125 78.308594 4.25 C 84.152344 5.992188 89.71875 8.625 94.777344 12.027344 C 99.753906 15.375 104.226562 19.460938 108.015625 24.105469 C 111.84375 28.804688 114.960938 34.074219 117.234375 39.691406 C 119.558594 45.445312 120.980469 51.554688 121.453125 57.742188 C 121.9375 64.085938 121.433594 70.507812 119.941406 76.695312 C 118.511719 82.621094 116.179688 88.320312 113.046875 93.550781 C 109.949219 98.71875 106.082031 103.421875 101.609375 107.464844 C 97.144531 111.496094 92.082031 114.863281 86.628906 117.414062 C 83.855469 118.710938 80.980469 119.792969 78.042969 120.652344 C 77.25 120.886719 80.402344 120.042969 79.3125 120.3125 C 78.910156 120.410156 78.507812 120.5 78.109375 120.589844 C 77.324219 120.757812 76.542969 120.914062 75.75 121.054688 C 74.191406 121.332031 72.617188 121.546875 71.039062 121.699219 C 64.722656 122.3125 58.3125 121.945312 52.109375 120.589844 C 46.117188 119.285156 40.332031 117.054688 35.007812 114.007812 C 29.800781 111.027344 25.039062 107.269531 20.921875 102.898438 C 16.78125 98.503906 13.296875 93.492188 10.632812 88.070312 C 7.914062 82.554688 6.050781 76.628906 5.125 70.550781 C 4.652344 67.492188 4.425781 64.398438 4.421875 61.300781 C 4.421875 61.359375 2.503906 61.792969 2.335938 61.835938 C 2.160156 61.886719 0.261719 62.285156 0.261719 62.417969 C 0.269531 68.835938 1.269531 75.234375 3.269531 81.335938 C 5.199219 87.214844 8.039062 92.792969 11.652344 97.816406 C 15.246094 102.8125 19.601562 107.257812 24.519531 110.953125 C 29.460938 114.667969 34.96875 117.625 40.796875 119.675781 C 46.828125 121.796875 53.1875 122.945312 59.578125 123.085938 C 62.851562 123.15625 66.132812 122.972656 69.375 122.519531 C 73.242188 121.984375 77.007812 121.003906 80.765625 119.960938 C 86.8125 118.277344 92.582031 115.789062 97.871094 112.390625 C 103.046875 109.0625 107.714844 104.945312 111.667969 100.222656 C 115.621094 95.5 118.855469 90.171875 121.210938 84.476562 C 123.632812 78.617188 125.117188 72.378906 125.605469 66.058594 C 126.109375 59.605469 125.585938 53.070312 124.042969 46.78125 C 122.558594 40.734375 120.128906 34.929688 116.875 29.621094 C 113.65625 24.371094 109.636719 19.617188 104.996094 15.570312 C 100.359375 11.519531 95.105469 8.179688 89.46875 5.707031 C 83.679688 3.164062 77.496094 1.546875 71.207031 0.917969 C 64.78125 0.277344 58.257812 0.660156 51.953125 2.042969 C 45.058594 3.558594 38.261719 5.667969 32.039062 9.046875 C 26.621094 11.988281 21.65625 15.757812 17.367188 20.1875 C 13.089844 24.597656 9.488281 29.65625 6.722656 35.140625 C 3.894531 40.75 1.953125 46.796875 0.988281 53 C 0.503906 56.113281 0.265625 59.265625 0.261719 62.417969 C 0.261719 62.359375 2.179688 61.925781 2.347656 61.878906 C 2.527344 61.832031 4.421875 61.433594 4.421875 61.300781 " fill-opacity="1" fill-rule="nonzero"/></g></g></g></g><g clip-path="url(#7929f6dfe8)"><path fill="#FFFFFF" d="M 22.375 74.871094 C 25.117188 71.988281 28.175781 69.390625 31.460938 67.121094 C 33.105469 65.988281 34.808594 64.9375 36.558594 63.972656 C 38.3125 63.007812 40.117188 62.144531 41.960938 61.359375 C 45.644531 59.792969 49.496094 58.621094 53.421875 57.820312 C 57.351562 57.027344 61.359375 56.636719 65.367188 56.625 C 69.375 56.632812 73.382812 57.027344 77.3125 57.820312 C 79.277344 58.21875 81.222656 58.714844 83.136719 59.304688 C 84.09375 59.597656 85.042969 59.914062 85.984375 60.257812 C 86.921875 60.601562 87.855469 60.96875 88.777344 61.359375 C 90.617188 62.140625 92.425781 63.007812 94.175781 63.972656 C 95.925781 64.9375 97.632812 65.988281 99.277344 67.121094 C 102.558594 69.390625 105.617188 71.988281 108.359375 74.871094 C 105.46875 72.136719 102.351562 69.652344 99.019531 67.5 C 97.355469 66.421875 95.644531 65.425781 93.886719 64.515625 C 92.128906 63.605469 90.332031 62.773438 88.496094 62.035156 C 87.578125 61.667969 86.652344 61.320312 85.71875 61 C 84.785156 60.671875 83.84375 60.371094 82.898438 60.089844 C 81.003906 59.53125 79.082031 59.0625 77.140625 58.691406 C 73.265625 57.9375 69.316406 57.554688 65.367188 57.5625 C 61.417969 57.554688 57.46875 57.9375 53.59375 58.691406 C 49.710938 59.429688 45.910156 60.566406 42.238281 62.035156 C 40.402344 62.769531 38.605469 63.605469 36.847656 64.515625 C 35.089844 65.421875 33.375 66.421875 31.714844 67.5 C 28.382812 69.652344 25.265625 72.132812 22.375 74.871094 " fill-opacity="1" fill-rule="nonzero"/></g><g clip-path="url(#1354ef0699)"><path fill="#FFFFFF" d="M 108.359375 160.855469 C 105.617188 163.738281 102.558594 166.335938 99.273438 168.605469 C 97.628906 169.738281 95.925781 170.789062 94.175781 171.753906 C 92.421875 172.71875 90.617188 173.582031 88.773438 174.367188 C 85.089844 175.933594 81.238281 177.105469 77.3125 177.90625 C 73.386719 178.699219 69.375 179.09375 65.367188 179.101562 C 61.359375 179.09375 57.351562 178.699219 53.421875 177.90625 C 51.457031 177.507812 49.515625 177.011719 47.597656 176.425781 C 46.640625 176.128906 45.691406 175.8125 44.75 175.46875 C 43.8125 175.125 42.878906 174.757812 41.957031 174.367188 C 40.117188 173.585938 38.308594 172.71875 36.558594 171.753906 C 34.808594 170.789062 33.105469 169.742188 31.457031 168.609375 C 28.175781 166.335938 25.117188 163.738281 22.375 160.855469 C 25.265625 163.59375 28.382812 166.074219 31.714844 168.226562 C 33.378906 169.304688 35.089844 170.300781 36.847656 171.210938 C 38.605469 172.121094 40.402344 172.953125 42.238281 173.691406 C 43.15625 174.058594 44.082031 174.40625 45.015625 174.726562 C 45.949219 175.054688 46.890625 175.359375 47.835938 175.636719 C 49.730469 176.199219 51.652344 176.664062 53.59375 177.035156 C 57.46875 177.789062 61.417969 178.171875 65.367188 178.164062 C 69.316406 178.171875 73.265625 177.789062 77.140625 177.039062 C 81.023438 176.296875 84.824219 175.160156 88.496094 173.691406 C 90.332031 172.957031 92.128906 172.121094 93.886719 171.214844 C 95.644531 170.304688 97.359375 169.304688 99.019531 168.226562 C 102.351562 166.078125 105.46875 163.59375 108.359375 160.855469 " fill-opacity="1" fill-rule="nonzero"/></g><path fill="#FFFFFF" d="M 29.09375 81.589844 C 31.351562 79.101562 33.90625 76.867188 36.660156 74.902344 L 36.914062 74.714844 L 37.179688 74.539062 L 37.710938 74.191406 L 38.769531 73.492188 L 39.035156 73.316406 C 39.125 73.261719 39.214844 73.210938 39.308594 73.15625 L 39.855469 72.832031 L 40.949219 72.1875 L 41.222656 72.027344 C 41.316406 71.972656 41.410156 71.925781 41.503906 71.875 L 42.070312 71.582031 L 43.199219 71 L 43.484375 70.855469 C 43.578125 70.804688 43.675781 70.765625 43.769531 70.71875 L 44.351562 70.457031 L 45.507812 69.929688 C 51.742188 67.222656 58.554688 65.828125 65.367188 65.828125 C 72.179688 65.828125 78.992188 67.21875 85.226562 69.929688 L 86.386719 70.457031 L 86.964844 70.71875 C 87.058594 70.761719 87.15625 70.804688 87.253906 70.851562 L 87.535156 71 L 88.667969 71.582031 L 89.230469 71.875 C 89.324219 71.925781 89.417969 71.96875 89.511719 72.023438 L 90.878906 72.832031 L 91.429688 73.152344 C 91.519531 73.207031 91.609375 73.257812 91.699219 73.316406 L 91.964844 73.492188 L 93.027344 74.1875 L 93.554688 74.539062 L 93.820312 74.714844 L 94.074219 74.902344 C 96.828125 76.867188 99.382812 79.097656 101.640625 81.589844 C 99.144531 79.339844 96.488281 77.289062 93.660156 75.523438 L 93.398438 75.351562 L 93.128906 75.195312 L 92.589844 74.875 L 91.515625 74.242188 L 91.246094 74.082031 C 91.15625 74.03125 91.0625 73.984375 90.972656 73.9375 L 89.3125 73.066406 L 89.039062 72.921875 C 88.945312 72.875 88.851562 72.832031 88.757812 72.789062 L 88.191406 72.523438 L 86.785156 71.859375 C 86.691406 71.816406 86.59375 71.78125 86.496094 71.738281 L 85.921875 71.503906 L 84.773438 71.027344 L 84.484375 70.910156 C 84.386719 70.871094 84.289062 70.839844 84.191406 70.804688 L 83.605469 70.59375 L 82.433594 70.175781 L 82.140625 70.074219 L 81.84375 69.980469 L 80.0625 69.429688 C 79.964844 69.402344 79.867188 69.371094 79.765625 69.339844 L 79.464844 69.265625 L 78.863281 69.109375 L 77.660156 68.800781 C 77.460938 68.742188 77.257812 68.703125 77.058594 68.660156 L 76.449219 68.535156 L 75.234375 68.28125 C 75.03125 68.234375 74.828125 68.207031 74.621094 68.171875 L 74.011719 68.074219 L 72.785156 67.875 L 72.632812 67.851562 L 72.476562 67.832031 L 72.171875 67.796875 L 70.320312 67.585938 C 69.496094 67.519531 68.671875 67.46875 67.847656 67.410156 L 65.367188 67.351562 L 62.886719 67.410156 C 62.0625 67.46875 61.238281 67.519531 60.414062 67.585938 L 58.253906 67.832031 L 58.101562 67.847656 L 57.949219 67.875 L 56.722656 68.074219 L 56.113281 68.171875 C 55.90625 68.207031 55.703125 68.230469 55.5 68.277344 L 54.285156 68.53125 L 53.675781 68.660156 C 53.472656 68.703125 53.273438 68.742188 53.074219 68.796875 L 51.871094 69.109375 L 51.269531 69.261719 L 50.96875 69.339844 C 50.867188 69.367188 50.769531 69.398438 50.671875 69.429688 L 48.890625 69.980469 L 48.589844 70.070312 L 48.296875 70.175781 L 47.128906 70.59375 L 46.542969 70.800781 C 46.445312 70.835938 46.34375 70.871094 46.25 70.90625 L 45.960938 71.027344 L 44.8125 71.5 L 44.234375 71.738281 C 44.140625 71.777344 44.042969 71.816406 43.949219 71.859375 L 42.542969 72.523438 C 42.167969 72.707031 41.78125 72.863281 41.417969 73.066406 L 40.316406 73.644531 L 39.761719 73.933594 C 39.671875 73.984375 39.578125 74.03125 39.488281 74.082031 L 39.21875 74.238281 L 38.140625 74.875 L 37.605469 75.191406 L 37.335938 75.351562 L 37.074219 75.523438 C 34.246094 77.289062 31.589844 79.339844 29.09375 81.589844 " fill-opacity="1" fill-rule="nonzero"/><path fill="#FFFFFF" d="M 101.640625 154.136719 C 99.382812 156.628906 96.828125 158.859375 94.074219 160.824219 L 93.820312 161.011719 L 93.554688 161.1875 L 93.023438 161.535156 L 91.964844 162.234375 L 91.699219 162.410156 C 91.609375 162.464844 91.515625 162.519531 91.425781 162.570312 L 90.878906 162.894531 L 89.511719 163.699219 C 89.417969 163.753906 89.324219 163.800781 89.230469 163.851562 L 88.664062 164.144531 L 87.535156 164.726562 L 87.253906 164.871094 C 87.15625 164.921875 87.058594 164.960938 86.964844 165.007812 L 86.382812 165.269531 L 85.226562 165.796875 C 78.992188 168.503906 72.179688 169.898438 65.367188 169.898438 C 58.554688 169.898438 51.742188 168.507812 45.507812 165.800781 L 44.351562 165.273438 L 43.769531 165.007812 C 43.675781 164.964844 43.578125 164.921875 43.480469 164.875 L 43.199219 164.730469 L 42.066406 164.144531 L 41.503906 163.851562 C 41.410156 163.800781 41.316406 163.757812 41.222656 163.703125 L 40.949219 163.542969 L 39.855469 162.898438 L 39.308594 162.574219 C 39.214844 162.519531 39.125 162.46875 39.035156 162.410156 L 38.769531 162.234375 L 37.707031 161.539062 L 36.914062 161.015625 L 36.660156 160.824219 C 33.90625 158.859375 31.351562 156.628906 29.09375 154.136719 C 31.589844 156.386719 34.246094 158.4375 37.074219 160.203125 L 37.335938 160.375 L 37.605469 160.535156 L 38.144531 160.851562 L 39.21875 161.484375 L 39.488281 161.644531 C 39.578125 161.695312 39.671875 161.742188 39.761719 161.789062 L 40.316406 162.082031 L 41.417969 162.660156 L 41.695312 162.804688 C 41.789062 162.851562 41.882812 162.894531 41.976562 162.9375 L 42.542969 163.203125 L 43.949219 163.867188 C 44.042969 163.910156 44.140625 163.945312 44.238281 163.988281 L 44.8125 164.222656 L 45.960938 164.699219 L 46.25 164.816406 C 46.347656 164.855469 46.445312 164.886719 46.542969 164.925781 L 47.128906 165.132812 L 48.300781 165.550781 L 48.59375 165.65625 L 48.890625 165.746094 L 50.671875 166.296875 C 50.769531 166.324219 50.867188 166.359375 50.96875 166.386719 L 51.871094 166.617188 L 53.074219 166.925781 C 53.273438 166.984375 53.476562 167.023438 53.679688 167.066406 L 54.285156 167.191406 L 55.5 167.445312 C 55.703125 167.492188 55.90625 167.519531 56.113281 167.554688 L 56.722656 167.652344 L 57.949219 167.851562 L 58.101562 167.878906 L 58.253906 167.894531 L 60.414062 168.140625 C 61.238281 168.207031 62.0625 168.257812 62.886719 168.316406 L 65.367188 168.375 L 67.847656 168.320312 C 68.671875 168.257812 69.496094 168.207031 70.320312 168.144531 L 71.554688 168 L 72.480469 167.894531 L 72.632812 167.878906 L 72.785156 167.851562 L 74.011719 167.652344 L 74.625 167.554688 C 74.828125 167.523438 75.03125 167.496094 75.234375 167.449219 L 76.449219 167.195312 L 77.058594 167.066406 C 77.261719 167.027344 77.460938 166.984375 77.660156 166.929688 L 78.863281 166.617188 L 79.464844 166.464844 L 79.765625 166.386719 C 79.867188 166.359375 79.964844 166.328125 80.0625 166.296875 L 81.25 165.929688 L 81.847656 165.75 L 82.140625 165.65625 L 82.433594 165.550781 L 83.605469 165.132812 L 84.191406 164.925781 C 84.289062 164.890625 84.386719 164.859375 84.484375 164.820312 L 84.773438 164.703125 L 85.921875 164.226562 L 86.5 163.988281 C 86.59375 163.949219 86.691406 163.914062 86.785156 163.867188 L 87.066406 163.734375 L 88.195312 163.203125 C 88.566406 163.023438 88.953125 162.863281 89.316406 162.664062 L 90.417969 162.082031 L 90.972656 161.792969 C 91.0625 161.742188 91.15625 161.699219 91.25 161.644531 L 91.515625 161.488281 L 92.589844 160.851562 L 93.128906 160.535156 L 93.398438 160.375 L 93.660156 160.203125 C 96.488281 158.4375 99.144531 156.386719 101.640625 154.136719 " fill-opacity="1" fill-rule="nonzero"/><path fill="#FFFFFF" d="M 35.8125 88.308594 C 36.265625 87.796875 36.734375 87.292969 37.199219 86.785156 C 37.683594 86.296875 38.183594 85.824219 38.675781 85.34375 C 38.796875 85.21875 38.929688 85.109375 39.0625 84.996094 L 39.453125 84.65625 L 40.238281 83.980469 C 40.304688 83.925781 40.367188 83.867188 40.433594 83.8125 L 40.640625 83.65625 L 41.050781 83.339844 L 41.875 82.707031 C 44.105469 81.066406 46.527344 79.664062 49.074219 78.53125 C 54.167969 76.265625 59.765625 75.089844 65.367188 75.089844 C 70.96875 75.085938 76.566406 76.261719 81.660156 78.527344 C 84.207031 79.660156 86.628906 81.0625 88.863281 82.703125 L 89.683594 83.335938 L 90.097656 83.652344 L 90.300781 83.8125 C 90.367188 83.867188 90.433594 83.921875 90.5 83.980469 L 91.285156 84.65625 L 91.675781 84.992188 C 91.804688 85.109375 91.9375 85.21875 92.058594 85.339844 C 92.550781 85.824219 93.050781 86.296875 93.539062 86.78125 C 94 87.292969 94.46875 87.796875 94.921875 88.308594 C 94.386719 87.878906 93.863281 87.4375 93.335938 87.007812 C 92.796875 86.585938 92.25 86.179688 91.707031 85.769531 C 91.574219 85.664062 91.429688 85.570312 91.289062 85.472656 L 90.035156 84.605469 C 89.964844 84.558594 89.894531 84.507812 89.824219 84.460938 L 89.609375 84.328125 L 89.175781 84.058594 L 88.316406 83.519531 C 86 82.121094 83.574219 80.929688 81.0625 79.976562 C 76.046875 78.0625 70.707031 77.085938 65.367188 77.082031 C 60.023438 77.082031 54.6875 78.058594 49.667969 79.976562 C 47.160156 80.929688 44.730469 82.117188 42.414062 83.515625 L 41.125 84.324219 L 40.910156 84.460938 C 40.839844 84.507812 40.769531 84.554688 40.699219 84.605469 L 39.863281 85.183594 L 39.441406 85.472656 C 39.300781 85.570312 39.160156 85.660156 39.027344 85.765625 C 38.484375 86.179688 37.9375 86.585938 37.398438 87.003906 C 36.871094 87.4375 36.347656 87.878906 35.8125 88.308594 " fill-opacity="1" fill-rule="nonzero"/><path fill="#FFFFFF" d="M 94.921875 147.417969 C 94.46875 147.933594 94 148.433594 93.535156 148.945312 C 93.050781 149.429688 92.550781 149.902344 92.058594 150.386719 C 91.9375 150.507812 91.804688 150.617188 91.675781 150.730469 L 91.28125 151.070312 L 90.496094 151.746094 C 90.433594 151.800781 90.367188 151.859375 90.300781 151.914062 L 90.09375 152.074219 L 89.683594 152.386719 L 88.859375 153.019531 C 86.628906 154.664062 84.207031 156.0625 81.660156 157.195312 C 76.566406 159.460938 70.96875 160.636719 65.367188 160.640625 C 59.765625 160.640625 54.167969 159.464844 49.070312 157.199219 C 46.527344 156.066406 44.105469 154.664062 41.871094 153.023438 L 41.050781 152.390625 L 40.636719 152.074219 L 40.433594 151.917969 C 40.367188 151.863281 40.300781 151.804688 40.234375 151.75 L 39.449219 151.070312 L 39.058594 150.734375 C 38.929688 150.617188 38.796875 150.507812 38.675781 150.386719 C 38.179688 149.902344 37.683594 149.429688 37.195312 148.945312 C 36.734375 148.433594 36.265625 147.933594 35.8125 147.417969 C 36.347656 147.847656 36.871094 148.289062 37.398438 148.722656 C 37.9375 149.140625 38.488281 149.546875 39.027344 149.960938 C 39.160156 150.066406 39.304688 150.15625 39.445312 150.253906 L 40.699219 151.121094 C 40.769531 151.167969 40.839844 151.21875 40.910156 151.265625 L 41.125 151.398438 L 41.558594 151.667969 L 42.417969 152.207031 C 44.734375 153.605469 47.160156 154.796875 49.671875 155.75 C 54.6875 157.664062 60.023438 158.644531 65.367188 158.644531 C 70.707031 158.644531 76.046875 157.667969 81.066406 155.753906 C 83.574219 154.796875 86.003906 153.609375 88.320312 152.210938 L 89.609375 151.402344 L 89.824219 151.265625 C 89.898438 151.21875 89.964844 151.171875 90.035156 151.121094 L 90.871094 150.542969 L 91.292969 150.253906 C 91.433594 150.160156 91.574219 150.066406 91.707031 149.960938 C 92.25 149.546875 92.796875 149.140625 93.335938 148.722656 C 93.863281 148.289062 94.386719 147.851562 94.921875 147.417969 " fill-opacity="1" fill-rule="nonzero"/><path fill="#FFFFFF" d="M 42.527344 95.023438 C 45.140625 91.652344 48.667969 88.9375 52.621094 87.09375 C 56.578125 85.25 60.972656 84.289062 65.367188 84.289062 C 69.761719 84.289062 74.15625 85.246094 78.113281 87.089844 C 82.066406 88.933594 85.597656 91.648438 88.207031 95.023438 C 87.769531 94.714844 87.347656 94.394531 86.925781 94.078125 L 85.628906 93.175781 C 85.1875 92.886719 84.742188 92.609375 84.304688 92.328125 C 83.863281 92.054688 83.40625 91.800781 82.960938 91.535156 C 81.148438 90.519531 79.269531 89.65625 77.339844 88.964844 C 73.484375 87.578125 69.425781 86.875 65.367188 86.871094 C 61.308594 86.871094 57.25 87.574219 53.390625 88.960938 C 51.460938 89.652344 49.585938 90.515625 47.773438 91.535156 C 47.328125 91.796875 46.871094 92.050781 46.425781 92.324219 C 45.988281 92.609375 45.542969 92.886719 45.105469 93.171875 L 43.808594 94.078125 C 43.386719 94.394531 42.964844 94.714844 42.527344 95.023438 " fill-opacity="1" fill-rule="nonzero"/><path fill="#FFFFFF" d="M 88.207031 140.703125 C 85.59375 144.078125 82.066406 146.789062 78.113281 148.632812 C 74.15625 150.476562 69.761719 151.4375 65.367188 151.4375 C 60.972656 151.441406 56.578125 150.480469 52.621094 148.636719 C 48.667969 146.792969 45.136719 144.078125 42.527344 140.703125 C 42.964844 141.011719 43.386719 141.332031 43.808594 141.648438 L 45.105469 142.550781 C 45.546875 142.839844 45.988281 143.117188 46.429688 143.398438 C 46.871094 143.671875 47.328125 143.925781 47.773438 144.191406 C 49.585938 145.207031 51.464844 146.070312 53.394531 146.761719 C 57.25 148.148438 61.308594 148.855469 65.367188 148.859375 C 69.429688 148.855469 73.484375 148.152344 77.34375 146.765625 C 79.273438 146.074219 81.148438 145.210938 82.960938 144.191406 C 83.40625 143.929688 83.863281 143.675781 84.308594 143.402344 C 84.746094 143.117188 85.191406 142.84375 85.628906 142.554688 L 86.925781 141.648438 C 87.347656 141.332031 87.769531 141.015625 88.207031 140.703125 " fill-opacity="1" fill-rule="nonzero"/><path fill="#FFFFFF" d="M 49.246094 101.742188 C 49.453125 101.421875 49.671875 101.109375 49.898438 100.796875 C 50.132812 100.492188 50.375 100.199219 50.625 99.902344 C 50.878906 99.609375 51.152344 99.339844 51.417969 99.058594 C 51.550781 98.914062 51.699219 98.792969 51.839844 98.65625 L 52.269531 98.265625 L 52.378906 98.164062 L 52.71875 97.890625 L 53.175781 97.527344 C 53.324219 97.398438 53.492188 97.292969 53.648438 97.179688 L 54.132812 96.84375 C 54.453125 96.621094 54.792969 96.425781 55.128906 96.21875 C 55.296875 96.113281 55.472656 96.027344 55.644531 95.933594 L 56.167969 95.65625 C 58.988281 94.230469 62.179688 93.492188 65.367188 93.492188 C 68.554688 93.488281 71.746094 94.226562 74.566406 95.652344 L 75.089844 95.929688 C 75.261719 96.023438 75.441406 96.109375 75.605469 96.214844 L 76.109375 96.523438 C 76.277344 96.625 76.445312 96.722656 76.605469 96.839844 L 77.085938 97.175781 C 77.246094 97.292969 77.410156 97.394531 77.558594 97.523438 L 78.015625 97.886719 L 78.246094 98.070312 C 78.320312 98.132812 78.394531 98.195312 78.464844 98.261719 L 78.894531 98.65625 L 79.109375 98.851562 C 79.183594 98.914062 79.253906 98.980469 79.316406 99.054688 C 79.585938 99.335938 79.859375 99.609375 80.109375 99.898438 C 80.359375 100.195312 80.605469 100.492188 80.839844 100.792969 C 81.0625 101.109375 81.28125 101.421875 81.488281 101.742188 C 81.152344 101.550781 80.835938 101.347656 80.515625 101.148438 C 80.191406 100.957031 79.867188 100.773438 79.550781 100.582031 L 78.578125 100.050781 C 78.253906 99.878906 77.925781 99.71875 77.601562 99.554688 C 77.277344 99.394531 76.941406 99.25 76.617188 99.097656 C 76.289062 98.949219 75.953125 98.816406 75.625 98.675781 C 75.460938 98.601562 75.289062 98.550781 75.125 98.484375 L 74.625 98.296875 C 74.460938 98.230469 74.289062 98.179688 74.121094 98.125 L 73.617188 97.957031 C 70.921875 97.097656 68.148438 96.660156 65.367188 96.65625 C 62.585938 96.65625 59.8125 97.09375 57.117188 97.949219 C 56.785156 98.070312 56.441406 98.167969 56.109375 98.292969 L 55.609375 98.480469 C 55.441406 98.546875 55.269531 98.597656 55.105469 98.671875 C 54.777344 98.8125 54.445312 98.945312 54.113281 99.09375 C 53.789062 99.246094 53.457031 99.390625 53.132812 99.550781 C 52.808594 99.714844 52.476562 99.875 52.152344 100.046875 L 51.183594 100.578125 C 50.867188 100.769531 50.539062 100.957031 50.21875 101.148438 C 49.898438 101.347656 49.578125 101.550781 49.246094 101.742188 " fill-opacity="1" fill-rule="nonzero"/><path fill="#FFFFFF" d="M 81.488281 133.984375 C 81.28125 134.304688 81.0625 134.617188 80.835938 134.933594 C 80.601562 135.234375 80.359375 135.53125 80.109375 135.824219 C 79.855469 136.117188 79.582031 136.386719 79.316406 136.671875 C 79.183594 136.8125 79.035156 136.9375 78.894531 137.070312 L 78.464844 137.464844 L 78.355469 137.5625 L 78.242188 137.652344 L 78.015625 137.835938 L 77.558594 138.203125 C 77.40625 138.328125 77.242188 138.433594 77.085938 138.546875 L 76.601562 138.882812 C 76.28125 139.105469 75.941406 139.300781 75.605469 139.507812 C 75.4375 139.613281 75.261719 139.699219 75.089844 139.796875 L 74.566406 140.070312 C 71.746094 141.496094 68.554688 142.234375 65.367188 142.234375 C 62.179688 142.238281 58.984375 141.5 56.167969 140.074219 L 55.644531 139.800781 C 55.46875 139.703125 55.292969 139.617188 55.128906 139.511719 L 54.625 139.203125 C 54.457031 139.101562 54.289062 139.003906 54.128906 138.886719 L 53.648438 138.550781 C 53.488281 138.4375 53.324219 138.332031 53.175781 138.203125 L 52.71875 137.839844 L 52.488281 137.65625 C 52.414062 137.597656 52.339844 137.535156 52.269531 137.464844 L 51.835938 137.070312 L 51.625 136.875 C 51.550781 136.8125 51.484375 136.746094 51.417969 136.671875 C 51.148438 136.390625 50.875 136.117188 50.625 135.828125 C 50.375 135.53125 50.128906 135.234375 49.894531 134.933594 C 49.671875 134.617188 49.453125 134.304688 49.246094 133.984375 C 49.582031 134.175781 49.898438 134.378906 50.21875 134.578125 C 50.542969 134.769531 50.867188 134.953125 51.183594 135.144531 L 52.15625 135.675781 C 52.480469 135.847656 52.808594 136.007812 53.132812 136.171875 C 53.457031 136.335938 53.792969 136.480469 54.117188 136.632812 C 54.445312 136.777344 54.78125 136.910156 55.109375 137.050781 C 55.273438 137.125 55.445312 137.175781 55.609375 137.242188 L 56.109375 137.429688 C 56.273438 137.496094 56.445312 137.546875 56.613281 137.601562 L 57.117188 137.773438 C 59.8125 138.628906 62.585938 139.066406 65.367188 139.070312 C 68.148438 139.070312 70.921875 138.632812 73.617188 137.777344 C 73.949219 137.660156 74.292969 137.558594 74.625 137.433594 L 75.125 137.246094 C 75.292969 137.179688 75.464844 137.128906 75.628906 137.054688 C 75.957031 136.914062 76.289062 136.78125 76.621094 136.632812 C 76.945312 136.480469 77.277344 136.335938 77.605469 136.175781 C 77.925781 136.011719 78.257812 135.851562 78.582031 135.679688 L 79.550781 135.148438 C 79.867188 134.957031 80.195312 134.773438 80.519531 134.578125 C 80.835938 134.378906 81.15625 134.175781 81.488281 133.984375 " fill-opacity="1" fill-rule="nonzero"/><g clip-path="url(#6a50bf8ac4)"><g transform="matrix(1, 0, 0, 1, 147, 53)"><g clip-path="url(#a5f709e66a)"><g fill="#FFFFFF" fill-opacity="1"><g transform="translate(0.0736075, 100.183627)"><g><path d="M 32.671875 1.25 C 26.898438 1.25 21.316406 0.46875 15.921875 -1.09375 C 10.523438 -2.664062 6.191406 -4.703125 2.921875 -7.203125 L 8.671875 -19.9375 C 11.796875 -17.644531 15.515625 -15.800781 19.828125 -14.40625 C 24.148438 -13.007812 28.46875 -12.3125 32.78125 -12.3125 C 37.582031 -12.3125 41.128906 -13.023438 43.421875 -14.453125 C 45.722656 -15.878906 46.875 -17.78125 46.875 -20.15625 C 46.875 -21.894531 46.195312 -23.335938 44.84375 -24.484375 C 43.488281 -25.628906 41.75 -26.550781 39.625 -27.25 C 37.5 -27.945312 34.628906 -28.710938 31.015625 -29.546875 C 25.441406 -30.867188 20.878906 -32.191406 17.328125 -33.515625 C 13.773438 -34.835938 10.726562 -36.957031 8.1875 -39.875 C 5.65625 -42.800781 4.390625 -46.703125 4.390625 -51.578125 C 4.390625 -55.828125 5.535156 -59.671875 7.828125 -63.109375 C 10.128906 -66.554688 13.59375 -69.289062 18.21875 -71.3125 C 22.84375 -73.332031 28.5 -74.34375 35.1875 -74.34375 C 39.851562 -74.34375 44.410156 -73.785156 48.859375 -72.671875 C 53.316406 -71.554688 57.21875 -69.953125 60.5625 -67.859375 L 55.328125 -55.015625 C 48.578125 -58.847656 41.828125 -60.765625 35.078125 -60.765625 C 30.347656 -60.765625 26.847656 -60 24.578125 -58.46875 C 22.316406 -56.9375 21.1875 -54.914062 21.1875 -52.40625 C 21.1875 -49.90625 22.492188 -48.046875 25.109375 -46.828125 C 27.722656 -45.609375 31.707031 -44.40625 37.0625 -43.21875 C 42.632812 -41.894531 47.191406 -40.570312 50.734375 -39.25 C 54.285156 -37.925781 57.332031 -35.835938 59.875 -32.984375 C 62.414062 -30.140625 63.6875 -26.28125 63.6875 -21.40625 C 63.6875 -17.226562 62.519531 -13.414062 60.1875 -9.96875 C 57.851562 -6.519531 54.351562 -3.785156 49.6875 -1.765625 C 45.03125 0.242188 39.359375 1.25 32.671875 1.25 Z M 32.671875 1.25 "/></g></g></g><g fill="#FFFFFF" fill-opacity="1"><g transform="translate(87.570286, 100.183627)"><g><path d="M 44.0625 1.25 C 36.46875 1.25 29.625 -0.382812 23.53125 -3.65625 C 17.445312 -6.925781 12.679688 -11.429688 9.234375 -17.171875 C 5.796875 -22.910156 4.078125 -29.367188 4.078125 -36.546875 C 4.078125 -43.710938 5.796875 -50.164062 9.234375 -55.90625 C 12.679688 -61.644531 17.445312 -66.148438 23.53125 -69.421875 C 29.625 -72.703125 36.46875 -74.34375 44.0625 -74.34375 C 51.644531 -74.34375 58.460938 -72.703125 64.515625 -69.421875 C 70.578125 -66.148438 75.347656 -61.644531 78.828125 -55.90625 C 82.304688 -50.164062 84.046875 -43.710938 84.046875 -36.546875 C 84.046875 -29.367188 82.304688 -22.910156 78.828125 -17.171875 C 75.347656 -11.429688 70.578125 -6.925781 64.515625 -3.65625 C 58.460938 -0.382812 51.644531 1.25 44.0625 1.25 Z M 44.0625 -13.15625 C 48.375 -13.15625 52.269531 -14.144531 55.75 -16.125 C 59.226562 -18.113281 61.957031 -20.878906 63.9375 -24.421875 C 65.925781 -27.972656 66.921875 -32.015625 66.921875 -36.546875 C 66.921875 -41.066406 65.925781 -45.101562 63.9375 -48.65625 C 61.957031 -52.207031 59.226562 -54.972656 55.75 -56.953125 C 52.269531 -58.929688 48.375 -59.921875 44.0625 -59.921875 C 39.75 -59.921875 35.847656 -58.929688 32.359375 -56.953125 C 28.878906 -54.972656 26.144531 -52.207031 24.15625 -48.65625 C 22.175781 -45.101562 21.1875 -41.066406 21.1875 -36.546875 C 21.1875 -32.015625 22.175781 -27.972656 24.15625 -24.421875 C 26.144531 -20.878906 28.878906 -18.113281 32.359375 -16.125 C 35.847656 -14.144531 39.75 -13.15625 44.0625 -13.15625 Z M 44.0625 -13.15625 "/></g></g></g><g fill="#FFFFFF" fill-opacity="1"><g transform="translate(196.575429, 100.183627)"><g><path d="M 75.6875 -73.078125 L 75.6875 0 L 61.8125 0 L 25.375 -44.375 L 25.375 0 L 8.671875 0 L 8.671875 -73.078125 L 22.65625 -73.078125 L 58.984375 -28.71875 L 58.984375 -73.078125 Z M 75.6875 -73.078125 "/></g></g></g><g fill="#FFFFFF" fill-opacity="1"><g transform="translate(301.821806, 100.183627)"><g><path d="M 56.796875 -15.65625 L 22.859375 -15.65625 L 16.390625 0 L -0.9375 0 L 31.640625 -73.078125 L 48.34375 -73.078125 L 81.015625 0 L 63.265625 0 Z M 51.46875 -28.5 L 39.890625 -56.484375 L 28.296875 -28.5 Z M 51.46875 -28.5 "/></g></g></g><g fill="#FFFFFF" fill-opacity="1"><g transform="translate(402.682969, 100.183627)"><g><path d="M 55.234375 0 L 41.140625 -20.359375 L 25.578125 -20.359375 L 25.578125 0 L 8.671875 0 L 8.671875 -73.078125 L 40.296875 -73.078125 C 46.773438 -73.078125 52.394531 -72 57.15625 -69.84375 C 61.925781 -67.6875 65.597656 -64.625 68.171875 -60.65625 C 70.753906 -56.6875 72.046875 -51.988281 72.046875 -46.5625 C 72.046875 -41.132812 70.738281 -36.453125 68.125 -32.515625 C 65.507812 -28.585938 61.800781 -25.578125 57 -23.484375 L 73.390625 0 Z M 54.921875 -46.5625 C 54.921875 -50.664062 53.597656 -53.8125 50.953125 -56 C 48.304688 -58.195312 44.441406 -59.296875 39.359375 -59.296875 L 25.578125 -59.296875 L 25.578125 -33.828125 L 39.359375 -33.828125 C 44.441406 -33.828125 48.304688 -34.941406 50.953125 -37.171875 C 53.597656 -39.398438 54.921875 -42.53125 54.921875 -46.5625 Z M 54.921875 -46.5625 "/></g></g></g></g></g></g></svg>
