<svg xmlns="http://www.w3.org/2000/svg" xmlns:xlink="http://www.w3.org/1999/xlink" width="500" zoomAndPan="magnify" viewBox="0 0 375 374.999991" height="500" preserveAspectRatio="xMidYMid meet" version="1.0"><defs><clipPath id="053a8aec8c"><path d="M 37.5 37.5 L 337.5 37.5 L 337.5 337.5 L 37.5 337.5 Z M 37.5 37.5 " clip-rule="nonzero"/></clipPath></defs><rect x="-37.5" width="450" fill="#ffffff" y="-37.499999" height="449.999989" fill-opacity="1"/><rect x="-37.5" width="450" fill="#ffffff" y="-37.499999" height="449.999989" fill-opacity="1"/><g clip-path="url(#053a8aec8c)"><path fill="#737373" d="M 330.902344 88.4375 C 326.703125 78.5 320.703125 69.578125 313.054688 61.929688 C 305.402344 54.277344 296.480469 48.28125 286.542969 44.082031 C 276.269531 39.730469 265.359375 37.519531 254.109375 37.519531 L 120.851562 37.519531 C 109.601562 37.519531 98.691406 39.730469 88.382812 44.082031 C 78.445312 48.28125 69.519531 54.277344 61.871094 61.929688 C 54.222656 69.578125 48.222656 78.5 44.023438 88.4375 C 39.710938 98.710938 37.5 109.621094 37.5 120.871094 L 37.5 254.089844 C 37.5 265.339844 39.710938 276.25 44.0625 286.5625 C 48.261719 296.5 54.261719 305.421875 61.910156 313.070312 C 69.558594 320.722656 78.480469 326.71875 88.417969 330.917969 C 98.691406 335.269531 109.640625 337.480469 120.890625 337.480469 L 254.109375 337.480469 C 265.359375 337.480469 276.269531 335.269531 286.582031 330.917969 C 296.519531 326.71875 305.441406 320.722656 313.089844 313.070312 C 320.738281 305.421875 326.738281 296.5 330.9375 286.5625 C 335.289062 276.289062 337.5 265.339844 337.5 254.089844 L 337.5 120.871094 C 337.460938 109.621094 335.25 98.710938 330.902344 88.4375 Z M 302.480469 254.128906 C 302.480469 280.789062 280.769531 302.5 254.109375 302.5 L 120.851562 302.5 C 94.191406 302.5 72.484375 280.789062 72.484375 254.128906 L 72.484375 120.871094 C 72.484375 94.210938 94.191406 72.5 120.851562 72.5 L 254.074219 72.5 C 280.730469 72.5 302.441406 94.210938 302.441406 120.871094 L 302.441406 254.128906 Z M 259.171875 129.269531 L 210.316406 187.5 L 259.171875 245.730469 C 265.398438 253.117188 264.421875 264.179688 256.996094 270.363281 C 253.734375 273.101562 249.722656 274.453125 245.75 274.453125 C 240.761719 274.453125 235.8125 272.3125 232.324219 268.191406 L 187.480469 214.722656 L 142.5625 268.226562 C 139.113281 272.351562 134.164062 274.488281 129.136719 274.488281 C 125.164062 274.488281 121.191406 273.140625 117.890625 270.402344 C 110.503906 264.179688 109.527344 253.152344 115.714844 245.769531 L 164.648438 187.5 L 115.789062 129.269531 C 109.566406 121.882812 110.539062 110.820312 117.964844 104.636719 C 125.351562 98.410156 136.414062 99.386719 142.597656 106.808594 L 187.480469 160.277344 L 232.402344 106.773438 C 238.625 99.386719 249.648438 98.410156 257.035156 104.597656 C 264.421875 110.820312 265.398438 121.84375 259.171875 129.269531 Z M 259.171875 129.269531 " fill-opacity="1" fill-rule="nonzero"/></g></svg>