<svg xmlns="http://www.w3.org/2000/svg" xmlns:xlink="http://www.w3.org/1999/xlink" width="500" zoomAndPan="magnify" viewBox="0 0 375 374.999991" height="500" preserveAspectRatio="xMidYMid meet" version="1.0"><defs><clipPath id="9f51c75d17"><path d="M 37.5 58.875 L 295 58.875 L 295 316.125 L 37.5 316.125 Z M 37.5 58.875 " clip-rule="nonzero"/></clipPath></defs><rect x="-37.5" width="450" fill="#ffffff" y="-37.499999" height="449.999989" fill-opacity="1"/><rect x="-37.5" width="450" fill="#ffffff" y="-37.499999" height="449.999989" fill-opacity="1"/><path fill="#000000" d="M 90.640625 169.257812 C 79.421875 161.429688 112.519531 142.121094 130.664062 154.859375 C 130.800781 154.980469 153.511719 176.046875 166.117188 204.011719 C 181.644531 180.75 217.261719 127.878906 269.453125 100.941406 C 301.363281 84.46875 337.503906 77.886719 332.96875 88.789062 C 305.429688 103.925781 230.503906 154.121094 180.121094 252.78125 C 177.785156 257.746094 173.132812 261.523438 167.308594 262.492188 C 157.886719 264.0625 143.472656 254.03125 141.902344 244.609375 C 125.289062 205.730469 108.3125 185.238281 90.640625 169.257812 Z M 90.640625 169.257812 " fill-opacity="1" fill-rule="nonzero"/><g clip-path="url(#9f51c75d17)"><path fill="#000000" d="M 77.421875 58.886719 L 254.8125 58.886719 C 265.800781 58.886719 275.785156 63.375 283.015625 70.605469 C 285.796875 73.390625 288.175781 76.585938 290.046875 80.085938 C 284.53125 82.027344 279.078125 84.234375 273.804688 86.628906 C 272.925781 85.265625 271.902344 84.003906 270.761719 82.859375 C 266.664062 78.761719 261.015625 76.21875 254.8125 76.21875 L 77.421875 76.21875 C 71.21875 76.21875 65.574219 78.761719 61.476562 82.859375 C 57.378906 86.960938 54.832031 92.605469 54.832031 98.808594 L 54.832031 276.199219 C 54.832031 282.402344 57.378906 288.050781 61.476562 292.148438 C 65.574219 296.246094 71.21875 298.789062 77.421875 298.789062 L 254.8125 298.789062 C 261.015625 298.789062 266.664062 296.246094 270.761719 292.148438 C 274.859375 288.050781 277.402344 282.402344 277.402344 276.199219 L 277.402344 143.0625 C 282.9375 138.019531 288.738281 133.015625 294.734375 128.160156 L 294.734375 276.199219 C 294.734375 287.1875 290.246094 297.171875 283.015625 304.402344 C 275.78125 311.632812 265.800781 316.121094 254.8125 316.121094 L 77.421875 316.121094 C 66.433594 316.121094 56.449219 311.628906 49.222656 304.402344 C 41.992188 297.171875 37.5 287.1875 37.5 276.199219 L 37.5 98.808594 C 37.5 87.820312 41.992188 77.839844 49.222656 70.605469 C 56.449219 63.375 66.433594 58.886719 77.421875 58.886719 Z M 77.421875 58.886719 " fill-opacity="1" fill-rule="nonzero"/></g></svg>