<svg xmlns="http://www.w3.org/2000/svg" xmlns:xlink="http://www.w3.org/1999/xlink" width="500" zoomAndPan="magnify" viewBox="0 0 375 374.999991" height="500" preserveAspectRatio="xMidYMid meet" version="1.0"><defs><clipPath id="1985bdd150"><path d="M 100.625 37.5 L 274.625 37.5 L 274.625 337.5 L 100.625 337.5 Z M 100.625 37.5 " clip-rule="nonzero"/></clipPath></defs><rect x="-37.5" width="450" fill="#ffffff" y="-37.499999" height="449.999989" fill-opacity="1"/><rect x="-37.5" width="450" fill="#ffffff" y="-37.499999" height="449.999989" fill-opacity="1"/><g clip-path="url(#1985bdd150)"><path fill="#000000" d="M 209.78125 54.027344 C 207.179688 54.027344 205.074219 56.132812 205.074219 58.726562 C 205.074219 61.324219 207.179688 63.425781 209.78125 63.425781 C 212.378906 63.425781 214.484375 61.324219 214.484375 58.726562 C 214.484375 56.132812 212.378906 54.027344 209.78125 54.027344 Z M 272.660156 311.683594 C 272.660156 325.867188 261.054688 337.457031 246.851562 337.457031 L 128.398438 337.457031 C 114.191406 337.457031 102.589844 325.867188 102.589844 311.683594 L 102.589844 156.457031 C 101.402344 155.597656 100.625 154.214844 100.625 152.632812 L 100.625 136.984375 C 100.625 135.402344 101.402344 134.019531 102.589844 133.160156 L 102.589844 131.070312 C 101.402344 130.210938 100.625 128.828125 100.625 127.246094 L 100.625 111.59375 C 100.625 110.015625 101.402344 108.628906 102.589844 107.769531 L 102.589844 92.457031 C 101.402344 91.597656 100.625 90.214844 100.625 88.632812 L 100.625 80.984375 C 100.625 79.402344 101.402344 78.019531 102.589844 77.160156 L 102.589844 63.316406 C 102.589844 49.132812 114.191406 37.542969 128.398438 37.542969 L 246.851562 37.542969 C 261.054688 37.542969 272.660156 49.132812 272.660156 63.316406 L 272.660156 114.8125 C 273.847656 115.671875 274.625 117.054688 274.625 118.636719 L 274.625 145.5625 C 274.625 147.144531 273.847656 148.527344 272.660156 149.386719 Z M 258.429688 323.242188 C 261.394531 320.28125 263.246094 316.1875 263.246094 311.683594 L 263.246094 63.328125 C 263.246094 54.339844 255.871094 46.972656 246.867188 46.972656 L 128.410156 46.972656 C 119.410156 46.972656 112.03125 54.339844 112.03125 63.328125 L 112.03125 311.683594 C 112.03125 320.675781 119.410156 328.042969 128.410156 328.042969 L 246.867188 328.042969 C 251.359375 328.042969 255.460938 326.191406 258.441406 323.230469 Z M 197.921875 54.027344 C 200.523438 54.027344 202.628906 56.132812 202.628906 58.726562 C 202.628906 61.324219 200.523438 63.425781 197.921875 63.425781 L 177.34375 63.425781 C 174.742188 63.425781 172.636719 61.324219 172.636719 58.726562 C 172.636719 56.132812 174.742188 54.027344 177.34375 54.027344 Z M 197.921875 54.027344 " fill-opacity="1" fill-rule="evenodd"/></g></svg>