<svg xmlns="http://www.w3.org/2000/svg" xmlns:xlink="http://www.w3.org/1999/xlink" width="500" zoomAndPan="magnify" viewBox="0 0 375 374.999991" height="500" preserveAspectRatio="xMidYMid meet" version="1.0"><defs><clipPath id="02ba1b8658"><path d="M 37.5 123 L 167 123 L 167 252 L 37.5 252 Z M 37.5 123 " clip-rule="nonzero"/></clipPath><clipPath id="be357c9d46"><path d="M 208 123 L 337.5 123 L 337.5 252 L 208 252 Z M 208 123 " clip-rule="nonzero"/></clipPath><clipPath id="85ffd262c8"><path d="M 122 37.5 L 252 37.5 L 252 167 L 122 167 Z M 122 37.5 " clip-rule="nonzero"/></clipPath><clipPath id="4cb9721d55"><path d="M 122 208 L 252 208 L 252 337.5 L 122 337.5 Z M 122 208 " clip-rule="nonzero"/></clipPath></defs><rect x="-37.5" width="450" fill="#ffffff" y="-37.499999" height="449.999989" fill-opacity="1"/><rect x="-37.5" width="450" fill="#ffffff" y="-37.499999" height="449.999989" fill-opacity="1"/><g clip-path="url(#02ba1b8658)"><path fill="#000000" d="M 101.984375 123 L 166.476562 187.492188 L 101.984375 251.984375 L 37.496094 187.492188 Z M 101.984375 123 " fill-opacity="1" fill-rule="nonzero"/></g><g clip-path="url(#be357c9d46)"><path fill="#000000" d="M 272.984375 123 L 337.476562 187.492188 L 272.984375 251.984375 L 208.492188 187.492188 Z M 272.984375 123 " fill-opacity="1" fill-rule="nonzero"/></g><g clip-path="url(#85ffd262c8)"><path fill="#000000" d="M 187.484375 37.5 L 251.976562 101.992188 L 187.484375 166.484375 L 122.992188 101.992188 Z M 187.484375 37.5 " fill-opacity="1" fill-rule="nonzero"/></g><g clip-path="url(#4cb9721d55)"><path fill="#000000" d="M 187.484375 208.492188 L 251.976562 272.984375 L 187.484375 337.472656 L 122.992188 272.984375 Z M 187.484375 208.492188 " fill-opacity="1" fill-rule="nonzero"/></g></svg>