<svg xmlns="http://www.w3.org/2000/svg" xmlns:xlink="http://www.w3.org/1999/xlink" width="500" zoomAndPan="magnify" viewBox="0 0 375 374.999991" height="500" preserveAspectRatio="xMidYMid meet" version="1.0"><defs><clipPath id="0ddd2f0d73"><path d="M 37.5 37.5 L 337.5 37.5 L 337.5 337.5 L 37.5 337.5 Z M 37.5 37.5 " clip-rule="nonzero"/></clipPath></defs><rect x="-37.5" width="450" fill="#ffffff" y="-37.499999" height="449.999989" fill-opacity="1"/><rect x="-37.5" width="450" fill="#ffffff" y="-37.499999" height="449.999989" fill-opacity="1"/><g clip-path="url(#0ddd2f0d73)"><path fill="#000000" d="M 125.339844 38.53125 C 109.382812 39.28125 98.488281 41.839844 88.964844 45.570312 C 79.101562 49.414062 70.75 54.554688 62.441406 62.90625 C 54.117188 71.257812 49.003906 79.625 45.203125 89.5 C 41.511719 99.054688 39.011719 109.949219 38.304688 125.917969 C 37.597656 141.898438 37.445312 147 37.515625 187.726562 C 37.585938 228.4375 37.769531 233.550781 38.53125 249.550781 C 39.292969 265.503906 41.839844 276.382812 45.570312 285.921875 C 49.414062 295.785156 54.554688 304.121094 62.90625 312.445312 C 71.257812 320.769531 79.625 325.871094 89.5 329.6875 C 99.039062 333.375 109.949219 335.890625 125.902344 336.582031 C 141.898438 337.289062 147 337.445312 187.710938 337.359375 C 228.4375 337.289062 233.539062 337.105469 249.535156 336.339844 C 265.488281 335.578125 276.371094 333.019531 285.90625 329.304688 C 295.769531 325.445312 304.121094 320.316406 312.433594 311.964844 C 320.742188 303.613281 325.855469 295.25 329.671875 285.371094 C 333.359375 275.832031 335.875 264.921875 336.566406 248.984375 C 337.261719 232.988281 337.429688 227.871094 337.359375 187.160156 C 337.289062 146.449219 337.089844 141.347656 336.339844 125.351562 C 335.578125 109.382812 333.035156 98.503906 329.304688 88.964844 C 325.445312 79.101562 320.316406 70.765625 311.964844 62.441406 C 303.613281 54.132812 295.25 49.003906 285.371094 45.203125 C 275.832031 41.511719 264.921875 38.996094 248.96875 38.304688 C 232.972656 37.597656 227.859375 37.445312 187.148438 37.515625 C 146.433594 37.585938 141.335938 37.769531 125.339844 38.53125 M 127.089844 309.578125 C 112.480469 308.941406 104.539062 306.511719 99.238281 304.476562 C 92.230469 301.761719 87.242188 298.511719 81.96875 293.296875 C 76.714844 288.054688 73.464844 283.066406 70.722656 276.085938 C 68.671875 270.800781 66.199219 262.875 65.507812 248.25 C 64.757812 232.449219 64.589844 227.703125 64.519531 187.667969 C 64.449219 147.652344 64.589844 142.902344 65.28125 127.089844 C 65.902344 112.480469 68.347656 104.539062 70.382812 99.253906 C 73.097656 92.242188 76.332031 87.253906 81.558594 81.984375 C 86.804688 76.726562 91.792969 73.476562 98.785156 70.734375 C 104.070312 68.671875 112 66.214844 126.609375 65.523438 C 142.421875 64.773438 147.15625 64.617188 187.1875 64.53125 C 227.222656 64.449219 231.96875 64.589844 247.78125 65.296875 C 262.394531 65.929688 270.335938 68.347656 275.621094 70.398438 C 282.628906 73.109375 287.632812 76.332031 292.886719 81.574219 C 298.144531 86.816406 301.410156 91.792969 304.136719 98.800781 C 306.199219 104.070312 308.660156 112.011719 309.351562 126.609375 C 310.101562 142.421875 310.269531 147.171875 310.339844 187.1875 C 310.410156 227.222656 310.269531 231.96875 309.578125 247.769531 C 308.941406 262.378906 306.511719 270.335938 304.476562 275.621094 C 301.761719 282.617188 298.527344 287.617188 293.285156 292.875 C 288.042969 298.117188 283.066406 301.382812 276.058594 304.121094 C 270.789062 306.1875 262.847656 308.644531 248.25 309.335938 C 232.4375 310.085938 227.703125 310.253906 187.65625 310.328125 C 147.636719 310.398438 142.886719 310.253906 127.074219 309.5625 M 249.324219 107.292969 C 249.335938 117.226562 257.417969 125.265625 267.339844 125.238281 C 277.273438 125.226562 285.3125 117.15625 285.300781 107.222656 C 285.285156 97.289062 277.203125 89.246094 267.269531 89.261719 C 257.335938 89.277344 249.292969 97.359375 249.308594 107.277344 M 110.445312 187.585938 C 110.527344 230.105469 145.066406 264.5 187.570312 264.414062 C 230.089844 264.328125 264.5 229.808594 264.414062 187.289062 C 264.328125 144.78125 229.792969 110.375 187.273438 110.445312 C 144.769531 110.527344 110.359375 145.066406 110.445312 187.585938 M 137.449219 187.527344 C 137.40625 159.929688 159.734375 137.503906 187.332031 137.460938 C 214.929688 137.40625 237.355469 159.734375 237.410156 187.34375 C 237.46875 214.941406 215.125 237.367188 187.527344 237.410156 C 159.929688 237.46875 137.503906 215.125 137.460938 187.527344 " fill-opacity="1" fill-rule="nonzero"/></g></svg>