<svg xmlns="http://www.w3.org/2000/svg" xmlns:xlink="http://www.w3.org/1999/xlink" width="500" zoomAndPan="magnify" viewBox="0 0 375 374.999991" height="500" preserveAspectRatio="xMidYMid meet" version="1.0"><defs><clipPath id="1b0d6bf0d7"><path d="M 37.5 38.679688 L 333 38.679688 L 333 334 L 37.5 334 Z M 37.5 38.679688 " clip-rule="nonzero"/></clipPath></defs><rect x="-37.5" width="450" fill="#ffffff" y="-37.499999" height="449.999989" fill-opacity="1"/><rect x="-37.5" width="450" fill="#ffffff" y="-37.499999" height="449.999989" fill-opacity="1"/><g clip-path="url(#1b0d6bf0d7)"><path fill="#000000" d="M 288.882812 290.304688 L 245.171875 290.304688 L 245.171875 221.84375 C 245.171875 205.527344 244.878906 184.503906 222.441406 184.503906 C 200 184.503906 196.191406 202.296875 196.191406 220.660156 L 196.191406 290.304688 L 152.480469 290.304688 L 152.480469 149.519531 L 194.449219 149.519531 L 194.449219 168.757812 L 195.035156 168.757812 C 203.589844 154.121094 219.507812 145.386719 236.4375 146.011719 C 280.746094 146.011719 288.910156 175.15625 288.910156 213.066406 L 288.910156 290.304688 Z M 103.136719 130.277344 C 89.125 130.277344 77.761719 118.925781 77.761719 104.917969 C 77.761719 90.910156 89.113281 79.542969 103.121094 79.542969 C 117.128906 79.542969 128.496094 90.894531 128.496094 104.902344 C 128.496094 118.914062 117.144531 130.277344 103.136719 130.277344 M 125.003906 290.304688 L 81.238281 290.304688 L 81.238281 149.519531 L 125.003906 149.519531 Z M 310.683594 38.933594 L 59.273438 38.933594 C 47.390625 38.808594 37.640625 48.324219 37.5 60.207031 L 37.5 312.660156 C 37.640625 324.554688 47.378906 334.070312 59.273438 333.945312 L 310.683594 333.945312 C 322.589844 334.097656 332.371094 324.566406 332.539062 312.660156 L 332.539062 60.191406 C 332.371094 48.28125 322.589844 38.765625 310.683594 38.921875 " fill-opacity="1" fill-rule="nonzero"/></g></svg>