<svg xmlns="http://www.w3.org/2000/svg" xmlns:xlink="http://www.w3.org/1999/xlink" width="500" zoomAndPan="magnify" viewBox="0 0 375 374.999991" height="500" preserveAspectRatio="xMidYMid meet" version="1.0"><defs><clipPath id="f2450f1fa6"><path d="M 37.5 34.4375 L 337.5 34.4375 L 337.5 340.4375 L 37.5 340.4375 Z M 37.5 34.4375 " clip-rule="nonzero"/></clipPath></defs><rect x="-37.5" width="450" fill="#ffffff" y="-37.499999" height="449.999989" fill-opacity="1"/><rect x="-37.5" width="450" fill="#ffffff" y="-37.499999" height="449.999989" fill-opacity="1"/><g clip-path="url(#f2450f1fa6)"><path fill="#000000" d="M 216.019531 164.035156 L 327.550781 34.4375 L 301.121094 34.4375 L 204.285156 146.957031 L 126.933594 34.4375 L 37.726562 34.4375 L 154.691406 204.605469 L 37.726562 340.5 L 64.15625 340.5 L 166.429688 221.664062 L 248.109375 340.5 L 337.316406 340.5 Z M 179.824219 206.097656 L 167.96875 189.15625 L 73.683594 54.320312 L 114.285156 54.320312 L 190.382812 163.121094 L 202.238281 180.066406 L 301.152344 321.496094 L 260.550781 321.496094 L 179.824219 206.082031 Z M 179.824219 206.097656 " fill-opacity="1" fill-rule="nonzero"/></g></svg>