<svg xmlns="http://www.w3.org/2000/svg" xmlns:xlink="http://www.w3.org/1999/xlink" width="500" zoomAndPan="magnify" viewBox="0 0 375 374.999991" height="500" preserveAspectRatio="xMidYMid meet" version="1.0"><defs><clipPath id="ab6547b151"><path d="M 37.5 38.046875 L 337.5 38.046875 L 337.5 337 L 37.5 337 Z M 37.5 38.046875 " clip-rule="nonzero"/></clipPath></defs><rect x="-37.5" width="450" fill="#ffffff" y="-37.499999" height="449.999989" fill-opacity="1"/><rect x="-37.5" width="450" fill="#ffffff" y="-37.499999" height="449.999989" fill-opacity="1"/><g clip-path="url(#ab6547b151)"><path fill="#000000" d="M 337.527344 188.058594 C 337.527344 105.203125 270.371094 38.046875 187.527344 38.046875 C 104.683594 38.046875 37.511719 105.203125 37.511719 188.058594 C 37.511719 258.410156 85.941406 317.449219 151.28125 333.660156 L 151.28125 233.90625 L 120.34375 233.90625 L 120.34375 188.058594 L 151.28125 188.058594 L 151.28125 168.308594 C 151.28125 117.253906 174.386719 93.585938 224.511719 93.585938 C 234.019531 93.585938 250.417969 95.441406 257.121094 97.3125 L 257.121094 138.863281 C 253.582031 138.484375 247.429688 138.296875 239.792969 138.296875 C 215.195312 138.296875 205.691406 147.613281 205.691406 171.835938 L 205.691406 188.046875 L 254.683594 188.046875 L 246.269531 233.890625 L 205.691406 233.890625 L 205.691406 336.957031 C 279.96875 327.992188 337.527344 264.738281 337.527344 188.046875 Z M 337.527344 188.058594 " fill-opacity="1" fill-rule="nonzero"/></g></svg>