<svg xmlns="http://www.w3.org/2000/svg" xmlns:xlink="http://www.w3.org/1999/xlink" width="500" zoomAndPan="magnify" viewBox="0 0 375 374.999991" height="500" preserveAspectRatio="xMidYMid meet" version="1.0"><rect x="-37.5" width="450" fill="#ffffff" y="-37.499999" height="449.999989" fill-opacity="1"/><rect x="-37.5" width="450" fill="#ffffff" y="-37.499999" height="449.999989" fill-opacity="1"/><path fill="#100f0d" d="M 229.75 57.976562 C 273.414062 57.824219 308.925781 93.109375 309.101562 136.777344 C 309.101562 137.535156 309.101562 138.316406 309.078125 139.097656 C 310.214844 182.742188 275.789062 219.085938 232.121094 220.246094 C 188.480469 221.410156 152.136719 186.984375 150.976562 143.34375 C 150.925781 141.929688 150.925781 140.515625 150.976562 139.097656 C 149.863281 95.433594 184.339844 59.140625 227.980469 58.003906 C 228.5625 57.976562 229.191406 57.976562 229.773438 57.976562 Z M 225.253906 44.390625 C 172.972656 46.914062 132.613281 91.339844 135.113281 143.644531 C 135.898438 160.441406 141.175781 176.730469 150.367188 190.824219 C 151.023438 191.808594 150.925781 193.171875 150.089844 194.054688 L 125.113281 219.136719 L 122.207031 216.28125 C 119.152344 213.199219 114.175781 213.199219 111.121094 216.28125 L 48.816406 278.488281 C 37.601562 290.28125 38.105469 308.945312 49.902344 320.160156 C 61.339844 330.96875 79.199219 330.945312 90.5625 320.132812 L 152.84375 257.929688 C 155.925781 254.847656 155.925781 249.871094 152.84375 246.789062 L 149.9375 243.9375 L 174.917969 218.882812 L 174.765625 218.882812 C 175.625 218 177.015625 217.847656 178.023438 218.53125 C 221.917969 247.117188 280.640625 234.71875 309.226562 190.847656 C 337.816406 146.980469 325.417969 88.234375 281.523438 59.644531 C 264.828125 48.785156 245.128906 43.429688 225.226562 44.390625 L 225.253906 44.390625 " fill-opacity="1" fill-rule="nonzero"/><path fill="#100f0d" d="M 248.992188 115.8125 L 267.304688 97.453125 C 269.777344 98.714844 272.808594 97.753906 274.097656 95.28125 C 275.386719 92.804688 274.425781 89.75 271.925781 88.460938 C 269.476562 87.199219 266.417969 88.160156 265.132812 90.632812 C 264.476562 91.871094 264.398438 93.335938 264.855469 94.648438 L 246.390625 113.160156 C 245.078125 112.605469 243.589844 112.605469 242.300781 113.210938 L 236.289062 107.53125 C 237.300781 104.929688 235.984375 102.023438 233.386719 101.011719 C 230.785156 100.027344 227.878906 101.34375 226.867188 103.941406 C 226.414062 105.128906 226.414062 106.445312 226.894531 107.605469 L 215.933594 119.425781 C 214.417969 118.820312 212.675781 119.019531 211.3125 119.929688 L 205.855469 116.066406 C 206.359375 113.339844 204.542969 110.710938 201.789062 110.207031 C 199.035156 109.703125 196.433594 111.519531 195.929688 114.273438 C 195.753906 115.105469 195.828125 115.964844 196.105469 116.746094 L 187.316406 124.703125 C 184.792969 123.515625 181.8125 124.601562 180.625 127.128906 C 179.4375 129.652344 180.523438 132.660156 183.074219 133.847656 C 185.601562 135.035156 188.605469 133.921875 189.769531 131.394531 C 190.375 130.160156 190.425781 128.746094 189.917969 127.457031 L 198.65625 119.550781 C 200.324219 120.386719 202.269531 120.234375 203.785156 119.199219 L 209.265625 123.011719 C 208.582031 125.714844 210.226562 128.464844 212.925781 129.148438 C 215.605469 129.832031 218.359375 128.214844 219.066406 125.511719 C 219.367188 124.324219 219.214844 123.0625 218.660156 121.976562 L 229.46875 110.359375 C 230.808594 110.988281 232.375 110.988281 233.714844 110.332031 L 239.722656 115.964844 C 238.613281 118.542969 239.800781 121.496094 242.402344 122.582031 C 244.953125 123.667969 247.90625 122.480469 248.992188 119.929688 C 249.574219 118.617188 249.546875 117.125 248.96875 115.839844 L 248.992188 115.8125 " fill-opacity="1" fill-rule="nonzero"/><path fill="#100f0d" d="M 190.828125 178.070312 L 190.828125 147.03125 L 177.644531 147.03125 L 177.644531 178.070312 L 190.828125 178.070312 " fill-opacity="1" fill-rule="nonzero"/><path fill="#100f0d" d="M 218.710938 178.070312 L 218.710938 138.695312 L 205.375 138.695312 L 205.375 178.070312 L 218.710938 178.070312 " fill-opacity="1" fill-rule="nonzero"/><path fill="#100f0d" d="M 276.371094 129.601562 L 276.371094 178.070312 L 263.1875 178.070312 L 263.1875 129.601562 L 276.371094 129.601562 " fill-opacity="1" fill-rule="nonzero"/><path fill="#100f0d" d="M 247.476562 129.601562 L 247.476562 178.070312 L 234.292969 178.070312 L 234.292969 129.601562 L 247.476562 129.601562 " fill-opacity="1" fill-rule="nonzero"/></svg>