<svg xmlns="http://www.w3.org/2000/svg" xmlns:xlink="http://www.w3.org/1999/xlink" width="500" zoomAndPan="magnify" viewBox="0 0 375 374.999991" height="500" preserveAspectRatio="xMidYMid meet" version="1.0"><defs><clipPath id="f0a2915852"><path d="M 0.5 58.640625 L 227.945312 58.640625 L 227.945312 260.546875 L 0.5 260.546875 Z M 0.5 58.640625 " clip-rule="nonzero"/></clipPath><clipPath id="02a8a5881d"><path d="M 168.902344 1.058594 L 300.261719 1.058594 L 300.261719 132.417969 L 168.902344 132.417969 Z M 168.902344 1.058594 " clip-rule="nonzero"/></clipPath><clipPath id="6f78f234f0"><rect x="0" width="302" y="0" height="261"/></clipPath></defs><rect x="-37.5" width="450" fill="#ffffff" y="-37.499999" height="449.999989" fill-opacity="1"/><rect x="-37.5" width="450" fill="#ffffff" y="-37.499999" height="449.999989" fill-opacity="1"/><g transform="matrix(1, 0, 0, 1, 37, 57)"><g clip-path="url(#6f78f234f0)"><g clip-path="url(#f0a2915852)"><path fill="#000000" d="M 215.0625 58.652344 L 13.382812 58.652344 C 6.34375 58.652344 0.617188 64.410156 0.617188 71.488281 L 0.617188 220.6875 C 0.617188 227.765625 6.34375 233.523438 13.382812 233.523438 L 77.597656 233.523438 L 77.597656 256.851562 C 77.597656 258.886719 79.238281 260.539062 81.261719 260.539062 L 97.621094 260.539062 C 99.644531 260.539062 101.285156 258.886719 101.285156 256.851562 L 101.285156 233.523438 L 112.441406 233.523438 L 112.441406 256.851562 C 112.441406 258.886719 114.082031 260.539062 116.105469 260.539062 L 132.46875 260.539062 C 134.492188 260.539062 136.132812 258.886719 136.132812 256.851562 L 136.132812 233.523438 L 147.289062 233.523438 L 147.289062 256.851562 C 147.289062 258.886719 148.929688 260.539062 150.953125 260.539062 L 167.3125 260.539062 C 169.335938 260.539062 170.976562 258.886719 170.976562 256.851562 L 170.976562 233.523438 L 182.132812 233.523438 L 182.132812 256.851562 C 182.132812 258.886719 183.773438 260.539062 185.800781 260.539062 L 202.160156 260.539062 C 204.183594 260.539062 205.824219 258.886719 205.824219 256.851562 L 205.824219 233.523438 L 215.0625 233.523438 C 222.101562 233.523438 227.832031 227.765625 227.832031 220.6875 L 227.832031 71.488281 C 227.828125 64.410156 222.101562 58.652344 215.0625 58.652344 Z M 13.382812 66.019531 L 215.0625 66.019531 C 218.0625 66.019531 220.5 68.472656 220.5 71.488281 L 220.5 93.457031 L 7.945312 93.457031 L 7.945312 71.488281 C 7.945312 68.472656 10.386719 66.019531 13.382812 66.019531 Z M 93.957031 253.167969 L 84.925781 253.167969 L 84.925781 228.984375 L 93.957031 228.984375 Z M 128.800781 253.167969 L 119.769531 253.167969 L 119.769531 201.234375 L 128.800781 201.234375 Z M 163.648438 253.167969 L 154.617188 253.167969 L 154.617188 212.449219 L 163.648438 212.449219 Z M 198.492188 253.167969 L 189.460938 253.167969 L 189.460938 179.65625 L 198.492188 179.65625 Z M 215.0625 226.15625 L 205.824219 226.15625 L 205.824219 175.972656 C 205.824219 173.9375 204.179688 172.289062 202.15625 172.289062 L 185.796875 172.289062 C 183.773438 172.289062 182.132812 173.9375 182.132812 175.972656 L 182.132812 226.15625 L 170.976562 226.15625 L 170.976562 208.765625 C 170.976562 206.730469 169.335938 205.082031 167.3125 205.082031 L 150.953125 205.082031 C 148.929688 205.082031 147.285156 206.730469 147.285156 208.765625 L 147.285156 226.15625 L 136.132812 226.15625 L 136.132812 197.550781 C 136.132812 195.515625 134.488281 193.863281 132.464844 193.863281 L 116.105469 193.863281 C 114.082031 193.863281 112.441406 195.515625 112.441406 197.550781 L 112.441406 226.15625 L 101.285156 226.15625 L 101.285156 225.296875 C 101.285156 223.265625 99.644531 221.613281 97.621094 221.613281 L 81.261719 221.613281 C 79.238281 221.613281 77.597656 223.265625 77.597656 225.296875 L 77.597656 226.15625 L 13.382812 226.15625 C 10.386719 226.15625 7.945312 223.703125 7.945312 220.6875 L 7.945312 100.824219 L 220.5 100.824219 L 220.5 220.6875 C 220.5 223.703125 218.0625 226.15625 215.0625 226.15625 Z M 28.15625 79.738281 C 28.15625 76.785156 30.539062 74.390625 33.476562 74.390625 C 36.414062 74.390625 38.796875 76.785156 38.796875 79.738281 C 38.796875 82.691406 36.414062 85.085938 33.476562 85.085938 C 30.539062 85.085938 28.15625 82.691406 28.15625 79.738281 Z M 68.996094 79.738281 C 68.996094 76.785156 71.378906 74.390625 74.316406 74.390625 C 77.253906 74.390625 79.636719 76.785156 79.636719 79.738281 C 79.636719 82.691406 77.253906 85.085938 74.316406 85.085938 C 71.378906 85.085938 68.996094 82.691406 68.996094 79.738281 Z M 48.578125 79.738281 C 48.578125 76.785156 50.957031 74.390625 53.894531 74.390625 C 56.835938 74.390625 59.214844 76.785156 59.214844 79.738281 C 59.214844 82.691406 56.835938 85.085938 53.894531 85.085938 C 50.957031 85.085938 48.578125 82.691406 48.578125 79.738281 Z M 193.566406 150.675781 C 194.265625 151.527344 194.546875 152.648438 194.332031 153.734375 L 191.808594 166.574219 C 191.464844 168.328125 189.933594 169.542969 188.21875 169.542969 C 187.980469 169.542969 187.742188 169.519531 187.503906 169.472656 C 185.519531 169.078125 184.226562 167.140625 184.617188 165.144531 L 184.988281 163.257812 L 161.597656 184.652344 C 160.535156 185.625 159.007812 185.882812 157.683594 185.3125 L 124.800781 171.097656 L 91.65625 196.398438 C 90.996094 196.902344 90.214844 197.148438 89.445312 197.148438 C 88.335938 197.148438 87.242188 196.644531 86.523438 195.691406 C 85.296875 194.070312 85.613281 191.761719 87.226562 190.527344 L 122.070312 163.929688 C 123.121094 163.125 124.523438 162.953125 125.734375 163.476562 L 158.410156 177.605469 L 181.226562 156.738281 L 177.734375 156.75 C 177.730469 156.75 177.722656 156.75 177.71875 156.75 C 175.703125 156.75 174.0625 155.109375 174.054688 153.082031 C 174.046875 151.046875 175.683594 149.390625 177.707031 149.382812 L 190.726562 149.335938 C 190.730469 149.335938 190.734375 149.335938 190.738281 149.335938 C 191.832031 149.335938 192.871094 149.824219 193.566406 150.675781 Z M 93.921875 171.308594 C 94.617188 170.53125 94.949219 169.496094 94.839844 168.453125 C 94.523438 165.496094 93.730469 162.699219 92.542969 160.136719 L 118.183594 160.136719 C 119.222656 160.136719 120.214844 159.691406 120.910156 158.914062 C 121.605469 158.136719 121.9375 157.097656 121.828125 156.058594 C 120.824219 146.640625 114.976562 138.859375 106.925781 135.085938 C 109.378906 132.394531 110.875 128.816406 110.875 124.890625 C 110.875 116.566406 104.140625 109.792969 95.859375 109.792969 C 87.578125 109.792969 80.839844 116.566406 80.839844 124.890625 C 80.839844 126.308594 81.039062 127.679688 81.402344 128.980469 C 78.714844 124.890625 74.101562 122.1875 68.871094 122.1875 C 63.640625 122.1875 59.027344 124.890625 56.335938 128.980469 C 56.703125 127.679688 56.902344 126.308594 56.902344 124.890625 C 56.902344 116.566406 50.164062 109.792969 41.882812 109.792969 C 33.601562 109.792969 26.867188 116.566406 26.867188 124.890625 C 26.867188 128.816406 28.363281 132.394531 30.816406 135.085938 C 22.765625 138.859375 16.917969 146.640625 15.914062 156.058594 C 15.804688 157.101562 16.136719 158.136719 16.832031 158.914062 C 17.527344 159.691406 18.519531 160.136719 19.558594 160.136719 L 45.199219 160.136719 C 44.011719 162.699219 43.214844 165.496094 42.902344 168.457031 C 42.789062 169.496094 43.125 170.53125 43.820312 171.308594 C 44.515625 172.085938 45.503906 172.53125 46.546875 172.53125 L 91.195312 172.53125 C 92.234375 172.53125 93.226562 172.085938 93.921875 171.308594 Z M 113.648438 152.765625 L 87.421875 152.765625 C 85.449219 150.769531 83.160156 149.089844 80.636719 147.8125 C 84.128906 142.96875 89.765625 139.988281 95.859375 139.988281 C 104.066406 139.988281 111.117188 145.257812 113.648438 152.765625 Z M 95.859375 117.160156 C 100.097656 117.160156 103.546875 120.628906 103.546875 124.890625 C 103.546875 129.152344 100.097656 132.621094 95.859375 132.621094 C 91.617188 132.621094 88.167969 129.152344 88.167969 124.890625 C 88.167969 120.628906 91.617188 117.160156 95.859375 117.160156 Z M 84.800781 135.097656 C 84.460938 135.257812 84.125 135.425781 83.792969 135.601562 C 83.703125 134.777344 83.542969 133.976562 83.324219 133.199219 C 83.765625 133.871094 84.261719 134.503906 84.800781 135.097656 Z M 68.871094 129.554688 C 73.109375 129.554688 76.558594 133.023438 76.558594 137.285156 C 76.558594 141.546875 73.113281 145.011719 68.875 145.015625 C 68.875 145.015625 68.871094 145.015625 68.871094 145.015625 C 68.867188 145.015625 68.867188 145.015625 68.863281 145.015625 C 64.628906 145.011719 61.179688 141.546875 61.179688 137.285156 C 61.179688 133.023438 64.628906 129.554688 68.871094 129.554688 Z M 53.949219 135.601562 C 53.613281 135.425781 53.277344 135.257812 52.9375 135.097656 C 53.480469 134.503906 53.972656 133.871094 54.417969 133.195312 C 54.199219 133.976562 54.039062 134.777344 53.949219 135.601562 Z M 34.195312 124.890625 C 34.195312 120.628906 37.644531 117.160156 41.882812 117.160156 C 46.121094 117.160156 49.570312 120.628906 49.570312 124.890625 C 49.570312 129.152344 46.121094 132.621094 41.882812 132.621094 C 37.644531 132.621094 34.195312 129.152344 34.195312 124.890625 Z M 24.09375 152.765625 C 26.625 145.257812 33.671875 139.988281 41.882812 139.988281 C 47.972656 139.988281 53.613281 142.96875 57.101562 147.8125 C 54.578125 149.089844 52.292969 150.769531 50.316406 152.769531 L 24.09375 152.769531 Z M 51.078125 165.164062 C 53.609375 157.65625 60.65625 152.390625 68.859375 152.382812 C 68.863281 152.382812 68.867188 152.382812 68.871094 152.382812 C 68.871094 152.382812 68.875 152.382812 68.878906 152.382812 C 77.085938 152.390625 84.128906 157.65625 86.660156 165.164062 Z M 51.078125 165.164062 " fill-opacity="1" fill-rule="nonzero"/></g><g clip-path="url(#02a8a5881d)"><path fill="#000000" d="M 234.582031 1.058594 C 198.457031 1.058594 168.902344 30.613281 168.902344 66.738281 C 168.902344 102.859375 198.457031 132.417969 234.582031 132.417969 C 270.703125 132.417969 300.261719 102.859375 300.261719 66.738281 C 300.261719 30.613281 270.703125 1.058594 234.582031 1.058594 Z M 243.117188 96.949219 L 231.296875 96.949219 L 231.296875 50.316406 L 216.847656 54.914062 L 216.847656 45.0625 L 241.804688 35.867188 L 243.117188 35.867188 Z M 243.117188 96.949219 " fill-opacity="1" fill-rule="nonzero"/></g></g></g></svg>