<svg xmlns="http://www.w3.org/2000/svg" xmlns:xlink="http://www.w3.org/1999/xlink" width="500" zoomAndPan="magnify" viewBox="0 0 375 374.999991" height="500" preserveAspectRatio="xMidYMid meet" version="1.0"><defs><clipPath id="6d7f684921"><path d="M 172 37.5 L 203 37.5 L 203 71 L 172 71 Z M 172 37.5 " clip-rule="nonzero"/></clipPath><clipPath id="d6fd490607"><path d="M 83.4375 108 L 291.9375 108 L 291.9375 249 L 83.4375 249 Z M 83.4375 108 " clip-rule="nonzero"/></clipPath><clipPath id="f9fd375385"><path d="M 146 254 L 230 254 L 230 337.5 L 146 337.5 Z M 146 254 " clip-rule="nonzero"/></clipPath></defs><rect x="-37.5" width="450" fill="#ffffff" y="-37.499999" height="449.999989" fill-opacity="1"/><rect x="-37.5" width="450" fill="#ffffff" y="-37.499999" height="449.999989" fill-opacity="1"/><g clip-path="url(#6d7f684921)"><path fill="#000000" d="M 202.644531 53.992188 C 202.644531 55.078125 202.550781 56.15625 202.359375 57.222656 C 202.167969 58.289062 201.882812 59.328125 201.507812 60.332031 C 201.128906 61.335938 200.671875 62.292969 200.125 63.195312 C 199.578125 64.101562 198.957031 64.9375 198.265625 65.707031 C 197.570312 66.476562 196.8125 67.164062 195.996094 67.769531 C 195.179688 68.375 194.320312 68.882812 193.410156 69.300781 C 192.503906 69.714844 191.570312 70.03125 190.605469 70.242188 C 189.640625 70.457031 188.667969 70.5625 187.6875 70.5625 C 186.707031 70.5625 185.734375 70.457031 184.769531 70.242188 C 183.804688 70.03125 182.871094 69.714844 181.964844 69.300781 C 181.054688 68.882812 180.195312 68.375 179.378906 67.769531 C 178.5625 67.164062 177.804688 66.476562 177.109375 65.707031 C 176.417969 64.9375 175.796875 64.101562 175.25 63.195312 C 174.703125 62.292969 174.246094 61.335938 173.867188 60.332031 C 173.492188 59.328125 173.207031 58.289062 173.015625 57.222656 C 172.824219 56.15625 172.730469 55.078125 172.730469 53.992188 C 172.730469 52.902344 172.824219 51.824219 173.015625 50.757812 C 173.207031 49.691406 173.492188 48.65625 173.867188 47.648438 C 174.246094 46.644531 174.703125 45.691406 175.25 44.785156 C 175.796875 43.878906 176.417969 43.042969 177.109375 42.273438 C 177.804688 41.503906 178.5625 40.816406 179.378906 40.214844 C 180.195312 39.609375 181.054688 39.097656 181.964844 38.683594 C 182.871094 38.265625 183.804688 37.953125 184.769531 37.738281 C 185.734375 37.527344 186.707031 37.421875 187.6875 37.421875 C 188.667969 37.421875 189.640625 37.527344 190.605469 37.738281 C 191.570312 37.953125 192.503906 38.265625 193.410156 38.683594 C 194.320312 39.097656 195.179688 39.609375 195.996094 40.214844 C 196.8125 40.816406 197.570312 41.503906 198.265625 42.273438 C 198.957031 43.042969 199.578125 43.878906 200.125 44.785156 C 200.671875 45.691406 201.128906 46.644531 201.507812 47.648438 C 201.882812 48.65625 202.167969 49.691406 202.359375 50.757812 C 202.550781 51.824219 202.644531 52.902344 202.644531 53.992188 Z M 202.644531 53.992188 " fill-opacity="1" fill-rule="nonzero"/></g><path fill="#000000" d="M 173.835938 101.648438 C 176.09375 105.816406 177.539062 110.398438 178.089844 115.117188 L 197.285156 115.117188 C 197.816406 110.398438 199.261719 105.816406 201.539062 101.648438 C 204.328125 96.511719 208.246094 92.207031 212.855469 88.96875 C 211.707031 87.191406 210.363281 85.53125 208.878906 84.050781 C 203.457031 78.640625 195.976562 75.300781 187.6875 75.300781 C 177.140625 75.300781 167.863281 80.753906 162.519531 88.96875 C 164.261719 90.191406 165.902344 91.574219 167.445312 93.117188 C 169.980469 95.625 172.136719 98.507812 173.835938 101.648438 Z M 173.835938 101.648438 " fill-opacity="1" fill-rule="nonzero"/><path fill="#000000" d="M 249.160156 68.132812 C 249.160156 69.21875 249.066406 70.296875 248.875 71.363281 C 248.683594 72.433594 248.398438 73.46875 248.023438 74.472656 C 247.644531 75.476562 247.1875 76.433594 246.640625 77.335938 C 246.09375 78.242188 245.472656 79.078125 244.78125 79.847656 C 244.085938 80.617188 243.328125 81.304688 242.511719 81.910156 C 241.695312 82.515625 240.835938 83.023438 239.925781 83.441406 C 239.019531 83.855469 238.085938 84.171875 237.121094 84.382812 C 236.15625 84.597656 235.183594 84.703125 234.203125 84.703125 C 233.222656 84.703125 232.25 84.597656 231.285156 84.382812 C 230.320312 84.171875 229.386719 83.855469 228.480469 83.441406 C 227.570312 83.023438 226.710938 82.515625 225.894531 81.910156 C 225.078125 81.304688 224.320312 80.617188 223.625 79.847656 C 222.933594 79.078125 222.3125 78.242188 221.765625 77.335938 C 221.21875 76.433594 220.757812 75.476562 220.382812 74.472656 C 220.007812 73.46875 219.722656 72.433594 219.53125 71.363281 C 219.339844 70.296875 219.246094 69.21875 219.246094 68.132812 C 219.246094 67.042969 219.339844 65.964844 219.53125 64.898438 C 219.722656 63.832031 220.007812 62.796875 220.382812 61.789062 C 220.757812 60.785156 221.21875 59.832031 221.765625 58.925781 C 222.3125 58.019531 222.933594 57.183594 223.625 56.414062 C 224.320312 55.644531 225.078125 54.957031 225.894531 54.355469 C 226.710938 53.75 227.570312 53.238281 228.480469 52.824219 C 229.386719 52.40625 230.320312 52.09375 231.285156 51.878906 C 232.25 51.667969 233.222656 51.5625 234.203125 51.5625 C 235.183594 51.5625 236.15625 51.667969 237.121094 51.878906 C 238.085938 52.09375 239.019531 52.40625 239.925781 52.824219 C 240.835938 53.238281 241.695312 53.75 242.511719 54.355469 C 243.328125 54.957031 244.085938 55.644531 244.78125 56.414062 C 245.472656 57.183594 246.09375 58.019531 246.640625 58.925781 C 247.1875 59.832031 247.644531 60.785156 248.023438 61.789062 C 248.398438 62.796875 248.683594 63.832031 248.875 64.898438 C 249.066406 65.964844 249.160156 67.042969 249.160156 68.132812 Z M 249.160156 68.132812 " fill-opacity="1" fill-rule="nonzero"/><path fill="#000000" d="M 207.867188 105.082031 C 205.574219 109.332031 204.246094 114.167969 204.246094 119.34375 L 204.246094 126.097656 C 204.246094 127.855469 205.671875 129.257812 207.414062 129.257812 L 260.972656 129.257812 C 262.734375 129.257812 264.136719 127.835938 264.136719 126.097656 L 264.136719 119.34375 C 264.136719 114.1875 262.832031 109.332031 260.519531 105.082031 C 259.132812 102.535156 257.390625 100.226562 255.355469 98.191406 C 249.933594 92.78125 242.453125 89.441406 234.164062 89.441406 C 222.847656 89.441406 212.953125 95.761719 207.867188 105.082031 Z M 207.867188 105.082031 " fill-opacity="1" fill-rule="nonzero"/><path fill="#000000" d="M 156.128906 68.132812 C 156.128906 69.21875 156.035156 70.296875 155.84375 71.363281 C 155.652344 72.433594 155.367188 73.46875 154.992188 74.472656 C 154.617188 75.476562 154.15625 76.433594 153.609375 77.335938 C 153.0625 78.242188 152.441406 79.078125 151.75 79.847656 C 151.054688 80.617188 150.296875 81.304688 149.480469 81.910156 C 148.664062 82.515625 147.804688 83.023438 146.894531 83.441406 C 145.988281 83.855469 145.054688 84.171875 144.089844 84.382812 C 143.125 84.597656 142.152344 84.703125 141.171875 84.703125 C 140.191406 84.703125 139.21875 84.597656 138.253906 84.382812 C 137.289062 84.171875 136.355469 83.855469 135.449219 83.441406 C 134.539062 83.023438 133.679688 82.515625 132.863281 81.910156 C 132.046875 81.304688 131.289062 80.617188 130.59375 79.847656 C 129.902344 79.078125 129.28125 78.242188 128.734375 77.335938 C 128.1875 76.433594 127.730469 75.476562 127.351562 74.472656 C 126.976562 73.46875 126.691406 72.433594 126.5 71.363281 C 126.308594 70.296875 126.214844 69.21875 126.214844 68.132812 C 126.214844 67.042969 126.308594 65.964844 126.5 64.898438 C 126.691406 63.832031 126.976562 62.796875 127.351562 61.789062 C 127.730469 60.785156 128.1875 59.832031 128.734375 58.925781 C 129.28125 58.019531 129.902344 57.183594 130.59375 56.414062 C 131.289062 55.644531 132.046875 54.957031 132.863281 54.355469 C 133.679688 53.75 134.539062 53.238281 135.449219 52.824219 C 136.355469 52.40625 137.289062 52.09375 138.253906 51.878906 C 139.21875 51.667969 140.191406 51.5625 141.171875 51.5625 C 142.152344 51.5625 143.125 51.667969 144.089844 51.878906 C 145.054688 52.09375 145.988281 52.40625 146.894531 52.824219 C 147.804688 53.238281 148.664062 53.75 149.480469 54.355469 C 150.296875 54.957031 151.054688 55.644531 151.75 56.414062 C 152.441406 57.183594 153.0625 58.019531 153.609375 58.925781 C 154.15625 59.832031 154.617188 60.785156 154.992188 61.789062 C 155.367188 62.796875 155.652344 63.832031 155.84375 64.898438 C 156.035156 65.964844 156.128906 67.042969 156.128906 68.132812 Z M 156.128906 68.132812 " fill-opacity="1" fill-rule="nonzero"/><path fill="#000000" d="M 114.382812 129.257812 L 167.941406 129.257812 C 169.703125 129.257812 171.105469 127.835938 171.105469 126.097656 L 171.105469 119.34375 C 171.105469 114.1875 169.800781 109.332031 167.488281 105.082031 C 166.101562 102.535156 164.359375 100.226562 162.324219 98.191406 C 156.902344 92.78125 149.421875 89.441406 141.132812 89.441406 C 129.753906 89.441406 119.863281 95.761719 114.796875 105.082031 C 112.503906 109.332031 111.175781 114.167969 111.175781 119.34375 L 111.175781 126.097656 C 111.21875 127.835938 112.621094 129.257812 114.382812 129.257812 Z M 114.382812 129.257812 " fill-opacity="1" fill-rule="nonzero"/><g clip-path="url(#d6fd490607)"><path fill="#000000" d="M 291.183594 122.363281 C 289.363281 114.128906 280.144531 109.449219 269.976562 108.066406 C 270.925781 111.085938 271.480469 114.226562 271.65625 117.386719 C 272.230469 117.742188 272.882812 118.058594 273.65625 118.316406 C 273.675781 118.316406 274.605469 119.027344 274.683594 119.105469 C 279.886719 123.550781 279.828125 128.722656 274.527344 133.03125 C 273.515625 133.839844 272.449219 134.609375 271.300781 135.203125 C 265.445312 138.203125 259.390625 140.832031 253 142.46875 C 247.023438 143.992188 241.007812 145.175781 234.953125 146.066406 C 230.78125 146.65625 226.605469 147.171875 222.429688 147.585938 C 215.722656 148.21875 208.976562 148.613281 202.230469 148.890625 C 197.382812 149.085938 192.554688 149.183594 187.707031 149.207031 C 182.878906 149.183594 178.03125 149.085938 173.183594 148.890625 C 166.4375 148.613281 159.691406 148.21875 152.984375 147.585938 C 148.808594 147.171875 144.632812 146.65625 140.460938 146.066406 C 134.40625 145.15625 128.390625 143.992188 122.414062 142.46875 C 116.023438 140.832031 109.96875 138.203125 104.113281 135.203125 C 102.964844 134.609375 101.898438 133.859375 100.890625 133.03125 C 95.566406 128.722656 95.527344 123.550781 100.730469 119.105469 C 100.808594 119.027344 101.71875 118.335938 101.757812 118.316406 C 102.53125 118 103.203125 117.644531 103.757812 117.289062 C 103.914062 114.148438 104.488281 111.046875 105.417969 108.066406 C 95.25 109.449219 86.050781 114.128906 84.210938 122.363281 C 83.832031 124.0625 83.636719 125.683594 83.636719 127.261719 C 83.636719 127.34375 83.636719 127.421875 83.636719 127.480469 C 83.636719 127.558594 83.636719 127.617188 83.636719 127.699219 C 83.714844 132.734375 85.949219 137.175781 89.925781 141.148438 C 97.289062 148.472656 107.714844 158.703125 118.734375 169.527344 C 136.226562 187.144531 153.714844 204.761719 171.226562 222.359375 C 172.058594 223.328125 172.652344 224.078125 172.96875 224.570312 C 173.5625 225.65625 173.796875 226.839844 173.738281 228.285156 C 173.621094 231.265625 173.621094 241.496094 173.660156 248.980469 C 178.191406 247.636719 182.898438 246.945312 187.707031 246.945312 C 192.515625 246.945312 197.203125 247.636719 201.753906 248.980469 C 201.773438 241.515625 201.792969 231.285156 201.675781 228.285156 C 201.617188 226.839844 201.875 225.65625 202.449219 224.570312 C 202.765625 224.078125 203.359375 223.328125 204.1875 222.359375 C 221.699219 204.761719 239.1875 187.164062 256.679688 169.527344 C 267.699219 158.722656 278.144531 148.472656 285.488281 141.148438 C 289.464844 137.175781 291.699219 132.734375 291.777344 127.699219 C 291.777344 127.617188 291.777344 127.320312 291.777344 127.261719 C 291.757812 125.683594 291.5625 124.0625 291.183594 122.363281 Z M 291.183594 122.363281 " fill-opacity="1" fill-rule="nonzero"/></g><g clip-path="url(#f9fd375385)"><path fill="#000000" d="M 187.6875 254.511719 C 164.757812 254.511719 146.175781 273.054688 146.175781 295.945312 C 146.175781 318.835938 164.757812 337.382812 187.6875 337.382812 C 210.617188 337.382812 229.199219 318.835938 229.199219 295.945312 C 229.199219 273.054688 210.617188 254.511719 187.6875 254.511719 Z M 182.128906 288.621094 C 183.253906 289.429688 185.769531 290.476562 189.644531 291.71875 C 193.128906 292.824219 195.859375 293.914062 197.835938 295 C 199.796875 296.066406 201.398438 297.585938 202.625 299.519531 C 203.851562 301.457031 204.464844 303.726562 204.464844 306.316406 C 204.464844 309.691406 203.359375 312.753906 201.179688 315.460938 C 200.210938 316.664062 198.984375 317.652344 197.5 318.441406 C 196.15625 319.171875 194.59375 319.707031 192.8125 320.082031 C 192.652344 320.121094 192.496094 320.140625 192.316406 320.179688 L 192.316406 326.460938 L 183.019531 326.460938 L 183.019531 320.199219 C 182.800781 320.160156 182.601562 320.121094 182.40625 320.082031 C 176.488281 318.855469 172.570312 315.320312 170.691406 309.433594 L 179.21875 306.234375 L 179.4375 306.15625 C 180.226562 308.191406 181.199219 309.769531 182.34375 310.898438 C 183.789062 311.902344 185.648438 312.398438 187.925781 312.398438 C 188.972656 312.398438 189.902344 312.300781 190.695312 312.082031 C 191.722656 311.824219 192.574219 311.390625 193.207031 310.777344 C 194.335938 309.691406 194.890625 308.390625 194.890625 306.867188 C 194.890625 305.289062 194.335938 304.082031 193.207031 303.273438 C 192.078125 302.464844 189.566406 301.417969 185.6875 300.171875 C 182.207031 299.066406 179.476562 297.980469 177.496094 296.894531 C 175.539062 295.828125 173.9375 294.308594 172.710938 292.371094 C 171.484375 290.4375 170.871094 288.164062 170.871094 285.578125 C 170.871094 282.199219 171.957031 279.140625 174.152344 276.433594 C 175.125 275.230469 176.351562 274.242188 177.835938 273.453125 C 179.179688 272.71875 180.742188 272.1875 182.523438 271.8125 C 182.683594 271.773438 182.839844 271.753906 183.019531 271.714844 L 183.019531 265.433594 L 192.316406 265.433594 L 192.316406 271.695312 C 192.535156 271.734375 192.734375 271.773438 192.929688 271.8125 C 198.847656 273.035156 202.765625 276.570312 204.644531 282.457031 L 196.117188 285.65625 L 195.898438 285.734375 C 195.105469 283.703125 194.136719 282.121094 192.988281 280.996094 C 191.546875 279.988281 189.6875 279.496094 187.410156 279.496094 C 186.363281 279.496094 185.433594 279.59375 184.640625 279.8125 C 183.613281 280.066406 182.761719 280.503906 182.128906 281.113281 C 181 282.199219 180.445312 283.503906 180.445312 285.023438 C 180.445312 286.605469 181 287.808594 182.128906 288.621094 Z M 182.128906 288.621094 " fill-opacity="1" fill-rule="nonzero"/></g></svg>