<svg xmlns="http://www.w3.org/2000/svg" xmlns:xlink="http://www.w3.org/1999/xlink" width="500" zoomAndPan="magnify" viewBox="0 0 375 374.999991" height="500" preserveAspectRatio="xMidYMid meet" version="1.0"><defs><clipPath id="931971b9e0"><path d="M 0.589844 95 L 259.214844 95 L 259.214844 270.015625 L 0.589844 270.015625 Z M 0.589844 95 " clip-rule="nonzero"/></clipPath><clipPath id="b2b64a0fa6"><path d="M 33 58.285156 L 107 58.285156 L 107 165 L 33 165 Z M 33 58.285156 " clip-rule="nonzero"/></clipPath><clipPath id="177d62f6e1"><path d="M 148.90625 0.101562 L 300.929688 0.101562 L 300.929688 108 L 148.90625 108 Z M 148.90625 0.101562 " clip-rule="nonzero"/></clipPath><clipPath id="a6f501da31"><rect x="0" width="302" y="0" height="272"/></clipPath></defs><rect x="-37.5" width="450" fill="#ffffff" y="-37.499999" height="449.999989" fill-opacity="1"/><rect x="-37.5" width="450" fill="#ffffff" y="-37.499999" height="449.999989" fill-opacity="1"/><g transform="matrix(1, 0, 0, 1, 37, 52)"><g clip-path="url(#a6f501da31)"><path fill="#000000" d="M 170.121094 140.007812 L 170.652344 145.140625 C 172.351562 144.976562 174.113281 144.890625 175.890625 144.890625 C 177.355469 144.890625 178.863281 144.949219 180.375 145.0625 L 180.785156 139.921875 C 179.136719 139.796875 177.492188 139.734375 175.890625 139.734375 C 173.9375 139.734375 172 139.828125 170.121094 140.007812 " fill-opacity="1" fill-rule="nonzero"/><path fill="#000000" d="M 149.757812 146.394531 L 152.4375 150.847656 C 155.207031 149.265625 158.160156 147.984375 161.207031 147.035156 L 159.59375 142.121094 C 156.179688 143.183594 152.871094 144.621094 149.757812 146.394531 " fill-opacity="1" fill-rule="nonzero"/><path fill="#000000" d="M 78.992188 216.824219 C 82.484375 216.132812 85.921875 215.160156 89.207031 213.9375 L 87.3125 209.117188 C 84.296875 210.242188 81.144531 211.132812 77.933594 211.769531 L 78.992188 216.824219 " fill-opacity="1" fill-rule="nonzero"/><path fill="#000000" d="M 133.871094 160.1875 L 138.03125 163.375 C 140.113281 160.796875 142.34375 158.457031 144.664062 156.417969 L 141.117188 152.589844 C 138.574219 154.824219 136.136719 157.378906 133.871094 160.1875 " fill-opacity="1" fill-rule="nonzero"/><path fill="#000000" d="M 58.367188 212.726562 L 57.898438 217.863281 C 60.261719 218.066406 62.628906 218.171875 64.933594 218.171875 C 66.113281 218.171875 67.300781 218.144531 68.464844 218.089844 L 68.210938 212.9375 C 67.132812 212.988281 66.03125 213.011719 64.933594 213.011719 C 62.785156 213.011719 60.578125 212.917969 58.367188 212.726562 " fill-opacity="1" fill-rule="nonzero"/><path fill="#000000" d="M 104.128906 199.53125 C 101.570312 201.578125 98.871094 203.414062 96.105469 204.992188 L 98.789062 209.441406 C 101.785156 207.726562 104.710938 205.738281 107.484375 203.523438 L 104.128906 199.53125 " fill-opacity="1" fill-rule="nonzero"/><path fill="#000000" d="M 117.550781 185.503906 C 115.558594 188.167969 113.449219 190.675781 111.28125 192.953125 L 115.167969 196.460938 C 117.472656 194.03125 119.71875 191.367188 121.832031 188.539062 L 117.550781 185.503906 " fill-opacity="1" fill-rule="nonzero"/><path fill="#000000" d="M 37.351562 213.675781 C 40.726562 214.746094 44.136719 215.636719 47.488281 216.328125 L 48.585938 211.28125 C 45.417969 210.625 42.1875 209.785156 38.992188 208.769531 L 37.351562 213.675781 " fill-opacity="1" fill-rule="nonzero"/><path fill="#000000" d="M 208.890625 152.785156 C 211.832031 154.082031 214.847656 155.550781 217.851562 157.152344 L 220.394531 152.625 C 217.273438 150.960938 214.136719 149.433594 211.070312 148.085938 L 208.890625 152.785156 " fill-opacity="1" fill-rule="nonzero"/><path fill="#000000" d="M 190.089844 146.507812 C 193.183594 147.183594 196.390625 148.078125 199.628906 149.171875 L 201.359375 144.296875 C 197.9375 143.140625 194.535156 142.191406 191.25 141.476562 L 190.089844 146.507812 " fill-opacity="1" fill-rule="nonzero"/><g clip-path="url(#931971b9e0)"><path fill="#000000" d="M 192.945312 196.609375 L 190.109375 196.785156 L 188.027344 198.707031 L 152.785156 231.140625 L 120.042969 132.84375 L 154.878906 103.191406 L 203.863281 105.019531 L 229.644531 157.964844 C 229.546875 157.902344 229.445312 157.839844 229.34375 157.777344 L 226.507812 162.132812 C 229.0625 163.710938 231.613281 165.386719 234.101562 167.121094 L 246.804688 193.203125 Z M 208.960938 97.21875 L 152.0625 95.097656 L 114.039062 127.460938 L 104.640625 125.8125 C 103.414062 128.195312 102.070312 130.664062 100.617188 133.210938 L 112.425781 135.285156 L 125.183594 173.585938 C 124.46875 174.886719 123.730469 176.160156 122.988281 177.394531 L 127.265625 179.84375 L 145.34375 234.113281 L 90.648438 231.617188 L 88.285156 231.507812 L 86.242188 232.703125 L 42.820312 258.050781 L 27.738281 209.644531 L 29.6875 205.320312 C 28.253906 204.707031 26.96875 204.117188 25.851562 203.582031 L 10.035156 152.8125 L 39.621094 133.746094 C 38.238281 131.335938 36.949219 128.996094 35.765625 126.730469 L 0.589844 149.394531 L 38.167969 270.015625 L 90.285156 239.59375 L 152.324219 242.425781 L 193.449219 204.574219 L 259.214844 200.417969 L 208.960938 97.21875 " fill-opacity="1" fill-rule="nonzero"/></g><g clip-path="url(#b2b64a0fa6)"><path fill="#000000" d="M 49.933594 92.664062 C 49.933594 81.628906 58.902344 72.679688 69.964844 72.679688 C 81.027344 72.679688 89.996094 81.628906 89.996094 92.664062 C 89.996094 103.703125 81.027344 112.652344 69.964844 112.652344 C 58.902344 112.652344 49.933594 103.703125 49.933594 92.664062 Z M 106.726562 94.960938 C 106.726562 74.703125 90.269531 58.28125 69.964844 58.28125 C 49.664062 58.28125 33.207031 74.703125 33.207031 94.960938 C 33.207031 118.617188 69.964844 164.867188 69.964844 164.867188 C 69.964844 164.867188 106.726562 118.617188 106.726562 94.960938 " fill-opacity="1" fill-rule="nonzero"/></g><g clip-path="url(#177d62f6e1)"><path fill="#000000" d="M 161.191406 0.613281 L 288.796875 0.613281 C 295.550781 0.613281 301.082031 6.109375 301.082031 12.820312 L 301.082031 95.78125 C 301.082031 102.492188 295.550781 107.992188 288.796875 107.992188 L 161.191406 107.992188 C 154.4375 107.992188 148.90625 102.5 148.90625 95.78125 L 148.90625 12.820312 C 148.90625 6.109375 154.4375 0.613281 161.191406 0.613281 Z M 208.988281 68.890625 L 189.984375 68.890625 L 186.804688 78.6875 C 186.695312 79.066406 186.546875 79.445312 186.320312 79.753906 C 186.074219 80.144531 185.675781 80.375 185.253906 80.539062 C 184.714844 80.75 184.046875 80.824219 183.46875 80.871094 C 182.527344 80.941406 181.570312 80.953125 180.625 80.953125 C 179.648438 80.953125 178.632812 80.9375 177.664062 80.824219 C 177.046875 80.753906 176.339844 80.578125 175.917969 80.097656 C 175.503906 79.621094 175.429688 79.011719 175.519531 78.40625 C 175.628906 77.636719 175.894531 76.816406 176.144531 76.078125 L 192.222656 30.050781 C 192.367188 29.613281 192.570312 29.179688 192.851562 28.828125 C 193.152344 28.40625 193.625 28.167969 194.109375 28.015625 C 194.757812 27.808594 195.519531 27.738281 196.199219 27.707031 C 197.304688 27.652344 198.421875 27.652344 199.527344 27.652344 C 200.792969 27.652344 202.066406 27.652344 203.335938 27.707031 C 204.082031 27.738281 204.925781 27.804688 205.644531 28.011719 C 206.15625 28.160156 206.667969 28.402344 207.023438 28.84375 C 207.320312 29.246094 207.527344 29.703125 207.667969 30.171875 L 223.804688 76.167969 C 224.054688 76.914062 224.3125 77.75 224.429688 78.53125 C 224.519531 79.136719 224.433594 79.75 223.964844 80.21875 C 223.484375 80.648438 222.734375 80.796875 222.105469 80.855469 C 221.074219 80.949219 220 80.953125 218.964844 80.953125 C 217.890625 80.953125 216.804688 80.957031 215.730469 80.902344 C 215.128906 80.867188 214.441406 80.808594 213.859375 80.632812 C 213.449219 80.507812 213.042969 80.3125 212.785156 79.96875 C 212.554688 79.683594 212.402344 79.328125 212.304688 78.984375 Z M 274.503906 53.535156 C 274.503906 57.679688 274.050781 62.007812 272.601562 65.917969 C 271.410156 69.132812 269.644531 72.042969 267.09375 74.375 C 264.597656 76.660156 261.621094 78.214844 258.378906 79.183594 C 254.503906 80.339844 250.304688 80.707031 246.277344 80.707031 L 233.820312 80.707031 C 232.863281 80.707031 231.992188 80.4375 231.269531 79.816406 C 230.425781 79.089844 230.195312 77.972656 230.195312 76.914062 L 230.195312 31.691406 C 230.195312 30.632812 230.425781 29.511719 231.269531 28.792969 C 231.992188 28.167969 232.863281 27.898438 233.820312 27.898438 L 247.199219 27.898438 C 251.183594 27.898438 255.394531 28.285156 259.191406 29.550781 C 262.316406 30.59375 265.179688 32.171875 267.554688 34.460938 C 269.917969 36.722656 271.613281 39.460938 272.738281 42.511719 C 274.039062 46.027344 274.503906 49.808594 274.503906 53.535156 Z M 199.292969 40.171875 L 193.078125 58.808594 C 193 59.054688 193.035156 59.292969 193.1875 59.503906 C 193.34375 59.714844 193.558594 59.828125 193.820312 59.828125 L 205.003906 59.828125 C 205.269531 59.828125 205.484375 59.714844 205.640625 59.503906 C 205.789062 59.292969 205.828125 59.050781 205.75 58.800781 L 199.585938 40.171875 C 199.5625 40.101562 199.511719 40.0625 199.441406 40.0625 C 199.367188 40.0625 199.316406 40.101562 199.292969 40.171875 Z M 262.570312 53.90625 C 262.570312 51.632812 262.324219 49.371094 261.71875 47.175781 C 261.191406 45.230469 260.320312 43.4375 259.03125 41.878906 C 257.753906 40.332031 256.144531 39.179688 254.296875 38.386719 C 251.953125 37.378906 249.121094 37.125 246.59375 37.125 L 242.492188 37.125 C 242.066406 37.125 241.710938 37.476562 241.710938 37.902344 L 241.710938 70.621094 C 241.710938 71.046875 242.066406 71.398438 242.492188 71.398438 L 246.757812 71.398438 C 249.140625 71.398438 251.691406 71.148438 253.929688 70.308594 C 255.785156 69.605469 257.417969 68.539062 258.726562 67.058594 C 260.109375 65.492188 261.015625 63.601562 261.601562 61.613281 C 262.332031 59.132812 262.570312 56.476562 262.570312 53.90625 Z M 161.71875 15.710938 L 161.71875 92.898438 C 161.71875 94.195312 162.785156 95.257812 164.097656 95.257812 L 285.894531 95.257812 C 287.203125 95.257812 288.269531 94.195312 288.269531 92.898438 L 288.269531 15.710938 C 288.269531 14.40625 287.195312 13.34375 285.894531 13.34375 L 164.097656 13.34375 C 162.789062 13.34375 161.71875 14.410156 161.71875 15.710938 Z M 161.71875 15.710938 " fill-opacity="1" fill-rule="evenodd"/></g></g></g></svg>